<svg xmlns="http://www.w3.org/2000/svg" width="78" height="78" viewBox="0 0 78 78">
  <g id="Grupo_1116928" data-name="Grupo 1116928" transform="translate(-853.833 -480.985)">
    <path id="Trazado_893367" data-name="Trazado 893367" d="M20.163,31.385s-11.326-13.7-2.848-20.758c9.115-7.594,18.314,8.167,18.314,8.167S39.94-2.238,50.911.2s2.578,24.341,2.578,24.341,15.934-8.347,23.133,3.127-16.163,15.43-16.163,15.43S77.923,56.681,68.737,68c-10.124,12.473-23.525-7.452-23.525-7.452S43.252,82.636,28.44,77.113c-15.218-5.674-6.534-26.951-6.534-26.951S2.084,56.348.173,44.353c-1.982-12.438,13.6-13.139,19.99-12.968" transform="translate(853.833 480.985)" fill="#2ee8e8"/>
    <path id="Trazado_893368" data-name="Trazado 893368" d="M30.315,36.064A7.184,7.184,0,1,0,37.5,28.88a7.185,7.185,0,0,0-7.184,7.184" transform="translate(857.244 484.799)" fill="#fcdf8e"/>
    <path id="Elipse_11764" data-name="Elipse 11764" d="M13.267-.5A13.767,13.767,0,0,1,23,23,13.767,13.767,0,1,1,3.532,3.532,13.677,13.677,0,0,1,13.267-.5Zm0,26.59A12.823,12.823,0,1,0,.444,13.267,12.837,12.837,0,0,0,13.267,26.09Z" transform="translate(881.022 507.977)" fill="#6b4502"/>
  </g>
</svg>
