<svg xmlns="http://www.w3.org/2000/svg" xmlns:xlink="http://www.w3.org/1999/xlink" width="105.334" height="105.693" viewBox="0 0 105.334 105.693">
  <defs>
    <clipPath id="clip-path">
      <rect id="Rectángulo_407255" data-name="Rectángulo 407255" width="105.334" height="105.693" transform="translate(0)" fill="#07c3f3"/>
    </clipPath>
    <clipPath id="clip-path-2">
      <rect id="Rectángulo_401492" data-name="Rectángulo 401492" width="65.388" height="65.389" transform="translate(-0.205 0)" fill="#953c2d" stroke="#707070" stroke-width="1"/>
    </clipPath>
    <clipPath id="clip-path-3">
      <rect id="Rectángulo_409233" data-name="Rectángulo 409233" width="59.435" height="59.667" fill="#953c2d"/>
    </clipPath>
  </defs>
  <g id="Grupo_1119263" data-name="Grupo 1119263" transform="translate(-179.664 -3685)">
    <g id="Grupo_1116923" data-name="Grupo 1116923" transform="translate(179.664 3685)" clip-path="url(#clip-path)">
      <path id="Trazado_893365" data-name="Trazado 893365" d="M104.048,31.292C97.88,10.265,51.742-13.615,17.656,9.414s-9.13,105.365-4.625,88.724c4.329-15.992,23.523-2.928,37.93-2.46C67,96.2,77.411,92.049,77.386,91.987c7.4-2.756,12.628-6.379,17-13.195,8.73-13.615,13.376-34.847,9.664-47.5" transform="translate(0.001 2.676)" fill="#f69a8b"/>
    </g>
    <g id="Grupo_1115380" data-name="Grupo 1115380" transform="translate(199.664 3705)">
      <rect id="Rectángulo_401104" data-name="Rectángulo 401104" width="60.924" height="61.907" transform="translate(2.232 0)" fill="none"/>
      <g id="Enmascarar_grupo_1098697" data-name="Enmascarar grupo 1098697" transform="translate(0 0)" clip-path="url(#clip-path-2)">
        <g id="Grupo_1119533" data-name="Grupo 1119533" transform="translate(2.795 3)">
          <g id="Grupo_1119532" data-name="Grupo 1119532" clip-path="url(#clip-path-3)">
            <path id="Trazado_925298" data-name="Trazado 925298" d="M47.913,42.284v9.63h3.239c.762,0,.66,2.385.62,2.9a4.8,4.8,0,0,1-3.37,4.51c-11.85.686-23.862.109-35.77.3-1.954.077-4.818-2.115-4.818-4.112V13.743H.9c-.507,0-.744-.9-.787-1.314-.2-1.862-.2-7.741.492-9.312A5.1,5.1,0,0,1,5.269.253C16.94.876,29.429-.55,41,.253c3.667.254,6.21,2.218,6.89,5.892l.055,18.506c.2.663,4.521,4.33,5.308,5.373.334.442.553.628.345,1.219A20.154,20.154,0,0,1,50.7,34.3c-.853.6-.94.577-1.824-.031l-.783.748L59.434,46.6c.034.376-2.442,2.985-2.843,3.221a.9.9,0,0,1-.848.136ZM7.816,11.817V4.55a4.508,4.508,0,0,0-.989-1.638,2.863,2.863,0,0,0-4.236.615,9.77,9.77,0,0,0-.554,1.2v7.091Zm38.172,40.1V40.27c0-.116-1.435-1.569-1.748-1.411-1.061.538.264,1.246-.449,2.366a18.837,18.837,0,0,1-3.184,2.954c-.612.127-.832-.072-1.276-.4a64.407,64.407,0,0,1-6.216-6.216c-.384-.514-.647-.857-.268-1.5.11-.187,2.877-2.954,3.064-3.064.888-.521,1.446.386,1.673.283.559-.73,5.087-4.83,5.051-5.232-.025-.276-.432-.635-.46-.936-.061-.673,3.153-3.4,3.785-4.027L45.941,6.172c-.146-1.8-2.5-3.985-4.244-3.985H8.866l.882,2.708.009,50.244a2.9,2.9,0,0,0,5.763-.334c.074-.667-.336-2.89.612-2.89Zm-.064-26.252c-.292.335-1.477,1.14-1.26,1.562l4.908,4.915c.42.435,1.753-1.1,1.592-1.41ZM44,29.515l-5.186,5.153,3.411,3.411,5.153-5.186A19.326,19.326,0,0,0,44,29.515m-7.553,5.594-1.485,1.485L40.3,41.931l1.485-1.485Zm10.331,1.226c-.232.333-1.1.8-.886,1.221,1.379,1,9.453,9.989,10.166,9.988.173,0,.243-.1.358-.171.166-.1.346-.407.528-.537v-.347ZM49.839,53.84H17.446a8.138,8.138,0,0,1-.875,3.852H47.3a11.114,11.114,0,0,0,1.126-.45,3.373,3.373,0,0,0,1.413-3.4" transform="translate(0.001 -0.001)" fill="#953c2d"/>
            <path id="Trazado_925299" data-name="Trazado 925299" d="M74.343,187.368c11.852-1.433,13.277,15.954,2.206,17.089-11.365,1.165-12.911-15.794-2.206-17.089m.171,1.922c-8.109,1.112-7.033,14.1,1.86,13.24,8.595-.829,7.369-14.506-1.86-13.24" transform="translate(-55.359 -154.491)" fill="#953c2d"/>
            <rect id="Rectángulo_409229" data-name="Rectángulo 409229" width="31.518" height="1.926" transform="translate(12.544 6.038)" fill="#953c2d"/>
            <rect id="Rectángulo_409230" data-name="Rectángulo 409230" width="31.518" height="1.926" transform="translate(12.544 9.89)" fill="#953c2d"/>
            <rect id="Rectángulo_409231" data-name="Rectángulo 409231" width="31.518" height="1.926" transform="translate(12.544 13.742)" fill="#953c2d"/>
            <path id="Trazado_925300" data-name="Trazado 925300" d="M103.032,100.483v1.926H71.777c-.5-.462-.184-1.3-.263-1.926Z" transform="translate(-58.97 -82.889)" fill="#953c2d"/>
            <path id="Trazado_925301" data-name="Trazado 925301" d="M103.032,121.483v1.926H71.514c.079-.626-.236-1.464.263-1.926Z" transform="translate(-58.97 -100.211)" fill="#953c2d"/>
            <path id="Trazado_925302" data-name="Trazado 925302" d="M99.48,145.409H71.639v-1.926H99.217c.5.462.184,1.3.263,1.926" transform="translate(-59.095 -118.359)" fill="#953c2d"/>
            <rect id="Rectángulo_409232" data-name="Rectángulo 409232" width="25.915" height="1.926" transform="translate(12.544 28.976)" fill="#953c2d"/>
            <path id="Trazado_925303" data-name="Trazado 925303" d="M187.018,261.19v1.926h-4.465a4.1,4.1,0,0,1-2.453-1.753,6.778,6.778,0,0,1-4.463,1.754l0-1.926a4.413,4.413,0,0,0,3.158-1.307c.492-.507.714-1.472,1.481-1.513,1.259-.068.963,1.118,1.335,1.834a3.5,3.5,0,0,0,1.116.985Z" transform="translate(-144.882 -213.128)" fill="#953c2d"/>
            <path id="Trazado_925304" data-name="Trazado 925304" d="M92.324,209.264c6.842-1.161,7.79,8.464,2.017,9.372-6.659,1.048-7.531-8.436-2.017-9.372m3.136,2.646c-2.542-2.677-6.794,1.37-4.082,4.082,2.564,2.564,6.7-1.321,4.082-4.082" transform="translate(-73.172 -172.542)" fill="#953c2d"/>
          </g>
        </g>
      </g>
    </g>
  </g>
</svg>
