<svg xmlns="http://www.w3.org/2000/svg" xmlns:xlink="http://www.w3.org/1999/xlink" width="99" height="99" viewBox="0 0 99 99">
  <defs>
    <clipPath id="clip-path">
      <rect id="Rectángulo_401223" data-name="Rectángulo 401223" width="99" height="99" transform="translate(0)" fill="#8ce6fe"/>
    </clipPath>
    <clipPath id="clip-path-2">
      <rect id="Rectángulo_401223-2" data-name="Rectángulo 401223" width="88.539" height="88.539" fill="#f3f9ff"/>
    </clipPath>
    <clipPath id="clip-path-3">
      <rect id="Rectángulo_409279" data-name="Rectángulo 409279" width="43.333" height="69" fill="none"/>
    </clipPath>
  </defs>
  <g id="Grupo_1118900" data-name="Grupo 1118900" transform="translate(-619.921 -5755.871)">
    <g id="Grupo_1100724" data-name="Grupo 1100724" transform="translate(619.921 5755.871)">
      <g id="Grupo_1099654" data-name="Grupo 1099654" transform="translate(0 0)">
        <g id="Enmascarar_grupo_1099652" data-name="Enmascarar grupo 1099652" clip-path="url(#clip-path)">
          <path id="Trazado_873521" data-name="Trazado 873521" d="M99,77.066A22,22,0,0,1,77.066,99H21.934A22,22,0,0,1,0,77.066V21.933A22,22,0,0,1,21.934,0H77.066A22,22,0,0,1,99,21.934Z" transform="translate(0)" fill="#ffdcd6"/>
        </g>
      </g>
      <g id="Grupo_1099659" data-name="Grupo 1099659" transform="translate(4.77 5.723)">
        <g id="Grupo_1099652" data-name="Grupo 1099652" transform="translate(0 0)" clip-path="url(#clip-path-2)">
          <path id="Trazado_873521-2" data-name="Trazado 873521" d="M88.539,68.922A19.674,19.674,0,0,1,68.923,88.539H19.616A19.674,19.674,0,0,1,0,68.922V19.616A19.674,19.674,0,0,1,19.616,0H68.923A19.674,19.674,0,0,1,88.539,19.616Z" fill="#f3f9ff"/>
        </g>
      </g>
    </g>
    <g id="Grupo_1100725" data-name="Grupo 1100725" transform="translate(636.343 5771.293)">
      <rect id="Rectángulo_401104" data-name="Rectángulo 401104" width="68" height="69" transform="translate(0.29 -0.116)" fill="none"/>
      <g id="Grupo_1119563" data-name="Grupo 1119563" transform="translate(12.623 -0.116)">
        <g id="Grupo_1119562" data-name="Grupo 1119562" clip-path="url(#clip-path-3)">
          <path id="Trazado_925411" data-name="Trazado 925411" d="M10.915,45.609c0,1.513,8.585,2.668,18.978,2.668s18.976-1.155,18.976-2.668S40.287,42.8,29.893,42.8s-18.978,1.3-18.978,2.808" transform="translate(-10.915 -21.708)" fill="#c97466"/>
          <path id="Trazado_925412" data-name="Trazado 925412" d="M47.435,40c.176-.259,4.3-6.4,3.243-11.451A6.6,6.6,0,0,0,47.6,24.189a13.163,13.163,0,0,0-2.5-1.258c-.606-3.175-2.455-5.254-5.357-5.829a10.017,10.017,0,0,0-3.1-.176,5.588,5.588,0,0,0-2.661-2.035c-2.708-1.033-6.05.1-8.123,2.74a8.994,8.994,0,0,0-1.538,2.922,8.276,8.276,0,0,0-2.589.431,4.22,4.22,0,0,0-2.51,2.582c-.866,2.42.1,5.783,2.892,9.994l.7-.465c-3.272-4.957-3.326-7.762-2.8-9.244a3.389,3.389,0,0,1,1.973-2.065,7.52,7.52,0,0,1,2.117-.392,12.022,12.022,0,0,0,2.317,9.144,4.316,4.316,0,0,0,3,1.793h.012a3.354,3.354,0,0,0,2.666-1.623c1.144-1.56.787-4.152-.889-6.449A8.965,8.965,0,0,0,25.2,20.607a8.14,8.14,0,0,1,1.327-2.452c1.849-2.357,4.793-3.374,7.16-2.475A4.8,4.8,0,0,1,35.73,17.1a4.6,4.6,0,0,0-3.4,3.234c-.539,1.749-.773,4.021.191,5.142a2.006,2.006,0,0,0,1.934.62c1.492-.218,2.877-2.361,3.15-4.874a6.566,6.566,0,0,0-.5-3.49,9.715,9.715,0,0,1,2.473.2,5.754,5.754,0,0,1,4.613,4.731,4.506,4.506,0,0,0-3.657.467c-1.975,1.3-2.485,4.254-2.114,6.6a4,4,0,0,0,3.463,2.911h.011c.92,0,2.537-.538,3.137-4.114a17.248,17.248,0,0,0,.206-4.632A13.2,13.2,0,0,1,47.15,24.9a5.784,5.784,0,0,1,2.7,3.813c.981,4.694-3.081,10.746-3.117,10.805Zm-3.073-16.42a16.092,16.092,0,0,1-.161,4.806c-.369,2.2-1.187,3.408-2.3,3.408H41.89a3.2,3.2,0,0,1-2.635-2.2c-.317-2.013.094-4.676,1.746-5.765a3.911,3.911,0,0,1,3.36-.254M24.97,21.418a7.944,7.944,0,0,1,5.566,3.336c1.436,1.968,1.8,4.211.89,5.453a2.571,2.571,0,0,1-1.979,1.279h-.008a3.5,3.5,0,0,1-2.317-1.435c-2.016-2.931-2.74-5.97-2.153-8.634M36.226,17.84a5.88,5.88,0,0,1,.541,3.283c-.246,2.26-1.48,3.991-2.434,4.131a1.2,1.2,0,0,1-1.171-.337c-.693-.807-.516-2.764-.025-4.344a3.83,3.83,0,0,1,3.087-2.737" transform="translate(-16.838 -7.36)" fill="#8ce6fe"/>
          <path id="Trazado_925413" data-name="Trazado 925413" d="M18.936,51.357c9.844,0,17.941-1.076,18.926-2.455-.12,4.22-.3,4.385,1.831,6.4,2.8,2.663,3.768,2.543,3.574,4.544-.189,1.956-2.781,1.314-3.614,1.948-1.481,1.12-.413,2.419.755,3.25s1.53,1.939.322,3.162c0,0,1.335,1.385,0,2.322s-2.823-.236-1.549,2.26-.71,4.775-4.88,4.056c-1.831-.316-4.487-1.485-5.835.206s.35,10.644,2.8,13.8-19.907,4.618-22.307.011c-.768-1.474,3.711-6.752,3.369-9.789S10.978,76.2,7.756,71.226C3.544,64.72-.027,56.193,0,48.874c.908,1.391,9.04,2.479,18.94,2.479" transform="translate(0.043 -24.789)" fill="#f69a8b"/>
          <path id="Trazado_925414" data-name="Trazado 925414" d="M8.707,17.349h2.435V14.914h1.328v2.435h2.435v1.328H12.471v2.435H11.143V18.677H8.707Z" transform="translate(24.136 -7.564)" fill="#07c3f3"/>
          <path id="Trazado_925415" data-name="Trazado 925415" d="M73.577,6.3h2.435V3.863h1.328V6.3h2.435V7.626H77.341v2.435H76.013V7.626H73.577Z" transform="translate(-72.702 -1.959)" fill="#07c3f3"/>
          <path id="Trazado_925416" data-name="Trazado 925416" d="M42.131,1.478h1.478V0h.807V1.478h1.478v.806H44.416V3.763h-.807V2.284H42.131Z" transform="translate(-23.324 0)" fill="#07c3f3"/>
        </g>
      </g>
    </g>
  </g>
</svg>
