<svg xmlns="http://www.w3.org/2000/svg" xmlns:xlink="http://www.w3.org/1999/xlink" width="150" height="150" viewBox="0 0 150 150">
  <defs>
    <clipPath id="clip-path">
      <rect id="Rectángulo_407255" data-name="Rectángulo 407255" width="150" height="150" transform="translate(0)" fill="#f69a8b"/>
    </clipPath>
    <clipPath id="clip-path-2">
      <rect id="Rectángulo_401492" data-name="Rectángulo 401492" width="96.296" height="96.297" transform="translate(-0.331 0.001)" fill="#953c2d" stroke="#707070" stroke-width="1"/>
    </clipPath>
    <clipPath id="clip-path-3">
      <rect id="Rectángulo_409179" data-name="Rectángulo 409179" width="81.667" height="92.246" fill="#953c2d"/>
    </clipPath>
  </defs>
  <g id="Grupo_1118049" data-name="Grupo 1118049" transform="translate(-179.328 -3684.533)">
    <g id="Grupo_1116923" data-name="Grupo 1116923" transform="translate(179.328 3684.533)" clip-path="url(#clip-path)">
      <path id="Trazado_893365" data-name="Trazado 893365" d="M148.169,44.41C139.386,14.569,73.684-19.323,25.142,13.36s-13,149.535-6.586,125.918c6.165-22.7,33.5-4.155,54.014-3.491,22.845.739,37.666-5.15,37.63-5.238,10.531-3.911,17.983-9.053,24.206-18.726C146.839,92.5,153.455,62.367,148.169,44.41" transform="translate(0.001 3.798)" fill="#f69a8b"/>
    </g>
    <g id="Grupo_1115380" data-name="Grupo 1115380" transform="translate(222.027 3726.987)">
      <rect id="Rectángulo_401104" data-name="Rectángulo 401104" width="60.924" height="61.907" transform="translate(2.232 0)" fill="none"/>
      <g id="Enmascarar_grupo_1098697" data-name="Enmascarar grupo 1098697" transform="translate(-15.7 -15.454)" clip-path="url(#clip-path-2)">
        <g id="Grupo_1119434" data-name="Grupo 1119434" transform="translate(7.669 2.001)">
          <g id="Grupo_1119433" data-name="Grupo 1119433" clip-path="url(#clip-path-3)">
            <path id="Trazado_924982" data-name="Trazado 924982" d="M46.3,7.179,72.143,21.771c5.695-5.3,13.322,3.7,7.351,8.418-.694.548-1.993.844-2.133,1.587l-.014,28.443c-.05,1.072,1.166,1.069,1.858,1.6,6.362,4.838-1.1,13.935-7.062,8.661L46.3,85.067c1.615,9.569-12.537,9.576-10.926,0L9.524,70.475c-5.695,5.3-13.321-3.7-7.35-8.418.694-.548,1.993-.845,2.132-1.587L4.32,32.028c.05-1.072-1.166-1.069-1.858-1.6-6.278-4.775.927-13.814,6.9-8.74l.519.018L35.371,7.179C33.752-2.382,47.905-2.4,46.3,7.179m-3.562-3.6C40.265,1.133,36.145,5.1,39.09,7.619c2.577,2.205,6.124-1.591,3.645-4.044M70.412,24.248,45.223,9.7c-.666-.189-2.019,1.064-2.978,1.3-2.243.565-3.623-.2-5.44-1.368L11.255,24.248c.3,3.242-.752,6.021-4.046,7.027v29.7C10.5,61.978,11.557,64.756,11.255,68l25.55,14.61c2.58-1.938,5.294-2.152,7.874-.063h.544L70.412,68c-.3-3.242.752-6.021,4.045-7.027v-29.7c-3.293-1.006-4.347-3.785-4.045-7.027M5.029,23.193c-3.069.67-2.571,6.14,1.479,5.205,2.916-.673,2.251-6.019-1.479-5.205m70.408.008c-3.4.561-2.53,6.216,1.462,5.188,2.841-.732,2.06-5.769-1.462-5.188M4.768,63.857c-3.293.848-1.513,6.771,2.265,4.919,2.5-1.224,1.316-5.841-2.265-4.919m70.391-.009c-2.489.575-2.543,4.945.509,5.242,4,.389,3.993-6.281-.509-5.242M42.734,88.671c2.48-2.453-1.068-6.249-3.645-4.044-2.944,2.519,1.176,6.486,3.645,4.044" transform="translate(0 0)" fill="#953c2d"/>
            <path id="Trazado_924983" data-name="Trazado 924983" d="M49.853,102.675l2.923-2a16.5,16.5,0,0,1-1.644-2.6,6.593,6.593,0,0,1,8.915-8.384,6.663,6.663,0,0,1,1.5,10.993c-.049.108.632.324.669.317.477-.09,2.651-2.86,3.847-2.58l0-.392a6.542,6.542,0,0,1,7.788-10.446c3.245,1.82,3.97,5.819,2.185,8.989-.42.746-1.124,1.139-1.2,1.849,1.2-.281,3.37,2.489,3.847,2.58.036.007.717-.209.668-.317-3.452-3.072-2.83-9.053,1.5-10.993a6.593,6.593,0,0,1,8.915,8.384,16.5,16.5,0,0,1-1.644,2.6l2.923,2v-8.9a18.294,18.294,0,0,1,.691-1.7,4.624,4.624,0,0,1,8.608,1.7c.714,6.67-.478,14.645-.07,21.45-.186,4.012-9.109,9.011-8.181,12.777.067.273.977.378,1.352.832,1.093,1.324-.174,6.838-2.677,6.4-4.7-1.691-10.5-2.285-15.075-4.059-1.812-.7-2.1-1.074-1.887-3.1.164-1.593.919-4.225,2.892-4.148-.215-1.777-.757-3.57-.467-5.38.448-2.8,3.15-4.208,4.717-6.307H74.427c-.8,0-1.873-1.877-1.879-2.672l-4.353.026c.308.825-1.069,2.646-1.737,2.646H59.948c3.791,3.534,6,6.157,4.251,11.686,1.975-.074,2.727,2.553,2.892,4.148.189,1.826.029,2.349-1.684,3.04a104,104,0,0,1-14.427,3.9c-1.417.195-2.3.311-3.041-1.072a15.486,15.486,0,0,1-.99-3.751c.071-1.8,1.782-1.895,1.855-2.191.928-3.766-7.994-8.765-8.181-12.777.408-6.805-.784-14.781-.07-21.45a4.624,4.624,0,0,1,8.609-1.7,18.287,18.287,0,0,1,.69,1.7Zm20.39-13.218c-4.688.254-4.493,7.665.455,7.384,4.738-.269,4.269-7.641-.455-7.384M54.728,92.938c-3.255,3.069.8,8.182,4.558,5.752,4.4-2.847-.833-9.264-4.558-5.752m31.429,0c-3.725-3.512-8.958,2.9-4.558,5.752,3.755,2.43,7.812-2.683,4.558-5.752M49.4,108.87c-2.724,2.5,4,6.1,4.826,7.889.727,1.579-.636,2.737-2.135,1.868-.4-.231-4.78-4.663-5.164-5.195a5.2,5.2,0,0,1-1.043-3.693c.129-1.067.917-1.879,1.048-2.941a84.325,84.325,0,0,0-.022-12.477c-.323-2.07-3.187-2.655-3.45.238-.581,6.4.44,13.688.035,20.18,1.8,4.746,8.045,7.053,8.216,12.643l9.3-2.516c.33-.256,1.281-6.121.379-6.771-3-2.3-6.326-7.346-9.284-9.311a2.066,2.066,0,0,0-2.709.086m39.764,18.512c.206-5.5,6.159-7.846,8.177-12.416-.448-6.493.811-14.33.067-20.665-.294-2.5-3.118-2.055-3.443.021a84.363,84.363,0,0,0-.022,12.477c.3,2.417,2.211,3.219.229,6.327a76.989,76.989,0,0,1-5.54,5.616,1.683,1.683,0,0,1-1.88-.234,1.348,1.348,0,0,1-.267-.825c-.127-2.456,7.971-6.08,4.991-8.813a2.067,2.067,0,0,0-2.851.037c-1.849,1.325-6.068,5.837-7.849,7.7a6.808,6.808,0,0,0-1.648,2.194c-.176.751.32,5.743.733,6.064ZM68.917,100.353a8.73,8.73,0,0,0-4.187,2.2,14.579,14.579,0,0,0,1.6,2.111c.622.862.541,1.874,1.705,2.014a33.315,33.315,0,0,0,5.465-.145l2.653-3.98a8.3,8.3,0,0,0-7.236-2.2M65,109.316c-.792-6.4-9.176-8.847-13.547-4.114l2.632,1.347,2.812,2.767Zm10.892,0h8.1l2.812-2.767,2.632-1.347c-4.37-4.733-12.754-2.288-13.547,4.114m-11.957,17.8-13.367,3.5-.429.389.252,1.162L64.2,128.438ZM90.5,132.166,90.748,131l-.428-.389-13.364-3.5-.272,1.32Z" transform="translate(-29.609 -63.592)" fill="#953c2d"/>
          </g>
        </g>
      </g>
    </g>
  </g>
</svg>
