<svg xmlns="http://www.w3.org/2000/svg" xmlns:xlink="http://www.w3.org/1999/xlink" width="150" height="150" viewBox="0 0 150 150">
  <defs>
    <clipPath id="clip-path">
      <rect id="Rectángulo_407255" data-name="Rectángulo 407255" width="150" height="150" transform="translate(0)" fill="#f69a8b"/>
    </clipPath>
    <clipPath id="clip-path-2">
      <rect id="Rectángulo_401492" data-name="Rectángulo 401492" width="96.296" height="96.297" transform="translate(-0.331 0.001)" fill="#953c2d" stroke="#707070" stroke-width="1"/>
    </clipPath>
    <clipPath id="clip-path-3">
      <rect id="Rectángulo_409181" data-name="Rectángulo 409181" width="89.333" height="85.001" fill="#953c2d"/>
    </clipPath>
  </defs>
  <g id="Grupo_1119136" data-name="Grupo 1119136" transform="translate(-179.328 -3684.533)">
    <g id="Grupo_1116923" data-name="Grupo 1116923" transform="translate(179.328 3684.533)" clip-path="url(#clip-path)">
      <path id="Trazado_893365" data-name="Trazado 893365" d="M148.169,44.41C139.386,14.569,73.684-19.323,25.142,13.36s-13,149.535-6.586,125.918c6.165-22.7,33.5-4.155,54.014-3.491,22.845.739,37.666-5.15,37.63-5.238,10.531-3.911,17.983-9.053,24.206-18.726C146.839,92.5,153.455,62.367,148.169,44.41" transform="translate(0.001 3.798)" fill="#f69a8b"/>
    </g>
    <g id="Grupo_1115380" data-name="Grupo 1115380" transform="translate(222.027 3726.987)">
      <rect id="Rectángulo_401104" data-name="Rectángulo 401104" width="60.924" height="61.907" transform="translate(2.232 0)" fill="none"/>
      <g id="Enmascarar_grupo_1098697" data-name="Enmascarar grupo 1098697" transform="translate(-15.7 -15.454)" clip-path="url(#clip-path-2)">
        <g id="Grupo_1119438" data-name="Grupo 1119438" transform="translate(3.669 6.001)">
          <g id="Grupo_1119437" data-name="Grupo 1119437" clip-path="url(#clip-path-3)">
            <path id="Trazado_924991" data-name="Trazado 924991" d="M113.029,122.623c21.8-2.618,24.346,29.312,3.88,31.272s-23.329-28.937-3.88-31.272m6.625,14.187c.718-4.406-3.537-18.505-7.355-7.783a21.758,21.758,0,0,0-1.2,7.783Zm-17.405,0h6.277a29.871,29.871,0,0,1,2.137-10.845c-4.693,1.55-7.746,6.072-8.415,10.845m26.25,0a13.48,13.48,0,0,0-4.875-8.964c-.272-.216-3.978-2.644-3.683-1.738a23.384,23.384,0,0,1,2.281,10.7Zm-19.973,2.568h-6.277a13.312,13.312,0,0,0,8.557,11.128c-1.342-3.554-2.469-7.262-2.28-11.128m11.128,0h-8.56c-.465,2.292,1.476,11.737,4.152,12,1.6-.307,2.671-2.5,3.2-3.932a21.965,21.965,0,0,0,1.206-8.067m8.845,0h-6.277a25.548,25.548,0,0,1-2.28,11.128,13.1,13.1,0,0,0,8.557-11.128" transform="translate(-71.395 -87.526)" fill="#953c2d"/>
            <path id="Trazado_924992" data-name="Trazado 924992" d="M20.3,186.123h5.564c.906,0,.939,2.568-.285,2.568H20.868c.161,1.488,2.47,2.37,3.609,3.524a14.546,14.546,0,0,1,3.676,6.738c.261,1.181.887,4.386-.07,5.161-1.319,1.069-5.191,1.741-6.514,2.826-.483.4-1.126,2.207-1.613,2.953-3.706,5.685-8.591,4.286-11.874-.856-.4-.624-.587-1.7-1.037-2.1-1.162-1.026-5.231-1.779-6.519-2.821-1.16-.939-.109-5.382.357-6.732a16.909,16.909,0,0,1,3.423-5.422c1.1-1.075,3.373-1.771,3.436-3.27H3.035c-1.372,0-1.137-2.568-.285-2.568H8.314l-3.956-4.2.385-1.229c1.586-1.449,3.986,2.307,5.138,3.094a7.027,7.027,0,0,1,8.85,0c.4,0,4.593-5.726,5.445-2.525.352,1.322-3.267,3.621-3.878,4.857m-2,2.281c.027-3.532-4.456-4.751-6.914-2.571-.452.4-1.819,2.659-.647,2.577,2.563-.178,4.962-.731,7.561-.006m7.667,13.946a11.661,11.661,0,1,0-23.319,0l3.383,1.178c-.528-3.341-1.663-4.761,1.564-6.853a12.43,12.43,0,0,1,13.939.341c2.745,2.1,1.343,3.561,1.049,6.512ZM8.09,199.305c-.779,1.338,1.88,8.242,2.953,9.624,4.959,6.388,9.39-4.179,9.522-8.446.082-2.646-5.5-3.427-7.514-3.2-.864.1-4.609,1.418-4.962,2.024" transform="translate(0 -128.85)" fill="#953c2d"/>
            <path id="Trazado_924993" data-name="Trazado 924993" d="M109.32.281c3.6-.488,13.114-.54,16.029,1.514,6,4.225,3.283,8.612,4.3,13.957.134.7.9,1,1.075,1.777.9,3.89-1.961,5.308-5.238,5.77-1.223,12.551-18.934,12.6-20.22,0-3.247-.55-6.136-1.806-5.174-5.709.205-.833.894-1.222,1.013-1.839.327-1.7-.159-4.382.01-6.268.392-4.383,3.7-8.6,8.2-9.2m17.76,14.478V8.624c0-.11-.671-1.782-.8-2.049a7.508,7.508,0,0,0-4.385-3.6c-2.019-.5-9.481-.414-11.8-.207-2.763.247-6.408,3.325-6.408,6.146v5.849h1.428c-.517-6.529,3.441-4.189,7.546-3.982,1.76.089,3.969.082,5.732,0,4.005-.192,7.8-2.559,7.263,3.984Zm-3.995-2a52.436,52.436,0,0,1-15.408,0V23.176c0,6.674,10.094,9.851,14.037,3.766a12.115,12.115,0,0,0,1.371-3.48ZM105.11,17.325a3.047,3.047,0,0,0-2.428.568c-.7,1.844.72,2.757,2.427,2.573Zm23.06,2.522-.227-2.1-2.291-.422v3.141Z" transform="translate(-71.401 0)" fill="#953c2d"/>
            <path id="Trazado_924994" data-name="Trazado 924994" d="M228.708,197.6c.6.634,10.057-5.1,7.552,2.559-1.018,3.112-4.047,5.176-6.844,6.567-.309,3,.351,5.236-1.566,7.85a7.97,7.97,0,0,1-12.964-.16c-1.727-2.48-1.13-4.9-1.441-7.689-2.639-1.392-5.381-3.1-6.564-5.991-3.426-8.364,6.744-2.612,7.272-3.135.452-2.313.534-5.766,3.073-6.774,1.345-.534,5.518-.534,7.059-.362,3.883.435,4,4,4.423,7.136m-2.282.851c-.685-1.68-.24-5.149-2.412-5.433a32.487,32.487,0,0,0-5.865.157c-1.107.528-1.137,4-1.716,5.113,3.19,1.376,6.714,1.1,9.993.163m7.414.289c-2.533.694-5.148,1.868-7.693,2.433-6.356,1.412-10.887-.343-16.841-2.3-.355-.116-.4-.29-.29.292.657,3.623,6.944,6.058,10.167,6.384,5.109.516,13.274-1.043,14.657-6.813m-17.686,8.846c-.028,2.174-.313,4.263,1.269,6,2.656,2.923,8.129,1.884,9.154-2,.185-.7.706-3.768-.047-3.981a24.356,24.356,0,0,1-10.376-.022" transform="translate(-147.349 -136.047)" fill="#953c2d"/>
            <path id="Trazado_924995" data-name="Trazado 924995" d="M221.473,84.181c-.893-.881-3.732-2.727-4.2-3.36a1.336,1.336,0,0,1,1.524-2.109,31.142,31.142,0,0,1,3.2,2.523A34.453,34.453,0,0,1,232.561,99.2c.428,1.957,1.939,7.419-1.717,5.141a33.073,33.073,0,0,0-9.371-20.16" transform="translate(-155.052 -56.197)" fill="#953c2d"/>
            <path id="Trazado_924996" data-name="Trazado 924996" d="M101.922,278.713c.8-.264,5.392,1.667,6.76,2a32.755,32.755,0,0,0,15.649-.118c1.417-.367,4.81-1.943,5.8-1.935a.96.96,0,0,1,.848.3l.415,1.012c-.063,1.517-6.055,3.058-7.46,3.366a35.912,35.912,0,0,1-16.216-.234c-1.272-.318-6.5-1.779-6.552-3.132Z" transform="translate(-72.301 -199.148)" fill="#953c2d"/>
            <path id="Trazado_924997" data-name="Trazado 924997" d="M48.575,78.7a1.344,1.344,0,0,1,1.656,1.952,34.026,34.026,0,0,1-2.719,2.133A32.465,32.465,0,0,0,37.81,97.9c-.453,1.585-.82,5.486-1.281,6.423-.531,1.08-2.455.838-2.436-.979.075-7.16,5.866-17.295,11.136-21.993.406-.362,3.141-2.6,3.346-2.658" transform="translate(-24.366 -56.187)" fill="#953c2d"/>
          </g>
        </g>
      </g>
    </g>
  </g>
</svg>
