<svg xmlns="http://www.w3.org/2000/svg" xmlns:xlink="http://www.w3.org/1999/xlink" width="99" height="99" viewBox="0 0 99 99">
  <defs>
    <clipPath id="clip-path">
      <rect id="Rectángulo_401223" data-name="Rectángulo 401223" width="99" height="99" transform="translate(0)" fill="#8ce6fe"/>
    </clipPath>
    <clipPath id="clip-path-2">
      <rect id="Rectángulo_401223-2" data-name="Rectángulo 401223" width="88.539" height="88.539" fill="#f3f9ff"/>
    </clipPath>
    <clipPath id="clip-path-3">
      <rect id="Rectángulo_409281" data-name="Rectángulo 409281" width="53.32" height="69" fill="none"/>
    </clipPath>
  </defs>
  <g id="Grupo_1118899" data-name="Grupo 1118899" transform="translate(-619.921 -5755.871)">
    <g id="Grupo_1100724" data-name="Grupo 1100724" transform="translate(619.921 5755.871)">
      <g id="Grupo_1099654" data-name="Grupo 1099654" transform="translate(0 0)">
        <g id="Grupo_1099652" data-name="Grupo 1099652" clip-path="url(#clip-path)">
          <path id="Trazado_873521" data-name="Trazado 873521" d="M99,77.066A22,22,0,0,1,77.066,99H21.934A22,22,0,0,1,0,77.066V21.933A22,22,0,0,1,21.934,0H77.066A22,22,0,0,1,99,21.934Z" transform="translate(0)" fill="#ffdcd6"/>
        </g>
      </g>
      <g id="Grupo_1099659" data-name="Grupo 1099659" transform="translate(4.77 5.723)">
        <g id="Grupo_1099652-2" data-name="Grupo 1099652" transform="translate(0 0)" clip-path="url(#clip-path-2)">
          <path id="Trazado_873521-2" data-name="Trazado 873521" d="M88.539,68.922A19.674,19.674,0,0,1,68.923,88.539H19.616A19.674,19.674,0,0,1,0,68.922V19.616A19.674,19.674,0,0,1,19.616,0H68.923A19.674,19.674,0,0,1,88.539,19.616Z" fill="#f3f9ff"/>
        </g>
      </g>
    </g>
    <g id="Grupo_1100725" data-name="Grupo 1100725" transform="translate(636.343 5771.293)">
      <rect id="Rectángulo_401104" data-name="Rectángulo 401104" width="68" height="69" transform="translate(0.29 0.375)" fill="none"/>
      <g id="Grupo_1119565" data-name="Grupo 1119565" transform="translate(7.29 0.375)">
        <g id="Grupo_1119564" data-name="Grupo 1119564" clip-path="url(#clip-path-3)">
          <path id="Trazado_925417" data-name="Trazado 925417" d="M76.468,89.533c-1.463-1.219-1.226-3.886,1.089-6.574s4.188-4.267,4.807-4.95C83,77.3,86.4,72.94,87.5,71.922a2.847,2.847,0,0,1,3.83-.4c.959.825.652,3.54-.622,5.779S80.4,92.808,76.468,89.533" transform="translate(-41.696 -39.152)" fill="#dd885b"/>
          <path id="Trazado_925418" data-name="Trazado 925418" d="M102.85,58.3c-1.476-.312-2.528-1.343-1.873-5.519s3.429-13.658,3.429-13.658l2.388.5s.636,8.584.381,10.867-.46,8.622-4.325,7.806" transform="translate(-55.618 -21.593)" fill="#dd885b"/>
          <path id="Trazado_925419" data-name="Trazado 925419" d="M74.75,92.368a6.386,6.386,0,0,1,1.156-5.462c1.215-1.591,8.4-9.5,8.4-9.5s5.782,4.219,5.941,4.517-9.862,12.691-9.862,12.691a5.2,5.2,0,0,1-5.633-2.245" transform="translate(-41.149 -42.719)" fill="#cee0ff"/>
          <path id="Trazado_925420" data-name="Trazado 925420" d="M116.354,30.431h0a.529.529,0,0,0-.679.3l-.807,2.1a.528.528,0,0,0,.305.681h0a.529.529,0,0,0,.678-.3l.807-2.1a.528.528,0,0,0-.3-.681" transform="translate(-63.374 -16.775)" fill="#dd885b"/>
          <path id="Trazado_925421" data-name="Trazado 925421" d="M114.374,29.448h0a.528.528,0,0,0-.678.3l-.807,2.1a.528.528,0,0,0,.305.681h0a.528.528,0,0,0,.678-.3l.807-2.1a.528.528,0,0,0-.3-.681" transform="translate(-62.281 -16.233)" fill="#dd885b"/>
          <path id="Trazado_925422" data-name="Trazado 925422" d="M112.392,28.61h0a.529.529,0,0,0-.678.3l-.807,2.1a.527.527,0,0,0,.3.681h0a.528.528,0,0,0,.678-.3l.807-2.1a.528.528,0,0,0-.3-.681" transform="translate(-61.187 -15.77)" fill="#dd885b"/>
          <path id="Trazado_925423" data-name="Trazado 925423" d="M110.4,27.982h0a.528.528,0,0,0-.678.3l-.807,2.1a.527.527,0,0,0,.3.681h0a.529.529,0,0,0,.678-.3l.807-2.1a.527.527,0,0,0-.3-.681" transform="translate(-60.089 -15.423)" fill="#dd885b"/>
          <path id="Trazado_925424" data-name="Trazado 925424" d="M107.237,35.819a36.374,36.374,0,0,1-.016-4.428,22.71,22.71,0,0,1,1.678-3.12s.577,1.144,1.212,1.291,2.309.374,2.309.374a16.131,16.131,0,0,1-.738,3.5,11.472,11.472,0,0,1-1.187,1.966Z" transform="translate(-59.133 -15.602)" fill="#dd885b"/>
          <path id="Trazado_925425" data-name="Trazado 925425" d="M22.4,89.533c1.463-1.219,1.226-3.886-1.089-6.574s-4.188-4.267-4.807-4.95c-.64-.705-4.038-5.069-5.132-6.086a2.848,2.848,0,0,0-3.831-.4c-.959.825-.652,3.54.622,5.779S18.469,92.808,22.4,89.533" transform="translate(-3.85 -39.152)" fill="#dd885b"/>
          <path id="Trazado_925426" data-name="Trazado 925426" d="M8.185,58.3c1.476-.312,2.528-1.343,1.873-5.519S6.629,39.125,6.629,39.125l-2.388.5S3.605,48.213,3.861,50.5s.46,8.622,4.324,7.806" transform="translate(-2.097 -21.593)" fill="#dd885b"/>
          <path id="Trazado_925427" data-name="Trazado 925427" d="M24.917,92.368a6.386,6.386,0,0,0-1.156-5.462c-1.215-1.591-8.4-9.5-8.4-9.5s-5.782,4.219-5.941,4.517,9.862,12.691,9.862,12.691a5.2,5.2,0,0,0,5.633-2.245" transform="translate(-5.199 -42.719)" fill="#cee0ff"/>
          <path id="Trazado_925428" data-name="Trazado 925428" d="M.34,30.431h0a.529.529,0,0,1,.679.3l.807,2.1a.528.528,0,0,1-.3.681h0a.529.529,0,0,1-.678-.3l-.807-2.1a.528.528,0,0,1,.3-.681" transform="translate(0 -16.775)" fill="#dd885b"/>
          <path id="Trazado_925429" data-name="Trazado 925429" d="M2.319,29.448h0a.528.528,0,0,1,.678.3l.807,2.1a.528.528,0,0,1-.305.681h0a.529.529,0,0,1-.678-.3l-.807-2.1a.528.528,0,0,1,.3-.681" transform="translate(-1.092 -16.233)" fill="#dd885b"/>
          <path id="Trazado_925430" data-name="Trazado 925430" d="M4.3,28.61h0a.529.529,0,0,1,.678.3l.807,2.1a.528.528,0,0,1-.305.681h0a.528.528,0,0,1-.678-.3L4,29.291a.528.528,0,0,1,.3-.681" transform="translate(-2.187 -15.77)" fill="#dd885b"/>
          <path id="Trazado_925431" data-name="Trazado 925431" d="M6.293,27.982h0a.528.528,0,0,1,.678.3l.807,2.1a.527.527,0,0,1-.3.681h0a.529.529,0,0,1-.678-.3l-.807-2.1a.527.527,0,0,1,.3-.681" transform="translate(-3.285 -15.423)" fill="#dd885b"/>
          <path id="Trazado_925432" data-name="Trazado 925432" d="M5.258,35.819a36.376,36.376,0,0,0,.016-4.428A22.71,22.71,0,0,0,3.6,28.271s-.577,1.144-1.212,1.291-2.309.374-2.309.374a16.132,16.132,0,0,0,.738,3.5A11.472,11.472,0,0,0,2,35.4Z" transform="translate(-0.041 -15.602)" fill="#dd885b"/>
          <path id="Trazado_925433" data-name="Trazado 925433" d="M54.833,86.141c-.213-.959-.746-5.7-.746-5.7H50.943v.16H47.8s-.533,4.742-.746,5.7-2.8,2.407-2.8,2.407h6.69v-.16h6.69s-2.587-1.447-2.8-2.406" transform="translate(-24.423 -44.394)" fill="#dd885b"/>
          <path id="Trazado_925434" data-name="Trazado 925434" d="M54.621,84.8c-.2-1.453-.438-3.52-.511-4.163l-.2-.2H50.943v.16H47.8s-.533,4.742-.746,5.7-2.8,2.406-2.8,2.406h.316c2.986-.8,5.955-1.589,6.354-1.7a27.425,27.425,0,0,0,3.7-2.2Z" transform="translate(-24.423 -44.394)" fill="#d17345"/>
          <path id="Trazado_925435" data-name="Trazado 925435" d="M56.389,97.616c-.317-.605-1.732-.734-3.849-1.17a15.855,15.855,0,0,0-4.769-.105l-5.108,2.345-5.108-2.346s-1.647.579-3.487,1.036c-2.088.518-4.418.953-4.776,1.544s3.381,12.1,3.8,13.077-.656,7.822.409,9.868l9.151.228h.02l9.151-.228c.836-2.347-.022-9.019.4-10s5.039-12.587,4.167-14.253" transform="translate(-16.152 -53.095)" fill="#cee0ff"/>
          <path id="Trazado_925436" data-name="Trazado 925436" d="M43.718,125.5c-.88-.415-2.2-.829-3-1.2s-.025-1.659-.035-2.323,2.43-1.908,4.08-2.365,4.51-.29,5.17-1.161-1.1-1.7-1.87-1.7-5.72-1.079-6.49-1-6.6.539-7.535,0-5.584-10.684-5.584-10.684c1.045,3.407,3.922,11.272,4.19,11.858.42.92-.656,7.357.409,9.281l9.151.215h.02l9.151-.215s-1.993-.211-2.818-.4-3.96.105-4.84-.31" transform="translate(-15.703 -57.985)" fill="#b8d1ff"/>
          <path id="Trazado_925437" data-name="Trazado 925437" d="M58.307,62.114c0,4.043-3.055,8.071-5.649,8.071-2.479,0-5.65-4.028-5.65-8.071s2.529-7.321,5.65-7.321,5.649,3.278,5.649,7.321" transform="translate(-25.943 -30.24)" fill="#dd885b"/>
          <path id="Trazado_925438" data-name="Trazado 925438" d="M45.855,62.459c-.25-.44-1.094-2.31-.911-3.154a16.49,16.49,0,0,1,1.5-3.228,12,12,0,0,1,3.7-2.054,11.453,11.453,0,0,1,2.531,0c.917.147,2.53.77,2.9,1.5s1.276,1.577,1.573,2.164A8,8,0,0,1,57.891,60c-.073.22-.477,2.054-.514,2.2a3.627,3.627,0,0,1-.3.564s-1.524-3.861-1.561-4.228-7.739-.477-8.216-.22-1.446,4.141-1.446,4.141" transform="translate(-24.79 -29.774)" fill="#563b26"/>
          <path id="Trazado_925439" data-name="Trazado 925439" d="M47.224,72.65s2.285,5.435,5.346,5.435,5.339-5.557,5.339-5.557l.454-.62s-.84,8.932-5.77,8.932c-4.146,0-5.623-6.506-5.838-8.672Z" transform="translate(-25.803 -39.685)" fill="#563b26"/>
          <path id="Trazado_925440" data-name="Trazado 925440" d="M53.01,82.566s1.383-2.183,3.11-2.209,3.073,2.209,3.073,2.209a11.4,11.4,0,0,0-3.05-1.1,11.36,11.36,0,0,0-3.133,1.1" transform="translate(-29.256 -44.348)" fill="#563b26"/>
          <rect id="Rectángulo_409280" data-name="Rectángulo 409280" width="50.097" height="16.743" transform="translate(1.703)" fill="#b79a77"/>
          <path id="Trazado_925441" data-name="Trazado 925441" d="M29.9,11.84a5.67,5.67,0,0,1-.826,3.1,2.66,2.66,0,0,1-2.3,1.421q-.269,0-.808-.026t-.808-.026q-.243,0-.73.026t-.73.026c-.086,0-.129-.053-.129-.159q0-.694.043-2.1t.044-2.1q0-.739-.041-2.223t-.042-2.224a.118.118,0,0,1,.134-.134q.191,0,.571.006t.57.006q.176,0,.537-.006t.548-.006a3.75,3.75,0,0,1,2.67.834,3.93,3.93,0,0,1,.976,1.612A6.013,6.013,0,0,1,29.9,11.84m-1.265,0A3.7,3.7,0,0,0,28,9.6a2.085,2.085,0,0,0-1.766-.9,4,4,0,0,1-.739-.013q-.6.038-.6.274,0,.491-.018,1.468T24.853,11.9q0,.485.018,1.453t.018,1.452q0,.243.62.281-.083-.006.754-.006a2.4,2.4,0,0,0,.945-.153,1.875,1.875,0,0,0,.78-.707,4.186,4.186,0,0,0,.645-2.376" transform="translate(-13.004 -4.094)"/>
          <path id="Trazado_925442" data-name="Trazado 925442" d="M45.952,11.84a5.67,5.67,0,0,1-.826,3.1,2.66,2.66,0,0,1-2.3,1.421q-.269,0-.808-.026t-.808-.026q-.243,0-.73.026t-.73.026c-.086,0-.129-.053-.129-.159q0-.694.043-2.1T39.7,12q0-.739-.041-2.223T39.62,7.553a.118.118,0,0,1,.134-.134q.191,0,.571.006t.57.006q.176,0,.537-.006t.548-.006a3.75,3.75,0,0,1,2.67.834,3.93,3.93,0,0,1,.976,1.612,6.013,6.013,0,0,1,.325,1.975m-1.265,0A3.7,3.7,0,0,0,44.052,9.6a2.085,2.085,0,0,0-1.766-.9,4,4,0,0,1-.739-.013q-.6.038-.6.274,0,.491-.018,1.468T40.907,11.9q0,.485.018,1.453t.018,1.452q0,.243.62.281-.083-.006.754-.006a2.4,2.4,0,0,0,.945-.153,1.875,1.875,0,0,0,.78-.707,4.186,4.186,0,0,0,.645-2.376" transform="translate(-21.864 -4.094)"/>
          <path id="Trazado_925443" data-name="Trazado 925443" d="M56.783,24a1.216,1.216,0,0,1-.23.736.68.68,0,0,1-.566.315.67.67,0,0,1-.563-.325A1.223,1.223,0,0,1,55.207,24a1.2,1.2,0,0,1,.222-.73.669.669,0,0,1,.558-.3.684.684,0,0,1,.568.306,1.185,1.185,0,0,1,.227.726" transform="translate(-30.468 -12.678)"/>
          <path id="Trazado_925444" data-name="Trazado 925444" d="M67.206,16.211q0,.147-.155.147-.088,0-.271-.019c-.122-.013-.215-.019-.276-.019s-.165.006-.3.019-.232.019-.3.019-.119-.049-.119-.147q0-.573.028-1.72t.029-1.72c0-.166-.04-.261-.119-.287a14.232,14.232,0,0,0-1.787-.051,14.311,14.311,0,0,0-1.787.051q-.114.038-.114.287,0,.561.026,1.688t.026,1.688q0,.21-.129.21-.1,0-.294-.019c-.131-.013-.229-.019-.295-.019s-.154.006-.276.019-.214.019-.276.019q-.129,0-.129-.147,0-.7.054-2.106T60.8,12q0-.739-.054-2.22t-.054-2.22q0-.14.129-.14c.062,0,.156.006.284.019s.224.019.289.019.159-.006.289-.019.227-.019.289-.019c.079,0,.119.038.119.115q0,.548-.039,1.647t-.039,1.647q0,.178.108.216a12.658,12.658,0,0,0,1.818.057,12.9,12.9,0,0,0,1.808-.057q.119-.038.119-.274,0-.536-.029-1.612t-.028-1.612c0-.085.04-.127.119-.127s.161.006.287.019.221.019.287.019.155-.006.279-.019.217-.019.279-.019q.134,0,.134.14,0,.739-.052,2.22T67.093,12q0,.7.057,2.105t.057,2.106" transform="translate(-33.496 -4.094)"/>
          <path id="Trazado_925445" data-name="Trazado 925445" d="M84.1,16.211q0,.147-.155.147-.088,0-.271-.019c-.122-.013-.215-.019-.276-.019s-.165.006-.3.019-.232.019-.3.019-.119-.049-.119-.147q0-.573.028-1.72t.029-1.72c0-.166-.04-.261-.119-.287a14.232,14.232,0,0,0-1.787-.051,14.311,14.311,0,0,0-1.787.051q-.114.038-.114.287,0,.561.026,1.688t.026,1.688q0,.21-.129.21-.1,0-.294-.019c-.131-.013-.229-.019-.295-.019s-.154.006-.276.019-.214.019-.276.019q-.129,0-.129-.147,0-.7.054-2.106T77.7,12q0-.739-.054-2.22t-.054-2.22q0-.14.129-.14c.062,0,.156.006.284.019s.224.019.289.019.159-.006.289-.019.227-.019.289-.019c.079,0,.119.038.119.115q0,.548-.039,1.647t-.039,1.647q0,.178.108.216a12.658,12.658,0,0,0,1.818.057,12.9,12.9,0,0,0,1.808-.057q.119-.038.119-.274,0-.536-.029-1.612t-.028-1.612c0-.085.04-.127.119-.127s.161.006.287.019.221.019.287.019.155-.006.279-.019.217-.019.279-.019q.134,0,.134.14,0,.739-.052,2.22T83.988,12q0,.7.057,2.105t.057,2.106" transform="translate(-42.82 -4.094)"/>
        </g>
      </g>
    </g>
  </g>
</svg>
