<svg xmlns="http://www.w3.org/2000/svg" xmlns:xlink="http://www.w3.org/1999/xlink" width="315" height="310" viewBox="0 0 315 310">
  <defs>
    <clipPath id="clip-path">
      <rect id="Rectángulo_409219" data-name="Rectángulo 409219" width="315" height="310" fill="#fff" stroke="#707070" stroke-width="1"/>
    </clipPath>
    <clipPath id="clip-path-2">
      <rect id="Rectángulo_409218" data-name="Rectángulo 409218" width="423.471" height="370.44" fill="none"/>
    </clipPath>
    <clipPath id="clip-path-3">
      <rect id="Rectángulo_409217" data-name="Rectángulo 409217" width="314.259" height="333.631" fill="none"/>
    </clipPath>
    <clipPath id="clip-path-4">
      <rect id="Rectángulo_409201" data-name="Rectángulo 409201" width="27.122" height="76.602" fill="none"/>
    </clipPath>
    <clipPath id="clip-path-5">
      <rect id="Rectángulo_409202" data-name="Rectángulo 409202" width="34.663" height="26.965" fill="none"/>
    </clipPath>
    <clipPath id="clip-path-6">
      <rect id="Rectángulo_409203" data-name="Rectángulo 409203" width="19.362" height="14.683" fill="none"/>
    </clipPath>
    <clipPath id="clip-path-7">
      <rect id="Rectángulo_409204" data-name="Rectángulo 409204" width="51.528" height="46.229" fill="none"/>
    </clipPath>
    <clipPath id="clip-path-8">
      <rect id="Rectángulo_409205" data-name="Rectángulo 409205" width="9.878" height="8.54" fill="none"/>
    </clipPath>
    <clipPath id="clip-path-9">
      <rect id="Rectángulo_409206" data-name="Rectángulo 409206" width="16.154" height="18.112" fill="none"/>
    </clipPath>
    <clipPath id="clip-path-10">
      <rect id="Rectángulo_409207" data-name="Rectángulo 409207" width="3.426" height="2.434" fill="none"/>
    </clipPath>
    <clipPath id="clip-path-11">
      <rect id="Rectángulo_409208" data-name="Rectángulo 409208" width="2.574" height="2.434" fill="none"/>
    </clipPath>
    <clipPath id="clip-path-12">
      <rect id="Rectángulo_409209" data-name="Rectángulo 409209" width="24.95" height="28.993" fill="none"/>
    </clipPath>
    <clipPath id="clip-path-13">
      <rect id="Rectángulo_409210" data-name="Rectángulo 409210" width="10.427" height="11.863" fill="none"/>
    </clipPath>
  </defs>
  <g id="Grupo_1119257" data-name="Grupo 1119257" transform="translate(-264.711 -3591.467)">
    <g id="Enmascarar_grupo_1119111" data-name="Enmascarar grupo 1119111" transform="translate(264.711 3591.467)" clip-path="url(#clip-path)">
      <path id="Trazado_893294" data-name="Trazado 893294" d="M32.034,0H282.966C300.658,0,315,14.629,315,32.674V177.531c0,18.046-14.342,32.674-32.034,32.674H32.034C14.342,210.205,0,195.577,0,177.531V32.674C0,14.629,14.342,0,32.034,0Z" transform="translate(0.289)" fill="#fff0c5"/>
      <g id="Grupo_1119513" data-name="Grupo 1119513" transform="translate(-43.471 -25.479)">
        <g id="Grupo_1119512" data-name="Grupo 1119512" clip-path="url(#clip-path-2)">
          <g id="Grupo_1119511" data-name="Grupo 1119511" transform="translate(45.571 -0.001)">
            <g id="Grupo_1119510" data-name="Grupo 1119510" clip-path="url(#clip-path-3)">
              <path id="Trazado_925067" data-name="Trazado 925067" d="M433.394,195.9c-5.449-6.215-16.278-5.48-20.937,1.421-.686-6.656-7.8-10.915-14.072-10.162s-11.6,5.161-15.993,9.962a30.063,30.063,0,0,0-26.995-7.114,31.909,31.909,0,0,0-21.429,18.823c-12.707-1.789-25.041,12.1-22.614,25.459-5.39.861-10.893,2.4-15.094,6.087s-6.765,9.973-4.945,15.427c-9.144-5.241-22.275,2.349-23.091,13.347-3.608-4.269-10.183-4.417-14.946-1.709s-8.043,7.611-10.746,12.578c-3.292-6.734-14.071-4.584-17.181,2.246s-.563,15.1,3.312,21.474c2.607,4.289,5.92,8.276,10.245,10.507,4.38,2.259,9.4,2.536,14.271,2.691a438.717,438.717,0,0,0,117.08-12.111c20.367-4.93,40.477-11.333,61.189-14.223,14.421-2.012,30.2-2.794,41.178-12.922,10.81-9.972,13.893-26.371,14.55-41.558.809-18.721-1.771-40.353-15.175-53.979-12.334-12.538-37.808-7.431-38.607,13.756" transform="translate(-128.769 -58.358)" fill="#efbdac"/>
              <path id="Trazado_925068" data-name="Trazado 925068" d="M72.1,262.2c7.026,5.688,10.658,14.8,13.995,23.483,4.025-1.6,8.309-3.231,12.528-2.355s8.085,5.327,6.906,9.715c5.189-.549,10.628-1.063,15.444,1.062s8.662,7.826,7.1,13.109a14.261,14.261,0,0,1,16.363-1.942,16.149,16.149,0,0,1,7.629,15.49c8.017-4.129,18.89.158,22.425,8.841,5.161-3.878,13.338-1.86,16.36,4.037,5.039-4.267,11.8-5.24,18.2-6.057L238.7,323.8c5.415-10.444,19.685-14.268,29.12-7.8,1.461-9.745,13.553-15.627,21.46-10.437,3.843-10.706,15.4-17.6,26.008-15.518-1.064-15.3,13.724-29.422,27.941-26.685,2.884-12.374,17.934-17.805,29.307-13.72S392,264.349,398.48,275.079a213.464,213.464,0,0,1,20.478,45.11c3.573,11.142,6.271,22.83,5.582,34.578-1.061,18.076-10,34.556-20.169,49.1-5.9,8.438-12.413,16.606-20.661,22.416-11.058,7.788-24.442,10.806-37.56,12.935-62.03,10.066-125.334,3.67-187.53-5.171-28.874-4.1-57.975-8.813-85.086-20.133-12.459-5.2-24.559-11.883-34.428-21.488C21.1,374.9,12.106,349.314,6.475,324.08c-5.77-25.861-4.468-51.32,7.757-75.045,12.327-23.923,30.4-5.608,34.215,14.153,6.122-7.091,16.71-6.6,23.65-.984" transform="translate(-46.749 -79.084)" fill="#f4b99f"/>
              <path id="Trazado_925069" data-name="Trazado 925069" d="M535.14,308.068a31.989,31.989,0,0,0-21.4,16.066,10.061,10.061,0,0,0-12.753-3.555c-4.3,2.24-6.623,8.04-5.158,12.882a10.625,10.625,0,0,0-12.293.441,12.255,12.255,0,0,0-4.048,12.331,6.965,6.965,0,0,0-8.17-1.361,7.864,7.864,0,0,0-3.823,7.785,8.6,8.6,0,0,0-10.042-.591,9.834,9.834,0,0,0-4,9.8c-4.818-2.494-10.855-1.614-15.264,1.622s-7.24,8.566-8.259,14.153c-.725,3.978-.473,8.473,2.014,11.547a15.2,15.2,0,0,0,5.168,3.74c8.35,4.223,17.4,6.655,26.492,8.48,21.4,4.3,44.149,5.225,64.394-3.311s37.371-28.177,38.786-51.253c.753-12.289-3.8-18.41-9.834-27.788-2.026-3.151-2.08-7-4.982-9.33-3.912-3.14-12.362-2.544-16.83-1.656" transform="translate(-205.151 -102.269)" fill="#f28761"/>
              <path id="Trazado_925070" data-name="Trazado 925070" d="M541.943,335.223c-2,.42-4.112.831-6.028.1s-3.44-3.071-2.647-5.062c-3.743-.366-6.477-5.085-5.1-8.8-2.54,1.379-5.829-1.042-6.291-4.03s1.2-5.955,3.379-7.907a6.327,6.327,0,0,1,4.61-6.254,5.966,5.966,0,0,1,6.65,3.845,4.25,4.25,0,0,1,1.44-3.674,6.365,6.365,0,0,1,3.83-1.353,4.688,4.688,0,0,1,2.528.434,6.679,6.679,0,0,1,2.456,3.332c-.165-1.509-.268-3.232.708-4.343a4.07,4.07,0,0,1,1.409-.956c1.916-.873,4.863.028,6.3,1.615,3.21-1.182,6.811,1.165,8.427,4.339s1.74,6.934,1.826,10.54c.107,4.481-.126,9.719-3.569,12.313-.976.735-2.131,1.174-3.089,1.934-1.766,1.4-2.926,3.893-5.1,4.287-2.142.388-4.439-1.516-6.383-.486-1.366.723-1.811,2.57-1.809,4.19a15.9,15.9,0,0,0,2.606,8.089c-6.635,5.865-5.021-8.626-6.16-12.154" transform="translate(-239.411 -99.893)" fill="#fcdfcd"/>
              <path id="Trazado_925071" data-name="Trazado 925071" d="M424.647,363.155a3.231,3.231,0,0,1,.842-1.36,4.277,4.277,0,0,1,2.292-.587c3.527-.446,6.274-4.976,4.565-8.282,5.153-.081,9.5-5.893,8.41-11.241a24.924,24.924,0,0,0,13.067-2.518,11.832,11.832,0,0,0,5.434-4.748c1.173-2.2,1.161-5.267-.545-7.037,2.021.125,3.671-1.969,3.947-4.1a13.74,13.74,0,0,0-1.165-6.255,15.359,15.359,0,0,0-2.878-5.559c-1.422-1.5-3.72-2.3-5.486-1.285,1.938-2.056,1.468-5.552.238-8.151a16.917,16.917,0,0,0-13.008-9.585,16.408,16.408,0,0,0-14.642,6.4,5.121,5.121,0,0,0-1.942-5.722,9.675,9.675,0,0,0-5.941-1.495c-2.835.039-5.8.645-7.976,2.58s-3.246,5.476-1.827,8.083a8.8,8.8,0,0,0-10.381-.06,10.131,10.131,0,0,0-3.527,10.365c-2.321-2.087-6.214-.573-7.695,2.247s-1.153,6.31-.412,9.442c.717,3.027,2.609,6.553,5.532,6.214-2.938-.007-5.432,2.919-5.646,6.03a9.413,9.413,0,0,0,3.916,7.919,15.017,15.017,0,0,0,8.335,2.623c.777.037,1.781-.14,1.942-.949a6.468,6.468,0,0,0,3.777,6.523,5.854,5.854,0,0,0,6.884-2.283,4.445,4.445,0,0,0,2.209,4.985,8.086,8.086,0,0,0,5.534.5c-1.92,1.91-.211,6.08,2.413,5.892q.341,4.969.682,9.939a10.467,10.467,0,0,1-.114,3.234c-1.065,4.287-7.024,5.8-7.611,10.186a3.3,3.3,0,0,0,.524,2.415,3.912,3.912,0,0,0,2.1,1.219c3.419,1.007,16.683,1,13.3-5.447-1.3-2.483-3.869-3.974-5.063-6.665a18.325,18.325,0,0,1-.087-13.466" transform="translate(-188.736 -97.035)" fill="#fcdfcd"/>
              <path id="Trazado_925072" data-name="Trazado 925072" d="M500.644,388.062H487.759V370.243H473.49v22.29h-8.8l-3.748-3.979h-3.957V377.693H434.418V397.4H423.136v10.731H348.8l5.436,28.327,51.7,11.181,101.194-7.19-4.757-51.974" transform="translate(-175.144 -123.193)" fill="#f2aa8b"/>
              <path id="Trazado_925073" data-name="Trazado 925073" d="M325.793,260.458c-.074,1.946-.142,3.505-.169,4.532-.2,6.837-3.884,8.784-5.926,10.953s-12.766,3.4-15.574,3.871c-2.6.431-5.1-66.581-5.453-76.6-.034-.811-.047-1.25-.047-1.25,6.975-2.148,15.763-3.584,18.212-1.782s6.948,7.441,8.789,17.633c1.562,8.662.615,31.71.169,42.642" transform="translate(-156.504 -66.335)" fill="#eb4343"/>
              <path id="Trazado_925074" data-name="Trazado 925074" d="M313.106,200.589c4.018,1.154,7.885,2.671,9.112,8.744s2.247,54.016,2.655,59.108a17.233,17.233,0,0,1-1.881,9.083" transform="translate(-161.884 -66.743)" fill="none" stroke="#ef7352" stroke-miterlimit="10" stroke-width="1"/>
              <g id="Grupo_1119482" data-name="Grupo 1119482" transform="translate(142.166 136.879)" opacity="0.51" style="mix-blend-mode: multiply;isolation: isolate">
                <g id="Grupo_1119481" data-name="Grupo 1119481">
                  <g id="Grupo_1119480" data-name="Grupo 1119480" clip-path="url(#clip-path-4)">
                    <path id="Trazado_925075" data-name="Trazado 925075" d="M325.82,262.378c-.074,1.946-.142,3.505-.169,4.532-.2,6.837-3.884,8.784-5.926,10.953s-12.766,3.4-15.574,3.871c-2.6.431-5.1-66.581-5.453-76.6a16.33,16.33,0,0,1,3.83.783c8.389,2.859,6.522,34.016,7.841,50.241,1.2,14.918,7.862,13.036,15.452,6.22" transform="translate(-298.698 -205.134)" fill="#ce1b92"/>
                  </g>
                </g>
              </g>
              <path id="Trazado_925076" data-name="Trazado 925076" d="M288.245,116.634c1.15,3.168,1.38,5.488-2.293,7.686s-9.884,1.256-9.884,1.256l-16.325-15.9c-4.35-3.958-4.945-7.764-4.222-10.817a13.99,13.99,0,0,1,4.175-6.715s2.144-6.012,10.175-5.035,9.688,2.923,11.968,5.976,4.229,1.71,6.637,5.365a9.536,9.536,0,0,1,.805,1.487c1.319,3.067.385,5.918-.805,9.5-1.373,4.151-1.373,4.029-.23,7.2" transform="translate(-140.396 -28.947)" fill="#301011"/>
              <g id="Grupo_1119485" data-name="Grupo 1119485" transform="translate(114.864 69.861)" opacity="0.29">
                <g id="Grupo_1119484" data-name="Grupo 1119484">
                  <g id="Grupo_1119483" data-name="Grupo 1119483" clip-path="url(#clip-path-5)">
                    <path id="Trazado_925077" data-name="Trazado 925077" d="M288.245,122.522c1.15,3.168,1.38,5.488-2.293,7.686s-9.884,1.256-9.884,1.256l-16.325-15.9c-4.35-3.958-4.945-7.764-4.222-10.817.724-.2,1.658.187,2.842,1.666,4.114,5.136,15.919,2.938,19.045,4.216s10.392,6.773,11.873-4.8c1.319,3.067.385,5.918-.805,9.5-1.373,4.151-1.373,4.029-.23,7.2" transform="translate(-255.26 -104.697)" fill="#190708"/>
                  </g>
                </g>
              </g>
              <path id="Trazado_925078" data-name="Trazado 925078" d="M234.637,305.906c-.354,4.54,3.361,37.165,11.971,50.429s18.067,28.143,18.067,28.143,17.729-2.689,19.079-5.019,0-8.246,0-8.246l-2.87-3.585s.169-4.3-.506-4.3a2.429,2.429,0,0,1-2.364-1.254c-.845-1.255-10.469-40.153-11.819-44.635s-7.092-19.718-9.455-19.359-22.1,7.828-22.1,7.828" transform="translate(-132.726 -99.179)" fill="#ad3f3a"/>
              <path id="Trazado_925079" data-name="Trazado 925079" d="M273.471,302.277c.539,13.81-3.133,28.415-9.063,37.873s-22.984,31.147-23.491,31.327-26.172-17.746-26.172-17.746l29.506-50.307Z" transform="translate(-125.345 -100.578)" fill="#c15348"/>
              <path id="Trazado_925080" data-name="Trazado 925080" d="M282.638,125.691a59.86,59.86,0,0,0-.562,6.325l-5.713-1.266-.576-3.432,4.05-1.627Z" transform="translate(-148.021 -41.821)" fill="#f7bfc5"/>
              <path id="Trazado_925081" data-name="Trazado 925081" d="M262.443,102.379c-1.869,7.469-2.493,13.265,4.737,15.577s10.91-2.736,11.757-5.674.942-12.841-.122-13.657-8.164-3.918-8.164-3.918Z" transform="translate(-142.607 -31.512)" fill="#f7bfc5"/>
              <path id="Trazado_925082" data-name="Trazado 925082" d="M282.835,105.991c1,2.133-.162,5.641.75,6.573s4.1-2.983,3.691-4.515-4.441-2.058-4.441-2.058" transform="translate(-150.639 -35.266)" fill="#301011"/>
              <path id="Trazado_925083" data-name="Trazado 925083" d="M262.343,98.04c-.387,3.464,3.837.244,6.126,2.318s4.013,2.684,6.082,1.586,1.38.488,4.253,2.562,5.4,2.44,5.632-1.1a10.186,10.186,0,0,0-4.253-9.029c-2.988-2.2-16.829-5.368-17.839,3.661" transform="translate(-143.018 -30.611)" fill="#301011"/>
              <path id="Trazado_925084" data-name="Trazado 925084" d="M264.709,127.935c.961-1.8,13.634-1.985,16.912,1.17s1.912,6.378,1.912,6.378l-18.823-5.636Z" transform="translate(-143.906 -42.138)" fill="#f9988f"/>
              <path id="Trazado_925085" data-name="Trazado 925085" d="M260.2,130.951c-4.945,12.573-6.083,32.442-4.459,37.469s15.957,9.3,17.181,9.763,5.113-1.913,5.113-1.913l1.912-39.684-17.2-6.627Z" transform="translate(-140.316 -43.242)" fill="#f9988f"/>
              <g id="Grupo_1119488" data-name="Grupo 1119488" transform="translate(120.265 113.78)" opacity="0.08" style="mix-blend-mode: multiply;isolation: isolate">
                <g id="Grupo_1119487" data-name="Grupo 1119487">
                  <g id="Grupo_1119486" data-name="Grupo 1119486" clip-path="url(#clip-path-6)">
                    <path id="Trazado_925086" data-name="Trazado 925086" d="M278.516,170.517c-3.846,6.043-14.715,2.514-14.665,4.171s0,10.29,0,10.29,12.613.5,13.856,0,5.506-1.925,5.506-1.925Z" transform="translate(-263.852 -170.517)" fill="#ce1b92"/>
                  </g>
                </g>
              </g>
              <path id="Trazado_925087" data-name="Trazado 925087" d="M282.185,136.5a45.231,45.231,0,0,0-10.08-3.122" transform="translate(-146.653 -44.378)" fill="none" stroke="#ffa9a8" stroke-linecap="round" stroke-miterlimit="10" stroke-width="1"/>
              <path id="Trazado_925088" data-name="Trazado 925088" d="M292.238,139.89c5.927,2.026,9.406,20.634,8.707,28.377a35.665,35.665,0,0,1-3.826,13.22l-6.792-1.914s-1.617-18.077-2.142-22.976,4.053-16.708,4.053-16.708" transform="translate(-152.611 -46.546)" fill="#f9988f"/>
              <path id="Trazado_925089" data-name="Trazado 925089" d="M278.939,267.166c-.7,1.494-37.67,2.8-41.715,4.3a12.257,12.257,0,0,1-6.867.747s-3.166-2.614-2.639-5.789a23.648,23.648,0,0,1,2.632-6.723l.007-.007s-4.046-15.694-4.222-30.08,4.431-27.473,13.22-30.647,19.044,3.362,19.044,3.362l16.379,32.636,1.346,2.679,1.218,21.066c1.42,4.353,2.3,6.967,1.6,8.461" transform="translate(-129.575 -65.911)" fill="#663f84"/>
              <g id="Grupo_1119491" data-name="Grupo 1119491" transform="translate(98.084 160.258)" opacity="0.29" style="mix-blend-mode: multiply;isolation: isolate">
                <g id="Grupo_1119490" data-name="Grupo 1119490">
                  <g id="Grupo_1119489" data-name="Grupo 1119489" clip-path="url(#clip-path-7)">
                    <path id="Trazado_925090" data-name="Trazado 925090" d="M279.842,281.168c-.7,1.494-37.67,2.8-41.715,4.3a12.256,12.256,0,0,1-6.867.747s-3.166-2.614-2.639-5.789a23.649,23.649,0,0,1,2.632-6.723l.007-.007s34.442-17.317,37.013-33.521l7.408,8.791,1.346,2.679,1.218,21.066c1.42,4.353,2.3,6.967,1.6,8.461" transform="translate(-228.562 -240.171)" fill="#7a308c"/>
                  </g>
                </g>
              </g>
              <path id="Trazado_925091" data-name="Trazado 925091" d="M272.69,278.807a3.245,3.245,0,0,1-1.163.711c-1.7.661-4.858.97-8.268,1.063-6.447.18-13.795-.446-13.869-1.063-.108-.948,1.569-1.307,1.569-1.307s-3.133.122-3.241-1.07,2.009-1.537,2.009-1.537-3.579-.474-3.735-1.9c-.149-1.351,2.936-.956,3.261-.912-.257-.065-2.2-.6-1.989-1.932.223-1.429,7.828-1.666,7.828-1.666l-1.448-1.314c-1.441-1.315.109-2.837.886-1.889s3.356,1.07,4.587,1.307,2.571,3.326,3.464,4.748c.439.7,1.359.826,2.5.719,1.184-.108,2.612-.474,3.978-.719,0,0,3.518,2.658,4.073,4.927a1.807,1.807,0,0,1-.446,1.839" transform="translate(-136.952 -88.405)" fill="#f7bfc5"/>
              <g id="Grupo_1119494" data-name="Grupo 1119494" transform="translate(126.308 183.637)" opacity="0.24" style="mix-blend-mode: multiply;isolation: isolate">
                <g id="Grupo_1119493" data-name="Grupo 1119493">
                  <g id="Grupo_1119492" data-name="Grupo 1119492" clip-path="url(#clip-path-8)">
                    <path id="Trazado_925092" data-name="Trazado 925092" d="M283.345,280.135l-.446,1.839a3.237,3.237,0,0,1-1.164.711c-1.7.661-4.857.97-8.267,1.063.764-1.386,2.415-5.006,1.826-7.822,1.184-.107,2.612-.474,3.978-.718,0,0,3.518,2.658,4.073,4.927" transform="translate(-273.467 -275.208)" fill="#ce1b92"/>
                  </g>
                </g>
              </g>
              <path id="Trazado_925093" data-name="Trazado 925093" d="M265.624,192.189c1.957,3.559,16.093,4.147,20.389,9.591s10.968,22.624,13.022,31.894,1.437,17.887,0,19.709-14.209,4.249-14.209,4.249-1,2.024-1.837,2.429-7.695-.607-9.029-2.024-2.377-10.118-1.665-11.535,8.718-5.262,8.718-5.262-.191-2.226.381-3.035a2.827,2.827,0,0,1,1.6-1.012s-6.17-20.035-6.551-22.058S260.28,203.4,257.971,201.98s7.654-9.791,7.654-9.791" transform="translate(-141.274 -63.948)" fill="#663f84"/>
              <path id="Trazado_925094" data-name="Trazado 925094" d="M260.321,170.643l.984,14.378s-2.6,13.448-8.929,13.256-6.848-7.068-6.135-15.254,14.079-12.38,14.079-12.38" transform="translate(-136.955 -56.779)" fill="#f7bfc5"/>
              <g id="Grupo_1119497" data-name="Grupo 1119497" transform="translate(107.603 113.864)" opacity="0.24" style="mix-blend-mode: multiply;isolation: isolate">
                <g id="Grupo_1119496" data-name="Grupo 1119496">
                  <g id="Grupo_1119495" data-name="Grupo 1119495" clip-path="url(#clip-path-9)">
                    <path id="Trazado_925095" data-name="Trazado 925095" d="M259.861,176.347c-3.156,9.253-11.476,14.033-14.47,11.909s-1.083-5.7-1.083-5.7l4.593-5.272,10.57-6.637Z" transform="translate(-243.707 -170.643)" fill="#ce1b92"/>
                  </g>
                </g>
              </g>
              <path id="Trazado_925096" data-name="Trazado 925096" d="M273.92,149.242c1.53,5.493-.958,10.457-4.294,15.76s-6.385-19.334-6.385-19.334l8.735-.36Z" transform="translate(-143.361 -48.349)" fill="#301011"/>
              <path id="Trazado_925097" data-name="Trazado 925097" d="M231.992,143.452c-.362,9.022-.61,21.164,10.475,21.258s13.793-7.543,15.653-17.006c2.248-11.446-7.374-14.851-7.374-14.851-13.631-4.682-18.442,3.618-18.363,9.978Z" transform="translate(-131.708 -43.748)" fill="#f7bfc5"/>
              <path id="Trazado_925098" data-name="Trazado 925098" d="M269.059,159.513c1.265-3.451,4.391-5.507,5.614-2.526s-2.782,11.942-5.886,8.634Z" transform="translate(-145.421 -51.757)" fill="#f7bfc5"/>
              <path id="Trazado_925099" data-name="Trazado 925099" d="M270.353,161.694c.767-3.113,2.511-3.626,3.162-2.827" transform="translate(-146.002 -52.749)" fill="none" stroke="#ed98a5" stroke-linecap="round" stroke-miterlimit="10" stroke-width="1"/>
              <path id="Trazado_925100" data-name="Trazado 925100" d="M272.551,158.564c1.486,1.074,2.136,3.805.192,5.255s-1.591-.872-1.591-.872" transform="translate(-146.29 -52.759)" fill="none" stroke="#ed98a5" stroke-linecap="round" stroke-miterlimit="10" stroke-width="1"/>
              <path id="Trazado_925101" data-name="Trazado 925101" d="M245.072,156.4c.033.9.429,1.61.885,1.591s.8-.761.766-1.659-.429-1.61-.885-1.591-.8.762-.766,1.66" transform="translate(-136.61 -51.487)" fill="#301011"/>
              <path id="Trazado_925102" data-name="Trazado 925102" d="M236.172,156.751c.033.9.307,1.615.612,1.6s.527-.75.493-1.647-.307-1.615-.612-1.6-.526.751-.493,1.648" transform="translate(-133.304 -51.608)" fill="#301011"/>
              <path id="Trazado_925103" data-name="Trazado 925103" d="M239.7,161.147c-.642.794-.937,2.618.092,2.52" transform="translate(-134.4 -53.619)" fill="none" stroke="#ed98a5" stroke-linecap="round" stroke-miterlimit="10" stroke-width="1"/>
              <path id="Trazado_925104" data-name="Trazado 925104" d="M244.663,169.749a3.574,3.574,0,0,1,3.733.394" transform="translate(-136.459 -56.363)" fill="none" stroke="#ed98a5" stroke-linecap="round" stroke-miterlimit="10" stroke-width="1"/>
              <path id="Trazado_925105" data-name="Trazado 925105" d="M261.764,148.129c.106,2.881,1.781,8.486,3.234,8.149s2.662-4.047,4.226-4.138,2.493-.875,2.4-1.511-.2-5.485-.2-5.485l-4.29-.329Z" transform="translate(-142.812 -48.185)" fill="#301011"/>
              <path id="Trazado_925106" data-name="Trazado 925106" d="M234.633,172.722c-.328,4.577.095,5.9,2.155,7.894a8.835,8.835,0,0,0,6.445,2.883c2.167-.089,4.826-.554,6.6-2.4a14.255,14.255,0,0,0,3.532-5.118c.813-2.068,1.76-4.1,1.76-4.1S247.9,177.462,243,177.117s-8.366-4.395-8.366-4.395" transform="translate(-132.696 -57.189)" fill="#301011"/>
              <path id="Trazado_925107" data-name="Trazado 925107" d="M247.167,150.418c.042,1.17.9,2.351,1.591,1.671s-1.628-2.646-1.591-1.671" transform="translate(-137.389 -49.96)" fill="#301011"/>
              <path id="Trazado_925108" data-name="Trazado 925108" d="M236.343,148.7c.043,1.17-.722,2.418-1.464,1.8s1.429-2.772,1.464-1.8" transform="translate(-132.767 -49.393)" fill="#301011"/>
              <path id="Trazado_925109" data-name="Trazado 925109" d="M238.464,214.252s-.487,4.5-1.847,5.25a12.482,12.482,0,0,1-2.693.7,47.16,47.16,0,0,1-5.764.7c-1.935.108-3.565.022-4.045-.424-1.306-1.206-.657-1.034-.494-2.765a17.511,17.511,0,0,0-.48-6.062c-.555-1.8-3.106-7.793-3.762-13.51s.981-10.73,3.268-12.986,9.546-5.315,13.538,1.042c2.943,4.676.432,24.24.432,24.24Z" transform="translate(-127.013 -60.695)" fill="#f78d69"/>
              <path id="Trazado_925110" data-name="Trazado 925110" d="M206.533,199.931c3.666-3.165,6.158-6.777,5.116-9.33s-1.691-4.712-.7-7.389,2.211-4.886,4.174-4.586,8.218.727,9.213,1.4-1.2,1.413-1.2,1.413,2.2-.162,2.094.984-2.415,1.385-2.415,1.385,2.112-.084,2.532.852-2.634.972-2.634.972,2.674.141,1.772,1.2-3.407,1.343-3.407,1.343a7.385,7.385,0,0,1-1.1,7c-2.61,3.346-7.122,12.768-7.122,12.768Z" transform="translate(-122.295 -59.426)" fill="#f7bfc5"/>
              <path id="Trazado_925111" data-name="Trazado 925111" d="M243.242,224.424a37.219,37.219,0,0,0-6.171,1.482" transform="translate(-133.639 -74.674)" fill="none" stroke="#f97a53" stroke-miterlimit="10" stroke-width="1"/>
              <path id="Trazado_925112" data-name="Trazado 925112" d="M209.45,237.413c-2.146,4.828-7.266,9.625-12.236,10.9s-10.542,1.186-12.349-.766-5.271-9.466-4.066-13.783,13.1-18.386,13.1-19.985.24-5.756,1.1-6.875c0,0,6.219-2.744,7.937-2.239,4.421,1.3,10.738,4.637,11.543,7.2s-5.283,14.744-5.283,14.744Z" transform="translate(-112.642 -68.08)" fill="#663f84"/>
              <path id="Trazado_925113" data-name="Trazado 925113" d="M236.1,246.147c-.994,2.772-3.051,2.018-6.183,4.547s-7.422-.553-5.872-3.247c1.366-2.377,5.107-4.367,5.784-7.692a47.3,47.3,0,0,0,5.764-.7c.338,2.629,1.332,4.776.507,7.1" transform="translate(-128.676 -79.54)" fill="#c15348"/>
              <path id="Trazado_925114" data-name="Trazado 925114" d="M291.2,343.744c-.2,1.932-6.264,7.089-10.513,9.021s-27.292,3.217-29.112,1.716-5.71-29.577-4.046-39.072l26.534-5.286,3.39-.675c5.053,4.561,13.95,32.364,13.747,34.3" transform="translate(-137.375 -102.964)" fill="#ffead9"/>
              <path id="Trazado_925115" data-name="Trazado 925115" d="M247.773,315.373c6.875,2.361,24.918-2.576,26.106-2.79s3.818-2.478,3.818-3.171-23.454,3.214-25.88,3.3-4.044,2.662-4.044,2.662" transform="translate(-137.614 -102.925)" fill="#f9dac2"/>
              <path id="Trazado_925116" data-name="Trazado 925116" d="M306.871,343.744c-.2,1.932-6.264,7.089-10.513,9.021a12.99,12.99,0,0,0-1.2-3.864s-6.075-21.942-5.852-36.278a6.477,6.477,0,0,1,.426-2.5l3.39-.675c5.053,4.561,13.95,32.364,13.747,34.3" transform="translate(-153.042 -102.964)" fill="#f9dac2"/>
              <path id="Trazado_925117" data-name="Trazado 925117" d="M274.184,276.237c2.6-.145,6.064,20.125,6.245,26.458" transform="translate(-147.426 -91.913)" fill="none" stroke="#fcf1f0" stroke-miterlimit="10" stroke-width="1"/>
              <path id="Trazado_925118" data-name="Trazado 925118" d="M257.224,288.055c-2.624,7.756-1.3,21.222-1.11,22.829" transform="translate(-140.526 -95.846)" fill="none" stroke="#fcf1f0" stroke-miterlimit="10" stroke-width="1"/>
              <path id="Trazado_925119" data-name="Trazado 925119" d="M203.261,256.337c5.887-3.654,14.372-18.759,14.372-18.759" transform="translate(-121.079 -79.05)" fill="none" stroke="#714c91" stroke-miterlimit="10" stroke-width="1"/>
              <path id="Trazado_925120" data-name="Trazado 925120" d="M271.552,236.011c.019,3.41-1.6,5.937-.613,8.716s3.05,2.021,6.184,4.547,7.417-.55,5.87-3.244-6.149-4.9-5.87-9.1-5.571-.919-5.571-.919" transform="translate(-146.101 -78.123)" fill="#c15348"/>
              <path id="Trazado_925121" data-name="Trazado 925121" d="M266.989,186.207c4-6.354,11.257-3.29,13.541-1.039s3.914,7.273,3.262,12.986-3.2,11.708-3.759,13.509a17.413,17.413,0,0,0-.481,6.056c.163,1.732.815,1.558-.49,2.77s-11.146-.24-12.5-.986-1.848-5.248-1.848-5.248l1.848-3.809s-2.508-19.566.431-24.241" transform="translate(-143.906 -60.697)" fill="#f78d69"/>
              <path id="Trazado_925122" data-name="Trazado 925122" d="M267.65,224.424a37.218,37.218,0,0,1,6.171,1.482" transform="translate(-144.998 -74.674)" fill="none" stroke="#f97a53" stroke-miterlimit="10" stroke-width="1"/>
              <path id="Trazado_925123" data-name="Trazado 925123" d="M294.637,200.342c2.581-1.054,5.307-.454,6.153,2.04s1.786,5.017,0,5.1-1.6-2.109-1.6-2.109.7,3.1-.564,3.093-1.64-3.593-1.64-3.593.342,3.647-1.18,3.119-1.171-7.653-1.171-7.653" transform="translate(-155.011 -66.495)" fill="#f7bfc5"/>
              <path id="Trazado_925124" data-name="Trazado 925124" d="M288.394,229.586c3,10.126,6.026,20.049,6.026,20.049l4.278,4.042" transform="translate(-152.704 -76.391)" fill="none" stroke="#714c91" stroke-miterlimit="10" stroke-width="1"/>
              <path id="Trazado_925125" data-name="Trazado 925125" d="M296.8,259.634a3.732,3.732,0,0,0-1.976,4.048l2.382,5.213" transform="translate(-155.08 -86.389)" fill="none" stroke="#714c91" stroke-miterlimit="10" stroke-width="1"/>
              <line id="Línea_3387" data-name="Línea 3387" y1="3.713" transform="translate(143.552 189.971)" fill="none" stroke="#714c91" stroke-miterlimit="10" stroke-width="1"/>
              <path id="Trazado_925126" data-name="Trazado 925126" d="M289.685,265.7s-8.5,3.922-8.718,5.261" transform="translate(-149.945 -88.407)" fill="none" stroke="#714c91" stroke-miterlimit="10" stroke-width="1"/>
              <path id="Trazado_925127" data-name="Trazado 925127" d="M290.589,145.308c-4.322,1.477-3.677,19.287-2.644,22.214" transform="translate(-152.255 -48.349)" fill="none" stroke="#ffa9a8" stroke-linecap="round" stroke-miterlimit="10" stroke-width="1"/>
              <path id="Trazado_925128" data-name="Trazado 925128" d="M286.041,115.059c.885-2.413,3.071-3.851,3.926-1.766s-1.946,8.352-4.117,6.038Z" transform="translate(-151.76 -37.362)" fill="#f7bfc5"/>
              <path id="Trazado_925129" data-name="Trazado 925129" d="M286.946,116.584c.537-2.177,1.756-2.536,2.211-1.977" transform="translate(-152.166 -38.056)" fill="none" stroke="#ed98a5" stroke-linecap="round" stroke-miterlimit="10" stroke-width="0.5"/>
              <path id="Trazado_925130" data-name="Trazado 925130" d="M288.483,114.395a2.323,2.323,0,0,1,.135,3.675c-1.36,1.014-1.113-.61-1.113-.61" transform="translate(-152.368 -38.063)" fill="none" stroke="#ed98a5" stroke-linecap="round" stroke-miterlimit="10" stroke-width="0.5"/>
              <path id="Trazado_925131" data-name="Trazado 925131" d="M273.9,113.065c.03.607.349,1.091.713,1.082s.634-.509.6-1.116-.349-1.091-.713-1.081-.634.509-.6,1.116" transform="translate(-147.32 -37.249)" fill="#301011"/>
              <path id="Trazado_925132" data-name="Trazado 925132" d="M265.977,113.238c.033.607.325,1.09.653,1.08s.566-.509.534-1.116-.325-1.09-.653-1.08-.566.51-.534,1.116" transform="translate(-144.376 -37.306)" fill="#301011"/>
              <path id="Trazado_925133" data-name="Trazado 925133" d="M272.1,121.242a3.843,3.843,0,0,1,2.965.219" transform="translate(-146.653 -40.276)" fill="none" stroke="#ed98a5" stroke-linecap="round" stroke-miterlimit="10" stroke-width="0.5"/>
              <path id="Trazado_925134" data-name="Trazado 925134" d="M275.34,108.971c.034.649.713,1.305,1.264.927s-1.292-1.469-1.264-.927" transform="translate(-147.855 -36.209)" fill="#301011"/>
              <path id="Trazado_925135" data-name="Trazado 925135" d="M267.185,108.931c.034.649-.574,1.343-1.163,1s1.134-1.539,1.163-1" transform="translate(-144.348 -36.198)" fill="#301011"/>
              <g id="Grupo_1119500" data-name="Grupo 1119500" transform="translate(129.478 78.337)" opacity="0.24" style="mix-blend-mode: multiply;isolation: isolate">
                <g id="Grupo_1119499" data-name="Grupo 1119499">
                  <g id="Grupo_1119498" data-name="Grupo 1119498" clip-path="url(#clip-path-10)">
                    <path id="Trazado_925136" data-name="Trazado 925136" d="M281.937,118.615c0,.672-.767,1.216-1.713,1.216s-1.713-.545-1.713-1.216.767-1.216,1.713-1.216,1.713.544,1.713,1.216" transform="translate(-278.511 -117.399)" fill="#ce1b92"/>
                  </g>
                </g>
              </g>
              <g id="Grupo_1119503" data-name="Grupo 1119503" transform="translate(120.265 78.337)" opacity="0.24" style="mix-blend-mode: multiply;isolation: isolate">
                <g id="Grupo_1119502" data-name="Grupo 1119502">
                  <g id="Grupo_1119501" data-name="Grupo 1119501" clip-path="url(#clip-path-11)">
                    <path id="Trazado_925137" data-name="Trazado 925137" d="M266.426,118.615a1.289,1.289,0,1,1-1.287-1.216,1.253,1.253,0,0,1,1.287,1.216" transform="translate(-263.852 -117.399)" fill="#ce1b92"/>
                  </g>
                </g>
              </g>
              <path id="Trazado_925138" data-name="Trazado 925138" d="M270.548,117.23c-.8-.886-1.414.153-1.2.961s1.713.256,1.713.256" transform="translate(-145.614 -38.893)" fill="none" stroke="#ed98a5" stroke-linecap="round" stroke-miterlimit="10" stroke-width="0.5"/>
              <path id="Trazado_925139" data-name="Trazado 925139" d="M269.6,312.406v.18c-1.569.345-3.383.719-5.277,1.049-4.634.826-9.816,1.436-13.436.926a8.765,8.765,0,0,1-.054-2.4,4.987,4.987,0,0,1,1.008-2.607c1.556-1.875,6.4-3.742,9.973-4.008,2.057-.157,3.924,1.58,5.371,3.412.115.144.23.295.338.446.914,1.206,1.631,2.377,2.077,3" transform="translate(-138.728 -101.663)" fill="#ce1b92"/>
              <path id="Trazado_925140" data-name="Trazado 925140" d="M283.955,308.686l-.859,3.031a.581.581,0,0,1-.095.029c-.378.072-2.49.618-5.4,1.264-1.57.345-3.383.718-5.277,1.048a13.3,13.3,0,0,1,2.368-4.108c.162-.194.332-.388.494-.567a9.13,9.13,0,0,1,3.342-2.485c1.827-.553,5.426,1.788,5.426,1.788" transform="translate(-146.735 -102.087)" fill="#f78d69"/>
              <line id="Línea_3388" data-name="Línea 3388" x1="1.804" transform="translate(99.25 121.848)" fill="none" stroke="#ed98a5" stroke-linecap="round" stroke-miterlimit="10" stroke-width="1"/>
              <line id="Línea_3389" data-name="Línea 3389" x1="1.804" transform="translate(99.25 124.399)" fill="none" stroke="#ed98a5" stroke-linecap="round" stroke-miterlimit="10" stroke-width="1"/>
              <line id="Línea_3390" data-name="Línea 3390" x1="2.175" transform="translate(98.879 126.285)" fill="none" stroke="#ed98a5" stroke-linecap="round" stroke-miterlimit="10" stroke-width="1"/>
              <line id="Línea_3391" data-name="Línea 3391" x2="2.322" transform="translate(112.092 184.323)" fill="none" stroke="#ed98a5" stroke-linecap="round" stroke-miterlimit="10" stroke-width="1"/>
              <line id="Línea_3392" data-name="Línea 3392" x2="2.309" transform="translate(112.777 187.199)" fill="none" stroke="#ed98a5" stroke-linecap="round" stroke-miterlimit="10" stroke-width="1"/>
              <line id="Línea_3393" data-name="Línea 3393" x2="1.883" transform="translate(114.008 189.806)" fill="none" stroke="#ed98a5" stroke-linecap="round" stroke-miterlimit="10" stroke-width="1"/>
              <line id="Línea_3394" data-name="Línea 3394" x2="1.878" y2="1.284" transform="translate(118.142 180.785)" fill="none" stroke="#ed98a5" stroke-linecap="round" stroke-miterlimit="10" stroke-width="1"/>
              <path id="Trazado_925141" data-name="Trazado 925141" d="M398.225,420.982c.686,7.192-16.477,23.851-16.477,23.851l-14.712-3.9,12.01-19.947Z" transform="translate(-181.918 -140.076)" fill="#663f84"/>
              <path id="Trazado_925142" data-name="Trazado 925142" d="M366.91,419.737c-1.471,9.144,5.149,27.627,5.149,27.627s23.294,6.247,24.029,5.987S410.8,440.856,410.8,440.856l-30.895-31.829Z" transform="translate(-181.792 -136.098)" fill="#4a2a66"/>
              <path id="Trazado_925143" data-name="Trazado 925143" d="M417.746,369.189c-1.9,8.945-3.16,13.471-7.584,13.972-3.019.352-8.526-4.611-11.716-7.795-1.485-1.491-2.468-2.588-2.468-2.588L381.8,345.728c9.259-8.488,23.3-5.059,28.358-.074a28.8,28.8,0,0,1,7.1,12.513,23.38,23.38,0,0,1,.481,11.023" transform="translate(-187.405 -113.317)" fill="#f9988f"/>
              <g id="Grupo_1119506" data-name="Grupo 1119506" transform="translate(205.84 240.869)" opacity="0.16" style="mix-blend-mode: multiply;isolation: isolate">
                <g id="Grupo_1119505" data-name="Grupo 1119505">
                  <g id="Grupo_1119504" data-name="Grupo 1119504" clip-path="url(#clip-path-12)">
                    <path id="Trazado_925144" data-name="Trazado 925144" d="M424.508,375.983c-1.9,8.945-3.16,13.471-7.584,13.972-3.019.352-8.527-4.611-11.716-7.795-1.084-2.151-2.026-4.015-2.628-5.2-2.448-4.75-4.474-17.486.431-15.835,4.383,1.48,13.592,12.3,21.015,3.833a23.38,23.38,0,0,1,.481,11.023" transform="translate(-400.007 -360.98)" fill="#ce1b92"/>
                  </g>
                </g>
              </g>
              <path id="Trazado_925145" data-name="Trazado 925145" d="M389.5,398.609c-4.344,2.524-28.017,3.173-29.281,3.173s-1.735-.511-3.04-2.854,1.615-3.184,1.515-6.539a11,11,0,0,0-.291-2.087c-.722-3.163-2.678-7.561-4.955-15.676,0,0-5.386-13.748-5.366-15.889s3.761-2.726,4.935-3.109,13.753-5.889,17.3-5.453c3.2.394,13.963,21.831,16.521,27.3.28.6.471,1.012.531,1.171.632,1.683,6.791,12.577,6.952,13.078s-.481,4.356-4.825,6.89" transform="translate(-174.877 -116.507)" fill="#c15348"/>
              <path id="Trazado_925146" data-name="Trazado 925146" d="M394.681,412.12c-4.344,2.524-28.017,3.174-29.281,3.174s-1.735-.511-3.04-2.854,1.615-3.184,1.515-6.539a10.994,10.994,0,0,0-.291-2.087c6.049-2.662,22.811-5.963,23.433-12.449v-.607l5.006.224c.28.6.471,1.012.531,1.171.632,1.683,6.791,12.577,6.952,13.078s-.481,4.356-4.825,6.89" transform="translate(-180.058 -130.019)" fill="#ad3f3a"/>
              <path id="Trazado_925147" data-name="Trazado 925147" d="M409.679,408.241c0,.255-.006.514-.019.777-.255,4.879-2.856,11.057-2.2,12.791a23.623,23.623,0,0,1,1.058,5.849c.146,1.646-3.3,3.107-4.5,3.29s-4.046.731-4-.913-.646.183-1.679-.914,0-4.387,0-4.387,2.067-.366,3.1-3.473,2.345-14.441,2.345-14.441" transform="translate(-193.374 -135.363)" fill="#f7bfc5"/>
              <path id="Trazado_925148" data-name="Trazado 925148" d="M378.929,348.439c8.061-.975,10.816,1.036,14.088,5.24s9.3,16.086,11.02,19.925a20.609,20.609,0,0,1,1.894,8.591c0,1.645,1.378,2.56,1.033,3.474s-.517,3.29-3.444,3.107-7.921.01-7.921.01.689-5.86-.516-8.236a101.055,101.055,0,0,0-5.855-10.054c-1.722-2.377-10.3-22.058-10.3-22.058" transform="translate(-186.336 -115.857)" fill="#c15348"/>
              <path id="Trazado_925149" data-name="Trazado 925149" d="M363.654,355.22c4.669,7.155,12.152,6,10.068-3.731s-10.068,3.731-10.068,3.731" transform="translate(-180.662 -115.777)" fill="#f7bfc5"/>
              <g id="Grupo_1119509" data-name="Grupo 1119509" transform="translate(182.992 232.179)" opacity="0.16" style="mix-blend-mode: multiply;isolation: isolate">
                <g id="Grupo_1119508" data-name="Grupo 1119508">
                  <g id="Grupo_1119507" data-name="Grupo 1119507" clip-path="url(#clip-path-13)">
                    <path id="Trazado_925150" data-name="Trazado 925150" d="M363.654,355.22c4.669,7.155,12.152,6,10.068-3.731s-10.068,3.731-10.068,3.731" transform="translate(-363.654 -347.957)" fill="#ce1b92"/>
                  </g>
                </g>
              </g>
              <path id="Trazado_925151" data-name="Trazado 925151" d="M350,343.245a7.2,7.2,0,0,1-6.136-6.74c.136-1.871-.784-4.605,1.438-8.347s3.713-8.347,9.543-8.347,8.611-1.325,11.558,1.065,3.9,3.972,3.489,6.995,1.263,3.022.09,5.181-.341,5.8-2.3,6.918c-.85.484-3.716,1.343-4.408,1.965-.906.814,1.064-1.543,1.064-1.543Z" transform="translate(-173.283 -106.29)" fill="#301011"/>
              <path id="Trazado_925152" data-name="Trazado 925152" d="M350.815,344.663c2.982,5.756,4.473,7.627,7.32,8.347a7.754,7.754,0,0,0,8.811-4.174c1.9-3.886,2.711-7.627,1.491-9.93s-11.794-5.325-11.794-5.325l-5.829,3.6Z" transform="translate(-175.893 -110.994)" fill="#f7bfc5"/>
              <path id="Trazado_925153" data-name="Trazado 925153" d="M346.525,340.277c2.347,5.232,5.965,5.181,8,4.893s2.034-2.819,3.118-2.417,2.169.474,4.2-.713,2.576-.612,3.389-1.763,1.762.144,1.492-2.734a7.1,7.1,0,0,0-4.474-6.332,50.989,50.989,0,0,0-8.134-1.727,18.466,18.466,0,0,0-4.473,2.734c-1.22,1.3-4.474,5.037-3.118,8.059" transform="translate(-174.178 -109.631)" fill="#301011"/>
              <path id="Trazado_925154" data-name="Trazado 925154" d="M343.791,361.7a10.806,10.806,0,0,1,3.439-8.073l4.288,2.587-1.58,9.342Z" transform="translate(-173.283 -117.663)" fill="#f7bfc5"/>
              <path id="Trazado_925155" data-name="Trazado 925155" d="M342.907,361.2c-1.432,7.208-1.906,16.595-1.116,21.792s0,7.208,3.474,7.711,6.948.5,7.105-4.862-1.579-17.265-1.579-17.265a12.146,12.146,0,0,0,1.589-2.682c-.01-.5-9.473-4.694-9.473-4.694" transform="translate(-172.399 -120.184)" fill="#c15348"/>
              <path id="Trazado_925156" data-name="Trazado 925156" d="M355.241,383.591c.473-6.535-1.519-14.232-1.519-14.232l1.589-2.682-6.011-3.125" transform="translate(-175.33 -120.966)" fill="none" stroke="#d35f59" stroke-linecap="round" stroke-miterlimit="10" stroke-width="0.75"/>
              <line id="Línea_3395" data-name="Línea 3395" x1="5.002" transform="translate(214.463 266.97)" fill="none" stroke="#d35f59" stroke-linecap="round" stroke-miterlimit="10" stroke-width="0.75"/>
              <path id="Trazado_925157" data-name="Trazado 925157" d="M390.364,372.5c1.892,6.173,5.992,10.669,7.878,14.071a11.855,11.855,0,0,1,1.78,5.681l-.175,4.624" transform="translate(-190.584 -123.943)" fill="none" stroke="#d35f59" stroke-linecap="round" stroke-miterlimit="10" stroke-width="0.75"/>
              <path id="Trazado_925158" data-name="Trazado 925158" d="M453.146,415.444c.564,3.749,1.774,5.119,3.145,5.289s1.29.856,1.29.856a6.8,6.8,0,0,1-.887,2.622,8.131,8.131,0,0,0-1.935,4.4c-.161,2.055-.161,3.917-.161,5.255s-.08,3.563-.08,3.563h3.71s8.547.685,9.6,0a16.183,16.183,0,0,0,2.742-2.311c.242-.342.08-3.6-1.371-6.42s-1.613-4.88-2.9-6.164-4.838-.942-4.838-.942a1.623,1.623,0,0,1-1.528-1.934c.271-1.8,2.735-2.3,1.977-4.463s-.554-4.06-2.452-4.333-4.339-.418-5.221.95a5.216,5.216,0,0,0-1.082,3.311" transform="translate(-213.901 -136.647)" fill="#703232"/>
              <path id="Trazado_925159" data-name="Trazado 925159" d="M512.549,428.378c-.165,1.695.209,2.438.785,2.681s.466.53.466.53a2.938,2.938,0,0,1-.672,1.027,3.512,3.512,0,0,0-1.32,1.668c-.295.871-.5,1.679-.645,2.259s-.425,1.535-.425,1.535l1.608.457s3.631,1.35,4.16,1.183a6.941,6.941,0,0,0,1.442-.664,5.246,5.246,0,0,0,.108-2.953c-.321-1.4-.165-2.315-.584-3.03s-1.995-1-1.995-1a.754.754,0,0,1-.451-1.027c.314-.747,1.438-.662,1.346-1.692s.2-1.828-.589-2.181-1.836-.716-2.368-.232a2.267,2.267,0,0,0-.832,1.3" transform="translate(-235.301 -141.979)" fill="#703232"/>
              <path id="Trazado_925160" data-name="Trazado 925160" d="M537.575,445.81c-.138,1.412.174,2.031.654,2.234s.388.442.388.442a2.455,2.455,0,0,1-.559.856,2.914,2.914,0,0,0-1.1,1.389c-.246.726-.415,1.4-.537,1.882s-.354,1.278-.354,1.278l1.34.381s3.025,1.126,3.466.986a5.774,5.774,0,0,0,1.2-.553c.586-.488.2-3.488.039-4.121a2.409,2.409,0,0,0-1.3-1.684l1.265-.206c.133-.276-.1-.577-.26-.841a6.077,6.077,0,0,1-.444-1.551c-.277-1.034-2.052-2.629-3.078-1.694a1.892,1.892,0,0,0-.692,1.085" transform="translate(-244.71 -147.843)" fill="#703232"/>
              <path id="Trazado_925161" data-name="Trazado 925161" d="M490.062,423.349a4.766,4.766,0,0,0,.842,2.748c.52.557,1.686.791.862,1.895a2.462,2.462,0,0,1-.6.478,4.09,4.09,0,0,0-1.419,3.358c-.009,1.333-.185,2.7-.1,4.052.018.274.077.6.316.7a.847.847,0,0,0,.362.035c.765-.013,1.48.45,2.244.46a3.865,3.865,0,0,0,.912-.135c1.536-.355,2.7-.2,3.933-1.469a2.454,2.454,0,0,0,.626-.977,3.359,3.359,0,0,0-.039-1.559l-.718-3.9a1.266,1.266,0,0,0-.308-.735,1.388,1.388,0,0,0-.649-.24,9.338,9.338,0,0,1-1.737-.77c-.5-.233-.85-.551-.712-1.19.226-1.045,1.691-1.237,1.327-2.536s-.173-2.406-1.278-2.646-2.531-.428-3.1.338a3.05,3.05,0,0,0-.759,1.9" transform="translate(-227.458 -139.986)" fill="#703232"/>
              <path id="Trazado_925162" data-name="Trazado 925162" d="M491.545,421.117c.922-1.154,2.161-.884,3.342-.549s2.066.711,2.183,1.714a8.785,8.785,0,0,0,.532,2.282c.236.6-.177.789-.827.914s.708.438-.236.877-1.15,1.254-1.933.627-1.609-.752-1.9-1.629a7.046,7.046,0,0,1-.236-2.131Z" transform="translate(-228.171 -139.842)" fill="#703232"/>
              <path id="Trazado_925163" data-name="Trazado 925163" d="M530.524,446.644a2.018,2.018,0,0,0,.356,1.164c.221.236.715.336.365.8a1.037,1.037,0,0,1-.253.2,1.732,1.732,0,0,0-.6,1.423c0,.564-.079,1.146-.041,1.717.007.116.033.254.134.3a.36.36,0,0,0,.153.014c.324-.005.627.191.951.2a1.621,1.621,0,0,0,.386-.057c.651-.15,1.145-.083,1.667-.622a1.051,1.051,0,0,0,.265-.414,1.425,1.425,0,0,0-.017-.661q-.152-.827-.3-1.652a.533.533,0,0,0-.13-.312.586.586,0,0,0-.275-.1,3.951,3.951,0,0,1-.736-.326c-.21-.1-.36-.234-.3-.5.1-.442.717-.524.563-1.074s-.074-1.019-.541-1.121-1.073-.182-1.314.143a1.293,1.293,0,0,0-.321.8" transform="translate(-242.583 -148.243)" fill="#703232"/>
              <path id="Trazado_925164" data-name="Trazado 925164" d="M531.152,445.7c.391-.488.916-.374,1.416-.232s.875.3.925.726a3.75,3.75,0,0,0,.225.967c.1.254-.075.334-.35.387s.3.185-.1.372-.487.531-.819.266-.682-.319-.806-.691a2.981,2.981,0,0,1-.1-.9Z" transform="translate(-242.884 -148.182)" fill="#703232"/>
              <path id="Trazado_925165" data-name="Trazado 925165" d="M563.758,459.579a2.019,2.019,0,0,0,.356,1.164c.221.236.715.336.365.8a1.028,1.028,0,0,1-.253.2,1.732,1.732,0,0,0-.6,1.423c0,.564-.079,1.146-.042,1.717.008.116.033.254.134.3a.36.36,0,0,0,.153.014c.324-.005.627.191.951.2a1.618,1.618,0,0,0,.386-.057c.651-.15,1.146-.083,1.667-.622a1.044,1.044,0,0,0,.265-.414,1.415,1.415,0,0,0-.017-.661q-.152-.827-.3-1.652a.533.533,0,0,0-.13-.312.586.586,0,0,0-.275-.1,3.926,3.926,0,0,1-.735-.326c-.211-.1-.36-.234-.3-.5.1-.442.716-.524.563-1.074s-.073-1.019-.541-1.121-1.073-.181-1.314.143a1.293,1.293,0,0,0-.321.8" transform="translate(-254.929 -152.547)" fill="#703232"/>
              <path id="Trazado_925166" data-name="Trazado 925166" d="M564.386,458.633c.391-.489.916-.374,1.416-.232s.875.3.925.726a3.749,3.749,0,0,0,.225.967c.1.254-.075.334-.35.387s.3.185-.1.372-.487.531-.819.266-.681-.319-.806-.691a2.986,2.986,0,0,1-.1-.9Z" transform="translate(-255.23 -152.485)" fill="#703232"/>
              <path id="Trazado_925167" data-name="Trazado 925167" d="M520.524,435.782c.505.892,2.187,2.463,2.459,3.794a16.038,16.038,0,0,1,.382,2.777c.055.926-.054,1.794-.926,1.678s-.981-.24-1.2-1.277a13.467,13.467,0,0,0-1.145-2.542,10.177,10.177,0,0,1-.382-2.534Z" transform="translate(-238.635 -145)" fill="#703232"/>
              <path id="Trazado_925168" data-name="Trazado 925168" d="M511.858,435.144c-.5.416-1.219,1.449-2.145,1.391,0,0,1.219-1.157,1.073-1.62a.751.751,0,0,0-1.317-.347c-.682.579-3.419,2.839-1.445,4.513s3.835-.722,3.835-.722l1.343-2.229Z" transform="translate(-234.031 -144.506)" fill="#703232"/>
              <path id="Trazado_925169" data-name="Trazado 925169" d="M512,434.131c.418-.7.5-1.075.886-.7s.74.661.584,1.075-.817.81-1.012.446a1.1,1.1,0,0,1-.015-.819Z" transform="translate(-235.769 -144.168)" fill="#703232"/>
              <path id="Trazado_925170" data-name="Trazado 925170" d="M512.911,432.809a4.259,4.259,0,0,1,3.583-1.868c1.518.173,5.686-.617,6.192,1.556s.7,4.165-.35,4.74-2.181,1.65-3.778.657-3.017-.877-3.28-2.03-2.187-2.689-2.187-2.689" transform="translate(-236.108 -143.383)" fill="#703232"/>
              <path id="Trazado_925171" data-name="Trazado 925171" d="M550.273,455.066c-.1,1.06.131,1.525.491,1.676s.291.332.291.332a1.836,1.836,0,0,1-.42.643,2.195,2.195,0,0,0-.825,1.043c-.184.545-.312,1.05-.4,1.413s-.265.96-.265.96l1.006.286a12.658,12.658,0,0,0,2.6.739,4.368,4.368,0,0,0,.9-.415,3.272,3.272,0,0,0,.067-1.846,8.527,8.527,0,0,0-.365-1.9c-.262-.448-1.247-.628-1.247-.628a.472.472,0,0,1-.282-.643c.2-.467.9-.414.842-1.058s.128-1.143-.368-1.364-1.148-.448-1.481-.145a1.418,1.418,0,0,0-.52.814" transform="translate(-249.567 -151.068)" fill="#703232"/>
              <path id="Trazado_925172" data-name="Trazado 925172" d="M555.26,459.7c.316.558,1.367,1.54,1.537,2.372a10.023,10.023,0,0,1,.239,1.737c.034.579-.034,1.122-.58,1.05s-.613-.15-.75-.8a8.387,8.387,0,0,0-.716-1.589,6.362,6.362,0,0,1-.238-1.584Z" transform="translate(-251.652 -152.957)" fill="#703232"/>
              <path id="Trazado_925173" data-name="Trazado 925173" d="M549.841,459.3c-.314.26-.762.906-1.341.87,0,0,.762-.724.671-1.013a.469.469,0,0,0-.823-.218c-.427.362-2.138,1.776-.9,2.823s2.4-.452,2.4-.452l.84-1.394Z" transform="translate(-248.773 -152.649)" fill="#703232"/>
              <path id="Trazado_925174" data-name="Trazado 925174" d="M549.929,458.664c.261-.44.31-.672.554-.44s.463.414.365.673-.511.506-.633.279a.684.684,0,0,1-.009-.512Z" transform="translate(-249.86 -152.437)" fill="#703232"/>
              <path id="Trazado_925175" data-name="Trazado 925175" d="M550.5,457.837a2.663,2.663,0,0,1,2.241-1.168c.95.108,3.556-.386,3.872.974s.439,2.6-.219,2.964-1.364,1.032-2.363.411-1.887-.548-2.051-1.27-1.367-1.681-1.367-1.681" transform="translate(-250.072 -151.946)" fill="#703232"/>
              <rect id="Rectángulo_409211" data-name="Rectángulo 409211" width="6.131" height="3.194" transform="translate(263.995 260.858)" fill="#f9cbb2"/>
              <rect id="Rectángulo_409212" data-name="Rectángulo 409212" width="6.131" height="3.194" transform="translate(294.517 274.031)" fill="#f9cbb2"/>
              <rect id="Rectángulo_409213" data-name="Rectángulo 409213" width="6.131" height="3.193" transform="translate(268.793 267.445)" fill="#f9cbb2"/>
              <rect id="Rectángulo_409214" data-name="Rectángulo 409214" width="6.131" height="3.193" transform="translate(302.514 262.456)" fill="#f9cbb2"/>
              <rect id="Rectángulo_409215" data-name="Rectángulo 409215" width="6.131" height="3.194" transform="translate(276.103 277.224)" fill="#f9cbb2"/>
              <rect id="Rectángulo_409216" data-name="Rectángulo 409216" width="6.131" height="3.194" transform="translate(302.514 254.71)" fill="#f9cbb2"/>
              <path id="Trazado_925176" data-name="Trazado 925176" d="M62.956,309.3c13.453,2.04,74.542,23.568,79.581,27.975s17.729,23.335,19.525,23.7,56.816,6.131,60.778,6.817,24.623,21.38,30.869,27.611,20.261,10.97,26.642,10.054,23.143-2.059,29.721-1.755,28.131-8.971,31.536-6.216,17.327,9.248,21.171,12.309,9.609,2.554,9.609,2.554H393.53l2.882,28.562-10.09,12.243L54.308,444.473Z" transform="translate(-65.746 -102.914)" fill="#703232"/>
              <path id="Trazado_925177" data-name="Trazado 925177" d="M240.048,462.5a31.725,31.725,0,0,1-6.375-1.464c-8.016-3.332-11.315-15.519-19.855-16.67-5.768-.777-11.107,4.13-16.911,3.79-6.311-.369-10.95-6.694-17.093-8.273-5.475-1.408-11.3,1.16-16.82-.013-6.83-1.451-11.4-8.066-17.025-12.426-10.235-7.934-19.241-3-30.013-5.827-2.41-.633-4.464-2.264-6.412-3.9-6.459-5.428-14.421-11.725-22.1-8.564-2.116.871-3.97,2.422-6.163,3.041-5.4,1.524-10.472-2.869-15.27-5.912A36.349,36.349,0,0,0,24.7,408.479c-4.716,18.448-18.116,34.062-19.585,53.115a10.649,10.649,0,0,0,.674,5.524,10.776,10.776,0,0,0,4.137,3.946,202.879,202.879,0,0,0,98.059,32.393c23.833,1.4,47.676-1.512,71.507-2.951,15.07-.91,30.674-.719,45.407-4.287a127.691,127.691,0,0,1,44.28-3.041l-19.942-24.6a18.551,18.551,0,0,0-4.686-4.561,13.766,13.766,0,0,0-4.5-1.513" transform="translate(-47.443 -133.386)" fill="#632a2a"/>
              <path id="Trazado_925178" data-name="Trazado 925178" d="M17.248,432.862l39.137-7.481,30.542,29.376,30.4,12.168s18.323,14.515,21.762,14.515,22.556,20.4,22.556,20.4L0,481.439Z" transform="translate(-45.571 -141.539)" fill="#4c2222"/>
            </g>
          </g>
        </g>
      </g>
    </g>
  </g>
</svg>
