<svg xmlns="http://www.w3.org/2000/svg" xmlns:xlink="http://www.w3.org/1999/xlink" width="150" height="150" viewBox="0 0 150 150">
  <defs>
    <clipPath id="clip-path">
      <rect id="Rectángulo_407255" data-name="Rectángulo 407255" width="150" height="150" transform="translate(0)" fill="#f69a8b"/>
    </clipPath>
    <clipPath id="clip-path-2">
      <rect id="Rectángulo_401492" data-name="Rectángulo 401492" width="96.296" height="96.297" transform="translate(0 0)" fill="#953c2d" stroke="#707070" stroke-width="1"/>
    </clipPath>
    <clipPath id="clip-path-3">
      <rect id="Rectángulo_409178" data-name="Rectángulo 409178" width="83" height="92" transform="translate(0 0.002)" fill="#953c2d"/>
    </clipPath>
  </defs>
  <g id="Grupo_1118048" data-name="Grupo 1118048" transform="translate(-178.996 -3684.533)">
    <g id="Grupo_1116923" data-name="Grupo 1116923" transform="translate(178.996 3684.533)" clip-path="url(#clip-path)">
      <path id="Trazado_893365" data-name="Trazado 893365" d="M148.169,44.41C139.386,14.569,73.684-19.323,25.142,13.36s-13,149.535-6.586,125.918c6.165-22.7,33.5-4.155,54.014-3.491,22.845.739,37.666-5.15,37.63-5.238,10.531-3.911,17.983-9.053,24.206-18.726C146.839,92.5,153.455,62.367,148.169,44.41" transform="translate(0.001 3.798)" fill="#f69a8b"/>
    </g>
    <g id="Grupo_1115380" data-name="Grupo 1115380" transform="translate(222.027 3726.987)">
      <rect id="Rectángulo_401104" data-name="Rectángulo 401104" width="60.924" height="61.907" transform="translate(2.232 0)" fill="none"/>
      <g id="Enmascarar_grupo_1098697" data-name="Enmascarar grupo 1098697" transform="translate(-16.032 -15.453)" clip-path="url(#clip-path-2)">
        <g id="Grupo_1119432" data-name="Grupo 1119432" transform="translate(7 1.997)">
          <g id="Grupo_1119431" data-name="Grupo 1119431" clip-path="url(#clip-path-3)">
            <path id="Trazado_924979" data-name="Trazado 924979" d="M115.44,64.708l-5.116,3.147c-.288,3.355-1.034,6.874-3.525,9.322-.631.621-2.97,1.844-3.175,2.135-.366.52-.684,2.247-1.067,3.062-2.892,6.144-8,8.687-14.745,8-1.51-.153-4.366-1.411-5.275-1.435-1.98-.052-3.555.811-6.266.391C66.3,87.787,57.775,77.923,55.917,68.256L58.54,67.6c1.83,9.349,9.473,17.849,19.143,19.14l-4.318-3.151c-3.647-3.116-7.423-8.256-7.488-13.248-.015-1.177.859-3.276.743-4.125-.135-.985-1.942-3.977-2.347-5.524-2.348-8.963,2.8-14.3,11.7-13.8a18.648,18.648,0,0,0,2.575.477c.336-.079,1.257-1.221,1.836-1.581,4.362-2.709,11.985.328,15.994,2.723a29.416,29.416,0,0,1,13.28,16.358c.625.438,3.547-2.011,4.075-2.5ZM83.384,47.47c-.27.045-1.951.546-1.64.987C89.9,52.471,97.7,58.06,101.8,66.421c.555.337,4.81.057,5.137-.382-.443-3.315-2.665-6.813-4.865-9.33C98.223,52.3,89.461,46.449,83.384,47.47M77.65,50.064c-9.925-3.057-13.8,5.57-9.4,13.6C74.107,57.883,80.709,62,84.509,67.721a23.021,23.021,0,0,1,3.7,10.327c2.145.857,11.48.913,12.814-.616.955-1.1-.415-6.981-1.1-8.48a32.4,32.4,0,0,1-11.834-4.29c-5.111-2.993-10.955-8.1-10.442-14.6M98.4,66.024c.255-.257-2.52-3.887-2.889-4.319-4.014-4.7-9.675-8.226-15.2-10.888C81.133,59.3,91.22,63.806,98.4,66.024M85.55,77.3c-1.01-5.325-6.373-15.787-13.185-13.314-.739.268-2.432,1.406-2.5,2.216s3.973,4.875,4.813,5.587A25.674,25.674,0,0,0,85.55,77.3m18.357-1.308a8.319,8.319,0,0,0,3.4-7.341,9.134,9.134,0,0,1-4.194.524ZM85.522,80.21A32.514,32.514,0,0,1,68.772,69.7c-.289,6.135,4.891,11.24,9.721,14.268.916.574,3.483,2.3,4.428,1.861,1.5-.7,3.116-3.937,2.6-5.614m14.71.5A32.533,32.533,0,0,1,88.463,81c-.334.992-.395,2.047-.767,3.035-.46,1.22-1.412,2.066-1.883,3.227C91.7,89,98.267,86.824,100.232,80.709" transform="translate(-41.255 -32.994)" fill="#953c2d"/>
            <path id="Trazado_924980" data-name="Trazado 924980" d="M112.657,91.5h-8.128V88.88h5.506V79.047c0-9.223,9.583-15.25,13.846-22.338a36.224,36.224,0,0,0,2.194-32.771C116.622,2.229,84.888-4.889,67.834,12.214L66,10.576C77.909-2.5,98.8-2.72,113.423,5.913c19.129,11.3,23.937,36.606,11.136,54.62-4.257,5.99-11.9,10.99-11.9,19.3Z" transform="translate(-48.697 0)" fill="#953c2d"/>
            <path id="Trazado_924981" data-name="Trazado 924981" d="M12.568,97.017v15.208H28.431l.393.393v11.668H53.21v2.622H25.94V114.847H9.946V100.033l-.393-.393H3.26c-1.593,0-3.369-2.754-3.254-4.3L5.95,73.488a38.777,38.777,0,0,1,9.371-25.5l1.94,1.7A37.556,37.556,0,0,0,8.935,68.606c-.236,1.807-.138,3.692-.368,5.4C7.692,80.521,3.985,88.16,2.891,94.82c-.384.758.433,2.2,1.156,2.2Z" transform="translate(0 -35.407)" fill="#953c2d"/>
            <rect id="Rectángulo_409176" data-name="Rectángulo 409176" width="2.625" height="2.625" transform="translate(54.519 8.12)" fill="#953c2d"/>
            <rect id="Rectángulo_409177" data-name="Rectángulo 409177" width="2.625" height="2.625" transform="translate(59.763 10.742)" fill="#953c2d"/>
          </g>
        </g>
      </g>
    </g>
  </g>
</svg>
