<svg xmlns="http://www.w3.org/2000/svg" xmlns:xlink="http://www.w3.org/1999/xlink" width="99" height="99" viewBox="0 0 99 99">
  <defs>
    <clipPath id="clip-path">
      <rect id="Rectángulo_401223" data-name="Rectángulo 401223" width="99" height="99" transform="translate(0)" fill="#8ce6fe"/>
    </clipPath>
    <clipPath id="clip-path-2">
      <rect id="Rectángulo_401223-2" data-name="Rectángulo 401223" width="88.539" height="88.539" fill="#f3f9ff"/>
    </clipPath>
    <clipPath id="clip-path-3">
      <rect id="Rectángulo_409247" data-name="Rectángulo 409247" width="67" height="65.743" fill="none"/>
    </clipPath>
  </defs>
  <g id="Grupo_1119266" data-name="Grupo 1119266" transform="translate(-619.921 -5755.871)">
    <g id="Grupo_1100724" data-name="Grupo 1100724" transform="translate(619.921 5755.871)">
      <g id="Grupo_1099654" data-name="Grupo 1099654" transform="translate(0 0)">
        <g id="Grupo_1099652" data-name="Grupo 1099652" clip-path="url(#clip-path)">
          <path id="Trazado_873521" data-name="Trazado 873521" d="M99,77.066A22,22,0,0,1,77.066,99H21.934A22,22,0,0,1,0,77.066V21.933A22,22,0,0,1,21.934,0H77.066A22,22,0,0,1,99,21.934Z" transform="translate(0)" fill="#ffdcd6"/>
        </g>
      </g>
      <g id="Grupo_1099659" data-name="Grupo 1099659" transform="translate(4.77 5.723)">
        <g id="Grupo_1099652-2" data-name="Grupo 1099652" transform="translate(0 0)" clip-path="url(#clip-path-2)">
          <path id="Trazado_873521-2" data-name="Trazado 873521" d="M88.539,68.922A19.674,19.674,0,0,1,68.923,88.539H19.616A19.674,19.674,0,0,1,0,68.922V19.616A19.674,19.674,0,0,1,19.616,0H68.923A19.674,19.674,0,0,1,88.539,19.616Z" fill="#f3f9ff"/>
        </g>
      </g>
    </g>
    <g id="Grupo_1100725" data-name="Grupo 1100725" transform="translate(636.343 5771.293)">
      <rect id="Rectángulo_401104" data-name="Rectángulo 401104" width="68" height="69" transform="translate(0.29 -1.625)" fill="none"/>
      <g id="Grupo_1119541" data-name="Grupo 1119541" transform="translate(1.29 -0.625)">
        <g id="Grupo_1119540" data-name="Grupo 1119540" transform="translate(0 0)" clip-path="url(#clip-path-3)">
          <path id="Trazado_925306" data-name="Trazado 925306" d="M65.509,27.164A27.108,27.108,0,1,0,38.344,54.33a29.3,29.3,0,0,0,9.017-1.483l18.147,7.19-7.99-13.583a27.467,27.467,0,0,0,7.99-19.29" transform="translate(1.491 0)" fill="#025974"/>
          <path id="Trazado_925307" data-name="Trazado 925307" d="M37.186,7.662A17.121,17.121,0,1,0,54.305,24.784,17.1,17.1,0,0,0,37.186,7.662" transform="translate(2.65 1.012)" fill="#8ce6fe"/>
          <path id="Trazado_925308" data-name="Trazado 925308" d="M35.961,29.089V39.134c-2.969,0-5.48-4.337-6.622-10.5a60.5,60.5,0,0,0,6.622.455" transform="translate(3.875 3.782)" fill="#07c3f3"/>
          <path id="Trazado_925309" data-name="Trazado 925309" d="M52.308,22.786a17.1,17.1,0,0,1-17.12,17.12c2.966,0,5.478-4.337,6.619-10.5,6.163-1.142,10.5-3.653,10.5-6.62" transform="translate(4.648 3.009)" fill="#07c3f3"/>
          <path id="Trazado_925310" data-name="Trazado 925310" d="M35.188,7.662A17.1,17.1,0,0,1,52.307,24.784c0-2.968-4.337-5.479-10.5-6.62-1.029-6.164-3.653-10.5-6.619-10.5" transform="translate(4.648 1.012)" fill="#07c3f3"/>
          <path id="Trazado_925311" data-name="Trazado 925311" d="M41.807,17a39.77,39.77,0,0,1,.571,6.62,40.91,40.91,0,0,1-.571,6.619,39.792,39.792,0,0,1-6.62.571V16.433a39.666,39.666,0,0,1,6.62.572" transform="translate(4.648 2.17)" fill="#07c3f3"/>
          <path id="Trazado_925312" data-name="Trazado 925312" d="M35.961,7.662v9.929a40.9,40.9,0,0,0-6.622.572c1.141-6.164,3.652-10.5,6.622-10.5" transform="translate(3.875 1.012)" fill="#07c3f3"/>
          <path id="Trazado_925313" data-name="Trazado 925313" d="M30.665,16.938a39.649,39.649,0,0,0-.571,6.62,40.783,40.783,0,0,0,.571,6.619c-6.163-1.028-10.5-3.652-10.5-6.619-.115-2.968,4.222-5.594,10.5-6.62" transform="translate(2.663 2.237)" fill="#07c3f3"/>
          <path id="Trazado_925314" data-name="Trazado 925314" d="M56.995.1a2.826,2.826,0,0,1,2.854,2.853,2.853,2.853,0,1,1-5.707,0A2.825,2.825,0,0,1,56.995.1" transform="translate(7.151 0.013)" fill="#fcdf8e"/>
          <rect id="Rectángulo_409239" data-name="Rectángulo 409239" width="2.854" height="2.853" transform="translate(54.102 62.891)" fill="#fcdf8e"/>
          <rect id="Rectángulo_409240" data-name="Rectángulo 409240" width="2.854" height="2.853" transform="translate(48.395 62.891)" fill="#fcdf8e"/>
          <rect id="Rectángulo_409241" data-name="Rectángulo 409241" width="2.854" height="2.853" transform="translate(42.689 62.891)" fill="#fcdf8e"/>
          <rect id="Rectángulo_409242" data-name="Rectángulo 409242" width="2.854" height="2.853" transform="translate(36.982 62.891)" fill="#fcdf8e"/>
          <rect id="Rectángulo_409243" data-name="Rectángulo 409243" width="2.854" height="2.853" transform="translate(18.49 0.113)" fill="#fcdf8e"/>
          <rect id="Rectángulo_409244" data-name="Rectángulo 409244" width="2.854" height="2.853" transform="translate(12.783 0.113)" fill="#fcdf8e"/>
          <rect id="Rectángulo_409245" data-name="Rectángulo 409245" width="2.854" height="2.853" transform="translate(7.077 0.113)" fill="#fcdf8e"/>
          <rect id="Rectángulo_409246" data-name="Rectángulo 409246" width="2.853" height="2.853" transform="translate(1.37 0.113)" fill="#fcdf8e"/>
          <path id="Trazado_925315" data-name="Trazado 925315" d="M1.37,64.1a1.443,1.443,0,0,1-1.027-.456,1.377,1.377,0,0,1-.114-1.6l7.419-12.67A28.254,28.254,0,0,1,0,29.969,28.565,28.565,0,0,1,11.985,6.686a1.33,1.33,0,0,1,1.94.343,1.331,1.331,0,0,1-.343,1.94A25.855,25.855,0,0,0,2.74,29.856,25.186,25.186,0,0,0,10.273,48a1.384,1.384,0,0,1,.229,1.713L4.68,59.76l14.266-5.707a1.583,1.583,0,0,1,1.028,0,27,27,0,0,0,8.561,1.483,1.484,1.484,0,1,1,0,2.968,27.151,27.151,0,0,1-9.018-1.484L1.94,64.1Z" transform="translate(0 0.847)" fill="#025974"/>
        </g>
      </g>
    </g>
  </g>
</svg>
