<svg xmlns="http://www.w3.org/2000/svg" xmlns:xlink="http://www.w3.org/1999/xlink" width="150" height="150" viewBox="0 0 150 150">
  <defs>
    <clipPath id="clip-path">
      <rect id="Rectángulo_407255" data-name="Rectángulo 407255" width="150" height="150" transform="translate(0)" fill="#f69a8b"/>
    </clipPath>
    <clipPath id="clip-path-2">
      <rect id="Rectángulo_401492" data-name="Rectángulo 401492" width="96.296" height="96.297" transform="translate(-0.331 0.001)" fill="#953c2d" stroke="#707070" stroke-width="1"/>
    </clipPath>
    <clipPath id="clip-path-3">
      <rect id="Rectángulo_409188" data-name="Rectángulo 409188" width="88.559" height="89.001" fill="#953c2d"/>
    </clipPath>
  </defs>
  <g id="Grupo_1119135" data-name="Grupo 1119135" transform="translate(-179.328 -3684.533)">
    <g id="Grupo_1116923" data-name="Grupo 1116923" transform="translate(179.328 3684.533)" clip-path="url(#clip-path)">
      <path id="Trazado_893365" data-name="Trazado 893365" d="M148.169,44.41C139.386,14.569,73.684-19.323,25.142,13.36s-13,149.535-6.586,125.918c6.165-22.7,33.5-4.155,54.014-3.491,22.845.739,37.666-5.15,37.63-5.238,10.531-3.911,17.983-9.053,24.206-18.726C146.839,92.5,153.455,62.367,148.169,44.41" transform="translate(0.001 3.798)" fill="#f69a8b"/>
    </g>
    <g id="Grupo_1115380" data-name="Grupo 1115380" transform="translate(222.027 3726.987)">
      <rect id="Rectángulo_401104" data-name="Rectángulo 401104" width="60.924" height="61.907" transform="translate(2.232 0)" fill="none"/>
      <g id="Enmascarar_grupo_1098697" data-name="Enmascarar grupo 1098697" transform="translate(-15.7 -15.454)" clip-path="url(#clip-path-2)">
        <g id="Grupo_1119440" data-name="Grupo 1119440" transform="translate(3.669 4)">
          <g id="Grupo_1119439" data-name="Grupo 1119439" clip-path="url(#clip-path-3)">
            <path id="Trazado_924998" data-name="Trazado 924998" d="M39.18,191.758a28.377,28.377,0,0,1-5.852,1.086c-1.911.127-7.562.307-9.188-.057-1.207-.271-.9-1.34-1.454-1.539-.716-.254-2.2.1-3.169-.1-2.6-.526-5.548-4.4-2.907-6.593,1.757-1.46,4.624-.19,6.35-.675.332-.093.01-1.149,1.127-1.371,1.875-.372,5.224.128,7.35,0a35.847,35.847,0,0,0,6.985-1.177c2.712-.747,5.107-2.29,8.1-1.83-5.409-4.81-7.448-11.977-4.132-18.685,1.859-3.759,6.4-7.337,10.6-7.905,15.831-2.143,23.534,16.473,11.765,26.59,3-.461,5.392,1.083,8.1,1.83a35.847,35.847,0,0,0,6.985,1.177c1.862.108,6.161-.4,7.577.04.809.25.59,1.238.9,1.326,1.695.476,4.334-.691,6.227.526,3.191,2.05.113,6.249-2.787,6.738-.951.16-2.494-.139-3.165.1-.558.2-.247,1.268-1.454,1.539-1.626.364-7.277.184-9.188.057a28.377,28.377,0,0,1-5.852-1.086v8.434H69.109V189.173a3.11,3.11,0,0,1,.725-.65c.877-.494,3.032.5,4.122.7a55.1,55.1,0,0,0,11.478.63V185.5a57.694,57.694,0,0,1-10.673-.618c-1.68-.31-6.621-2.375-7.42-2.375H58.5c.409,1.9,3.282,4.475,2.987,6.369-1.337,1.671-3.7,8.776-5.061,9.652a1.245,1.245,0,0,1-1.564,0c-1.3-.839-3.75-8.015-5.061-9.652-.3-1.895,2.577-4.472,2.987-6.369H43.942c-.8,0-5.74,2.065-7.42,2.375a57.694,57.694,0,0,1-10.673.618v4.353a55.1,55.1,0,0,0,11.478-.63c1.09-.2,3.246-1.194,4.122-.7a3.11,3.11,0,0,1,.725.65v11.019H39.18ZM65.3,160.739a11.828,11.828,0,0,0-18.772-.676l5.337-1.193c4.652-.779,9.078.334,13.435,1.869m-11.482.9a24.759,24.759,0,0,0-4.783.93,25.371,25.371,0,0,0-4.677,2.125c-1.637,1.668.054,7.28,1.179,9.144,5.653,9.374,20.567,6.22,21.864-4.6.329-2.746.464-3.421-1.824-4.826a20.943,20.943,0,0,0-11.758-2.771m1.69,22.231-2.45,4.738,2.582,5.049,2.584-5.281Zm-32.381,2.991H18.775c.562,1.889,2.874,1.281,4.355,1.362Zm69.651,0H88.154v1.362c1.816-.093,3.661.59,4.627-1.362" transform="translate(-11.337 -111.191)" fill="#953c2d"/>
            <path id="Trazado_924999" data-name="Trazado 924999" d="M121.791.112c20.416-2.188,22.373,28.305,2.909,29.571C105.346,30.942,103.209,2.1,121.791.112m11.482,21.417c-1.371-.525-7.258-1.943-7.91-2.839-1.184-1.625,2.284-4.324,2.676-5.8.365-1.375-.249-3.267.2-4.693l3.12-2.316a12.274,12.274,0,0,0-13.054-1.766c.762,2.518,2.509,1.586,4.211,1.907,1.363.257,2.268,4.786,2.6,6.1a27.582,27.582,0,0,1-3.822,4.09c-.892.406-2.224-.064-3.275.262-1.273.394-3.36,2.961-4.844,3.453-.275.477,1.391,2.967,2,2.961,1.225-.013,3.863-3.9,5.923-3.49a23.61,23.61,0,0,1,3.6,1.863c.62.71,1.294,5.18,1.662,5.169,2.74-.784,5.5-2.365,6.917-4.9m-21.218-4.357c.246.182,4.223-3.386,4.9-3.662,1.1-.446,2.353.2,3.406-.4a9.775,9.775,0,0,0,1.441-1.567,7.488,7.488,0,0,0-.636-2.262c-.4-.48-1.774-.106-2.691-.574-.6-.3-2.553-2.681-2.755-2.681a11.537,11.537,0,0,0-3.67,11.149M133.541,8.2c-3.638,1.031-1.947,3.051-2.5,5.519-.131.586-2.264,3.314-2.119,3.455l5.828,1.653A12.292,12.292,0,0,0,133.541,8.2M122.329,23.221a3.311,3.311,0,0,0-1.639-.561c-.749.15-2.3,1.948-3.2,2.266,1.617,1.269,3.742,1.561,5.712,1.768-.321-.689-.582-3.045-.877-3.473" transform="translate(-79.312 0.001)" fill="#953c2d"/>
            <path id="Trazado_925000" data-name="Trazado 925000" d="M12.267,81.936C33.35,79.257,35.3,110.363,15.46,111.518c-18.789,1.093-21.165-27.3-3.192-29.581m11.49,22.51c6.636-8.864.269-20.89-10.986-19.558-8.737,1.034-13.412,12.84-7.1,19.287a8.233,8.233,0,0,1,4.183-6.93c-2.867-4.61.054-9.928,5.626-9.407,4.381.41,6.515,5.9,3.948,9.367,1.526,1.345,3.092,2.4,3.714,4.463ZM14.44,90.63c-3.748.349-3.605,6.224.475,5.946,3.944-.268,3.168-6.286-.475-5.946m-1.905,8.987c-3.446.576-4.118,3.576-3.753,6.617.128,1.067,1.4,1.445,2.343,1.739a11.13,11.13,0,0,0,9.239-1.071c1.193-5.938-2.286-8.21-7.828-7.284" transform="translate(0.001 -59.524)" fill="#953c2d"/>
            <path id="Trazado_925001" data-name="Trazado 925001" d="M230.243,81.918c22.443-2.852,22.382,31.1,1.325,29.55-17.783-1.308-18.03-27.427-1.325-29.55m.273,2.994c-14.117,1.924-12.234,24.937,3.162,23.566,15.691-1.4,13.624-25.854-3.162-23.566" transform="translate(-158.662 -59.506)" fill="#953c2d"/>
            <rect id="Rectángulo_409182" data-name="Rectángulo 409182" width="2.996" height="2.996" transform="translate(7.164 54.99)" fill="#953c2d"/>
            <rect id="Rectángulo_409183" data-name="Rectángulo 409183" width="2.996" height="2.996" transform="translate(78.448 54.99)" fill="#953c2d"/>
            <rect id="Rectángulo_409184" data-name="Rectángulo 409184" width="2.996" height="2.996" transform="translate(7.164 60.704)" fill="#953c2d"/>
            <rect id="Rectángulo_409185" data-name="Rectángulo 409185" width="2.996" height="2.996" transform="translate(78.448 60.704)" fill="#953c2d"/>
            <rect id="Rectángulo_409186" data-name="Rectángulo 409186" width="2.996" height="2.996" transform="translate(7.164 66.689)" fill="#953c2d"/>
            <rect id="Rectángulo_409187" data-name="Rectángulo 409187" width="2.996" height="2.996" transform="translate(78.448 66.689)" fill="#953c2d"/>
            <path id="Trazado_925002" data-name="Trazado 925002" d="M129.989,203c.255-.255.16-.951.512-1.038l2.814.015c-.457,5.852-8.348,5.727-8.978,0,.812.121,2.091-.206,2.812.042.418.144,1.4,2.42,2.84.981" transform="translate(-90.509 -146.987)" fill="#953c2d"/>
            <path id="Trazado_925003" data-name="Trazado 925003" d="M171.29,202.011c.24.156-.024,1.415,1.54,1.34,1.244-.06,1.05-1.12,1.669-1.333a7.784,7.784,0,0,1,2.817.1c-.757,5.6-8.581,5.628-8.983-.138.633.131,2.583-.207,2.957.036" transform="translate(-122.534 -146.983)" fill="#953c2d"/>
            <path id="Trazado_925004" data-name="Trazado 925004" d="M249.57,117.25V121.6h-2.993V117.25c-4.557.648-8.933-2.733-6.852-7.532.858-1.98,1.789-1.7,3.015-2.7.628-.513,1.11-1.541,1.949-2.132a6.353,6.353,0,0,1,6.5-.276c.9.589,1.521,1.837,2.217,2.408.652.535,1.524.616,2.294,1.515,3.756,4.379-1.024,9.824-6.131,8.716m-6.716-3.624a3.536,3.536,0,0,0,1.677.638,44.473,44.473,0,0,0,7.562-.07,2.254,2.254,0,0,0,1.774-3.007c-.319-1.4-1.755-1.176-2.538-1.817-.955-.782-1.139-2.892-3.461-2.675-2.062.193-1.984,1.764-3.051,2.672-.653.555-2.045.679-2.448,1.63a2.509,2.509,0,0,0,.486,2.628" transform="translate(-174.114 -75.59)" fill="#953c2d"/>
          </g>
        </g>
      </g>
    </g>
  </g>
</svg>
