<svg xmlns="http://www.w3.org/2000/svg" xmlns:xlink="http://www.w3.org/1999/xlink" width="62.504" height="62.504" viewBox="0 0 62.504 62.504">
  <defs>
    <clipPath id="clip-path">
      <rect id="Rectángulo_409189" data-name="Rectángulo 409189" width="38.353" height="32" fill="#fff"/>
    </clipPath>
  </defs>
  <g id="Grupo_1072055" data-name="Grupo 1072055" transform="translate(-279.484 -1198.614)">
    <g id="Grupo_1072053" data-name="Grupo 1072053" transform="translate(279.484 1198.614)">
      <circle id="Elipse_4742" data-name="Elipse 4742" cx="31.252" cy="31.252" r="31.252" transform="translate(0)" fill="#5001aa"/>
    </g>
    <g id="Grupo_1119442" data-name="Grupo 1119442" transform="translate(291.484 1213.614)">
      <g id="Grupo_1119441" data-name="Grupo 1119441" clip-path="url(#clip-path)">
        <path id="Trazado_925005" data-name="Trazado 925005" d="M99.429,26.465a2.76,2.76,0,0,1-2.09,2.217c-.487.128-1.856.032-1.895.5-.044.531,1.006.927,1.4,1.259a6.182,6.182,0,0,1,1.683,2.16c.17.357.362,1.46.723,1.528l.565-.335a5.712,5.712,0,0,0-1.2-2.87c-.154-.2-1.2-1.165-1.106-1.283a4.809,4.809,0,0,0,2.386-1.691c.708.835,2.131-.432,2.364-.411.387.036.82.72,1.73.639.3-.027.751-.419.859-.041a27.15,27.15,0,0,1,.024,3.83c-.141,2.29-.984,4.055-1.468,6.217L105,54.628c.015.111-.137.33-.2.33H96.049c-.135-.1-.144-.116-.144-.271,0-1.242.046-2.53.072-3.777.066-3.075.358-6.193.408-9.266.025-1.52.2-3.565-.379-4.932-.866-2.047-2.807-4.657-2.807-7V26.465Z" transform="translate(-80.849 -22.958)" fill="#fff"/>
        <path id="Trazado_925006" data-name="Trazado 925006" d="M25.511,143.851l-4.381-4.43c-2.161-.861-4.416-1.207-6.283-2.729a19.67,19.67,0,0,1-1.645-1.68c-.049-.184.021-.243.111-.377.664-.988,2.357-2.089,3.122-3.106a2.063,2.063,0,0,1-.012,2.371c-.214.378-1.426,1.587-.257,1.58a13.841,13.841,0,0,1,2.507-.228c.519.063,1.883.814,2.067.723.826-.41-.2-1.059-.611-1.251a5.439,5.439,0,0,0-2.7-.415c-.1-.092.342-1.168.372-1.429.034-.3-.173-.621-.048-.822.075-.121.466-.278.662-.54.228-.3.356-1.048.466-1.125.284-.2,1.4-.11,1.466-.987a.3.3,0,0,1,.266.062,35.087,35.087,0,0,1,2.645,2.657,18.568,18.568,0,0,1,1.752,3.151c.167.3.692.815.742.981.261.873-.078,3.086-.111,4.076-.018.537.109,3.34-.129,3.517" transform="translate(-11.439 -112.249)" fill="#fff"/>
        <path id="Trazado_925007" data-name="Trazado 925007" d="M188.555,135.407c.071.877,1.182.788,1.466.987.11.077.238.82.466,1.125.2.262.587.419.662.54.124.2-.082.524-.048.822.029.261.468,1.337.372,1.429a5.693,5.693,0,0,0-2.7.413c-.464.209-1.407.857-.609,1.253.184.091,1.548-.66,2.067-.723a13.841,13.841,0,0,1,2.507.228c1.169.007-.043-1.2-.257-1.58a2.063,2.063,0,0,1-.012-2.371c.765,1.017,2.458,2.117,3.122,3.106.09.134.159.193.111.377-.133.506-2.509,2.327-3.078,2.633-1.591.857-4.183,1.135-5.38,2.174-.926.8-1.878,2.259-2.8,3.027-.126.105-.148.274-.393.209L183.418,142c.862-1.257,1.246-2.67,2.227-3.874a35.113,35.113,0,0,1,2.645-2.657.3.3,0,0,1,.266-.062" transform="translate(-159.111 -117.454)" fill="#fff"/>
        <path id="Trazado_925008" data-name="Trazado 925008" d="M165.112,4.268c-.48-.476-.565-3.48.261-3.838,1.736-.751,1.743,2.192,1.5,3.222a1.076,1.076,0,0,1-1.761.616" transform="translate(-142.917 -0.268)" fill="#fff"/>
        <path id="Trazado_925009" data-name="Trazado 925009" d="M141.75,4.167,142,2.939c-.157-.4-.539-.381-.909-.36.052-.8-.256-1.806.535-2.314,1.853-1.19,1.885,1.932,1.71,3.035a1.145,1.145,0,0,1-1.584.867" transform="translate(-122.376 0.001)" fill="#fff"/>
        <path id="Trazado_925010" data-name="Trazado 925010" d="M95.054,2.745H92.8c-.555-3.315,2.88-3.495,2.253,0" transform="translate(-80.45 -0.166)" fill="#fff"/>
        <path id="Trazado_925011" data-name="Trazado 925011" d="M119.061,2.772h-2.253c-.547-3.332,2.858-3.468,2.253,0" transform="translate(-101.277 -0.192)" fill="#fff"/>
        <path id="Trazado_925012" data-name="Trazado 925012" d="M42.462,111.6a11,11,0,0,1-1.191-1.26c-.221-.711.25-1.342,1-1a17.434,17.434,0,0,1,1.567,1.618c.313,1.032-.608,1.2-1.376.642" transform="translate(-35.754 -94.766)" fill="#fff"/>
        <path id="Trazado_925013" data-name="Trazado 925013" d="M230.352,115.614c.6.6-.631,1.9-1.133,2.213-.864.538-1.727.179-1.284-.785.043-.094,1.35-1.41,1.447-1.467a.87.87,0,0,1,.969.039" transform="translate(-197.624 -100.148)" fill="#fff"/>
        <path id="Trazado_925014" data-name="Trazado 925014" d="M29.165,122.829c.471.351,1.809,1.817.782,2.193-.284.1-.356-.664-.683-.776-.434-.149-.705.25-.839.19-.58-.259-1.36-1.6-.5-1.975.617-.271.81.047,1.24.368" transform="translate(-23.893 -106.143)" fill="#fff"/>
        <path id="Trazado_925015" data-name="Trazado 925015" d="M243.544,128.566c.707.668-.379,1.918-.692,1.921-.06,0-.231-.205-.409-.235-.524-.089-.719.358-.856.8-1.6-.3.746-2.576,1.268-2.654a1.033,1.033,0,0,1,.688.171" transform="translate(-209.095 -111.374)" fill="#fff"/>
        <path id="Trazado_925016" data-name="Trazado 925016" d="M275.173,156.179c.548.543-.21,1.495-.716,1.815l-1.238-1.117c.418-.52,1.312-1.333,1.954-.7" transform="translate(-237.011 -135.28)" fill="#fff"/>
        <path id="Trazado_925017" data-name="Trazado 925017" d="M.191,150.364c.569-.568,1.6.171,1.954.7L.906,152.178c-.506-.323-1.264-1.267-.715-1.814" transform="translate(0 -130.26)" fill="#fff"/>
        <path id="Trazado_925018" data-name="Trazado 925018" d="M14.613,136.376c.731-.217,1.05.4,1.486.853l-1,1.1c-.772-.237-1.512-1.646-.483-1.951" transform="translate(-12.239 -118.264)" fill="#fff"/>
        <path id="Trazado_925019" data-name="Trazado 925019" d="M261.146,142.257c1.4-.426,1.366,1.466.219,1.952l-1.1-1c-.028-.163.716-.9.88-.95" transform="translate(-225.774 -123.351)" fill="#fff"/>
      </g>
    </g>
  </g>
</svg>
