<svg xmlns="http://www.w3.org/2000/svg" xmlns:xlink="http://www.w3.org/1999/xlink" width="62.504" height="62.504" viewBox="0 0 62.504 62.504">
  <defs>
    <clipPath id="clip-path">
      <rect id="Rectángulo_409194" data-name="Rectángulo 409194" width="32" height="32" fill="#fff"/>
    </clipPath>
  </defs>
  <g id="Grupo_1072170" data-name="Grupo 1072170" transform="translate(-279.484 -1198.614)">
    <g id="Grupo_1072053" data-name="Grupo 1072053" transform="translate(279.484 1198.614)">
      <circle id="Elipse_4742" data-name="Elipse 4742" cx="31.252" cy="31.252" r="31.252" transform="translate(0)" fill="#5001aa"/>
    </g>
    <g id="Grupo_1119450" data-name="Grupo 1119450" transform="translate(295.484 1213.614)">
      <g id="Grupo_1119449" data-name="Grupo 1119449" clip-path="url(#clip-path)">
        <path id="Trazado_925048" data-name="Trazado 925048" d="M95.691,34.628a1.24,1.24,0,0,1-1.634.882c-.24-.079-.418-.387-.57-.416-.183-.034-.475.147-.833.073-.386-.08-.549-.5-.8-.577-.31-.094-.581.037-.959-.166-.292-.157-.421-.551-.479-.584-.181-.1-.617.039-1.022-.167a1.171,1.171,0,0,1-.585-1.041c-.126-1.376-.152-6.375.285-7.482a1.874,1.874,0,0,1,.409-.714,2.62,2.62,0,0,0,.7.547,18.45,18.45,0,0,0,4.678.2,9.62,9.62,0,0,0,1.436-.5,9.413,9.413,0,0,0,.731,1.585c.478.819,2.159,2.589,1.053,3.421-.911.685-1.762.008-2.408-.628Z" transform="translate(-77.628 -21.38)" fill="#fff"/>
        <path id="Trazado_925049" data-name="Trazado 925049" d="M34.628,91.99a1.24,1.24,0,0,1,.882,1.634c-.079.24-.387.418-.416.57-.034.183.147.475.073.833-.08.386-.5.549-.577.8-.094.31.037.581-.166.959-.157.292-.551.421-.584.479-.1.181.039.617-.167,1.022a1.171,1.171,0,0,1-1.041.585c-1.376.126-6.375.152-7.482-.285a1.874,1.874,0,0,1-.714-.409,2.62,2.62,0,0,0,.547-.7,18.45,18.45,0,0,0,.2-4.678,9.62,9.62,0,0,0-.5-1.436,9.414,9.414,0,0,0,1.585-.731c.819-.478,2.59-2.159,3.421-1.053.66.878,0,1.776-.628,2.408Z" transform="translate(-21.38 -78.053)" fill="#fff"/>
        <path id="Trazado_925050" data-name="Trazado 925050" d="M143.281,95.691a1.24,1.24,0,0,1-.882-1.634c.079-.24.387-.418.416-.57.034-.183-.147-.475-.073-.833.08-.386.5-.549.577-.8.094-.31-.037-.581.166-.959.157-.292.551-.421.584-.479.1-.181-.039-.617.167-1.022a1.171,1.171,0,0,1,1.041-.585c1.376-.126,6.375-.152,7.482.285a1.874,1.874,0,0,1,.714.409,2.619,2.619,0,0,0-.547.7,18.449,18.449,0,0,0-.2,4.678,9.62,9.62,0,0,0,.5,1.436,9.413,9.413,0,0,0-1.585.731c-.819.478-2.59,2.159-3.421,1.053-.66-.878,0-1.776.628-2.408Z" transform="translate(-124.529 -77.628)" fill="#fff"/>
        <path id="Trazado_925051" data-name="Trazado 925051" d="M91.99,143.281a1.24,1.24,0,0,1,1.634-.882c.24.079.418.387.57.416.183.034.475-.147.833-.073.386.08.549.5.8.577.31.094.581-.037.959.166.292.157.421.551.479.584.181.1.617-.039,1.022.167a1.171,1.171,0,0,1,.585,1.041c.126,1.376.152,6.375-.285,7.482a1.874,1.874,0,0,1-.409.714,2.619,2.619,0,0,0-.7-.547,18.449,18.449,0,0,0-4.678-.2,9.62,9.62,0,0,0-1.436.5,9.414,9.414,0,0,0-.731-1.585c-.478-.819-2.159-2.59-1.053-3.421.878-.66,1.776,0,2.408.628Z" transform="translate(-78.053 -124.529)" fill="#fff"/>
        <path id="Trazado_925052" data-name="Trazado 925052" d="M114.842,232.311c.5.454.489,2.275-.329,2.531a29.618,29.618,0,0,1-4.44.049c-1.279-.2-1.281-2.484-.2-2.814a26.558,26.558,0,0,1,4.2-.059,1.626,1.626,0,0,1,.771.293" transform="translate(-95.442 -202.95)" fill="#fff"/>
        <path id="Trazado_925053" data-name="Trazado 925053" d="M98.378,2.639c-.5-.454-.489-2.275.329-2.531a29.6,29.6,0,0,1,4.44-.049c1.305.206,1.233,2.5.2,2.814a26.472,26.472,0,0,1-4.2.059,1.626,1.626,0,0,1-.771-.293" transform="translate(-85.778 0)" fill="#fff"/>
        <path id="Trazado_925054" data-name="Trazado 925054" d="M232.31,98.378c.454-.5,2.275-.489,2.531.329a29.616,29.616,0,0,1,.049,4.44c-.206,1.305-2.5,1.233-2.814.2a26.473,26.473,0,0,1-.059-4.2,1.626,1.626,0,0,1,.293-.771" transform="translate(-202.949 -85.778)" fill="#fff"/>
        <path id="Trazado_925055" data-name="Trazado 925055" d="M2.639,114.907c-.454.5-2.275.489-2.531-.329a29.617,29.617,0,0,1-.049-4.44c.206-1.305,2.5-1.233,2.814-.2a26.472,26.472,0,0,1,.059,4.2,1.626,1.626,0,0,1-.293.771" transform="translate(0 -95.506)" fill="#fff"/>
        <path id="Trazado_925056" data-name="Trazado 925056" d="M49.912,48.418v5.691c0,.326.682,1.027.876,1.313H49.037a2.168,2.168,0,0,0-3.09-2.527c-.08.041-.813.711-.661.216a13.287,13.287,0,0,1,1.02-1.607,9.631,9.631,0,0,1,3.606-3.086" transform="translate(-39.603 -42.362)" fill="#fff"/>
        <path id="Trazado_925057" data-name="Trazado 925057" d="M55.422,168.169a2.168,2.168,0,0,0-2.527,3.09c.041.08.711.813.216.661A13.288,13.288,0,0,1,51.5,170.9a9.631,9.631,0,0,1-3.086-3.606h5.691c.326,0,1.027-.682,1.313-.876Z" transform="translate(-42.362 -145.602)" fill="#fff"/>
        <path id="Trazado_925058" data-name="Trazado 925058" d="M168.169,151.418a2.168,2.168,0,0,0,3.09,2.527c.08-.041.813-.711.661-.216a13.288,13.288,0,0,1-1.02,1.607,9.631,9.631,0,0,1-3.606,3.086v-5.691c0-.326-.682-1.027-.876-1.313Z" transform="translate(-145.602 -132.479)" fill="#fff"/>
        <path id="Trazado_925059" data-name="Trazado 925059" d="M158.423,49.912h-5.691c-.326,0-1.027.682-1.313.876V49.037a2.167,2.167,0,0,0,2.527-3.09c-.041-.08-.711-.813-.216-.661a13.288,13.288,0,0,1,1.607,1.02,9.631,9.631,0,0,1,3.086,3.606" transform="translate(-132.479 -39.603)" fill="#fff"/>
        <path id="Trazado_925060" data-name="Trazado 925060" d="M120,117.744c.078.816-.58,1.374-.376,2.252-.816.078-1.374-.58-2.252-.375-.078-.816.58-1.374.375-2.252.816-.078,1.374.58,2.252.375" transform="translate(-102.682 -102.682)" fill="#fff"/>
      </g>
    </g>
  </g>
</svg>
