<svg xmlns="http://www.w3.org/2000/svg" xmlns:xlink="http://www.w3.org/1999/xlink" width="62.504" height="62.504" viewBox="0 0 62.504 62.504">
  <defs>
    <clipPath id="clip-path">
      <rect id="Rect치ngulo_409192" data-name="Rect치ngulo 409192" width="32" height="36.272" fill="#fff"/>
    </clipPath>
  </defs>
  <g id="Grupo_1072168" data-name="Grupo 1072168" transform="translate(-279.484 -1198.614)">
    <g id="Grupo_1072053" data-name="Grupo 1072053" transform="translate(279.484 1198.614)">
      <circle id="Elipse_4742" data-name="Elipse 4742" cx="31.252" cy="31.252" r="31.252" transform="translate(0)" fill="#5001aa"/>
    </g>
    <g id="Grupo_1119446" data-name="Grupo 1119446" transform="translate(295.484 1211.615)">
      <g id="Grupo_1119445" data-name="Grupo 1119445" clip-path="url(#clip-path)">
        <path id="Trazado_925025" data-name="Trazado 925025" d="M14.947,94.279H8.238L0,85,.31,70.106A3.347,3.347,0,0,1,3.7,72.872c.436,2.277.116,5.041.467,7.367a2.4,2.4,0,0,0-.854,2.335C3.525,83.9,7.133,86.83,7.9,88.184c.525.614,1.2.246.844-.512L4.391,82.714a1.3,1.3,0,0,1,1.837-1.726l2.8,3.189c.848.33,1.778.236,2.624.591,3.2,1.341,3.446,6.579,3.3,9.511" transform="translate(0 -62.331)" fill="#fff"/>
        <path id="Trazado_925026" data-name="Trazado 925026" d="M153.519,94.279c-.165-3.172.127-8.8,3.967-9.727a7.64,7.64,0,0,0,2.019-.42l2.732-3.144a1.3,1.3,0,0,1,1.837,1.726l-4.355,4.959c-.361.758.319,1.126.844.512.768-1.354,4.376-4.286,4.591-5.61a2.4,2.4,0,0,0-.854-2.335c.351-2.327.031-5.091.467-7.367a3.347,3.347,0,0,1,3.389-2.766L168.466,85l-8.238,9.282Z" transform="translate(-136.466 -62.331)" fill="#fff"/>
        <path id="Trazado_925027" data-name="Trazado 925027" d="M91.246,142.129l-.883-3.717a5.9,5.9,0,0,0-3.772-3.768c-.4-.108-1.719-.215-1.9-.431a5.479,5.479,0,0,1,2.6-6.075c1.546-.787,6.176-.8,7.731-.039a5.478,5.478,0,0,1,2.668,6.114,9.486,9.486,0,0,1-1.983.457c-3.082.867-4.311,4.579-4.461,7.46" transform="translate(-75.191 -113.398)" fill="#fff"/>
        <rect id="Rect치ngulo_409191" data-name="Rect치ngulo 409191" width="19.626" height="3.327" transform="translate(6.187 32.946)" fill="#fff"/>
        <path id="Trazado_925028" data-name="Trazado 925028" d="M117.968,66.79c-3.117,3.191-8.167-1.263-5.34-4.73,3.152-3.865,8.716,1.274,5.34,4.73" transform="translate(-99.401 -53.953)" fill="#fff"/>
        <path id="Trazado_925029" data-name="Trazado 925029" d="M48.225,123.961c-1.031-.873-1.593-2.245-3.215-2l-.222-3.828.11-.222a4.844,4.844,0,0,1,.944-.276,11.958,11.958,0,0,1,4.345.314,2.926,2.926,0,0,1,.81.63,6.029,6.029,0,0,0-2.771,5.378" transform="translate(-39.822 -104.543)" fill="#fff"/>
        <path id="Trazado_925030" data-name="Trazado 925030" d="M193.8,121.984c-1.622-.25-2.185,1.122-3.215,2a6,6,0,0,0-2.771-5.378,2.926,2.926,0,0,1,.81-.63,11.868,11.868,0,0,1,4.343-.311c.263.026.949.149,1.036.4Z" transform="translate(-166.988 -104.561)" fill="#fff"/>
        <path id="Trazado_925031" data-name="Trazado 925031" d="M199.662,71.2c2.886-.353,3.866,3.8,1.213,4.763-3.534,1.283-4.716-4.334-1.213-4.763" transform="translate(-175.648 -63.286)" fill="#fff"/>
        <path id="Trazado_925032" data-name="Trazado 925032" d="M49.432,71.2a2.48,2.48,0,0,1,1.356,4.685c-3.591,1.581-5.012-4.234-1.356-4.685" transform="translate(-42.051 -63.289)" fill="#fff"/>
        <path id="Trazado_925033" data-name="Trazado 925033" d="M126.369.039c3.053-.513,3.557,4.041.741,4.4-2.92.371-3.446-3.944-.741-4.4" transform="translate(-110.787 0.001)" fill="#fff"/>
        <path id="Trazado_925034" data-name="Trazado 925034" d="M177.164,25.67l-1.1.22a7.943,7.943,0,0,0-3.841-3.763l.175-1a8.586,8.586,0,0,1,4.767,4.545" transform="translate(-153.125 -18.783)" fill="#fff"/>
        <path id="Trazado_925035" data-name="Trazado 925035" d="M72.9,25.885l-1.1-.22a8.621,8.621,0,0,1,4.767-4.545l.176,1A7.943,7.943,0,0,0,72.9,25.885" transform="translate(-63.834 -18.778)" fill="#fff"/>
      </g>
    </g>
  </g>
</svg>
