<svg xmlns="http://www.w3.org/2000/svg" xmlns:xlink="http://www.w3.org/1999/xlink" width="99" height="99" viewBox="0 0 99 99">
  <defs>
    <clipPath id="clip-path">
      <rect id="Rectángulo_401223" data-name="Rectángulo 401223" width="99" height="99" transform="translate(0)" fill="#8ce6fe"/>
    </clipPath>
    <clipPath id="clip-path-2">
      <rect id="Rectángulo_401223-2" data-name="Rectángulo 401223" width="88.539" height="88.539" fill="#f3f9ff"/>
    </clipPath>
    <clipPath id="clip-path-3">
      <path id="Trazado_925328" data-name="Trazado 925328" d="M0,0H60.594V59.284H0Z" transform="translate(0 0)" fill="none"/>
    </clipPath>
  </defs>
  <g id="Grupo_1119265" data-name="Grupo 1119265" transform="translate(-619.921 -5755.871)">
    <g id="Grupo_1100724" data-name="Grupo 1100724" transform="translate(619.921 5755.871)">
      <g id="Grupo_1099654" data-name="Grupo 1099654" transform="translate(0 0)">
        <g id="Grupo_1099652" data-name="Grupo 1099652" clip-path="url(#clip-path)">
          <path id="Trazado_873521" data-name="Trazado 873521" d="M99,77.066A22,22,0,0,1,77.066,99H21.934A22,22,0,0,1,0,77.066V21.933A22,22,0,0,1,21.934,0H77.066A22,22,0,0,1,99,21.934Z" transform="translate(0)" fill="#ffdcd6"/>
        </g>
      </g>
      <g id="Grupo_1099659" data-name="Grupo 1099659" transform="translate(4.77 5.723)">
        <g id="Grupo_1099652-2" data-name="Grupo 1099652" transform="translate(0 0)" clip-path="url(#clip-path-2)">
          <path id="Trazado_873521-2" data-name="Trazado 873521" d="M88.539,68.922A19.674,19.674,0,0,1,68.923,88.539H19.616A19.674,19.674,0,0,1,0,68.922V19.616A19.674,19.674,0,0,1,19.616,0H68.923A19.674,19.674,0,0,1,88.539,19.616Z" fill="#f3f9ff"/>
        </g>
      </g>
    </g>
    <g id="Grupo_1100725" data-name="Grupo 1100725" transform="translate(636.343 5771.293)">
      <rect id="Rectángulo_401104" data-name="Rectángulo 401104" width="68" height="69" transform="translate(0.29 -2.115)" fill="none"/>
      <g id="Grupo_1119543" data-name="Grupo 1119543" transform="translate(3.993 7.601)">
        <g id="Enmascarar_grupo_1119112" data-name="Enmascarar grupo 1119112" clip-path="url(#clip-path-3)">
          <path id="Trazado_925316" data-name="Trazado 925316" d="M20.164,0a2.5,2.5,0,0,1,2.521,2.521,2.521,2.521,0,0,1-5.042,0A2.5,2.5,0,0,1,20.164,0" fill="#fcdf8e"/>
          <path id="Trazado_925317" data-name="Trazado 925317" d="M10.082,0A3.832,3.832,0,1,1,6.25,3.832,3.832,3.832,0,0,1,10.082,0" fill="#ffd8a8"/>
          <path id="Trazado_925318" data-name="Trazado 925318" d="M30.246,5.041a3.832,3.832,0,1,1-3.831,3.832,3.831,3.831,0,0,1,3.831-3.832" fill="#ffd8a8"/>
          <path id="Trazado_925319" data-name="Trazado 925319" d="M50.41,0a3.832,3.832,0,1,1-3.831,3.832A3.832,3.832,0,0,1,50.41,0" fill="#ffd8a8"/>
          <path id="Trazado_925320" data-name="Trazado 925320" d="M56.763,11.695v5.949h-12.6V11.695a4.153,4.153,0,0,1,4.134-4.134H52.73a4.133,4.133,0,0,1,4.033,4.134" fill="#6b4502"/>
          <path id="Trazado_925321" data-name="Trazado 925321" d="M36.6,16.736v5.949H24V16.736A4.152,4.152,0,0,1,28.129,12.6h4.437A4.131,4.131,0,0,1,36.6,16.736" fill="#953c2d"/>
          <path id="Trazado_925322" data-name="Trazado 925322" d="M16.434,11.695v5.949H3.831V11.695A4.153,4.153,0,0,1,7.965,7.561H12.4a4.133,4.133,0,0,1,4.033,4.134" fill="#eebc32"/>
          <path id="Trazado_925323" data-name="Trazado 925323" d="M40.328,29.037a75.421,75.421,0,0,1-.907,12,66.818,66.818,0,0,1-9.175.6,66.818,66.818,0,0,1-9.175-.6,73.629,73.629,0,0,1-.907-12H1.31a29.037,29.037,0,1,0,58.074,0Z" fill="#8ce6fe"/>
          <path id="Trazado_925324" data-name="Trazado 925324" d="M21.071,40.934c1.613,10.082,5.142,17.039,9.175,17.039A29.046,29.046,0,0,1,1.209,28.936c.1,5.646,8.368,10.385,19.862,12" fill="#07c3f3"/>
          <path id="Trazado_925325" data-name="Trazado 925325" d="M59.283,29.037A29.045,29.045,0,0,1,30.246,58.074c4.134,0,7.561-6.957,9.175-17.039,11.494-1.714,19.862-6.453,19.862-12" fill="#07c3f3"/>
          <rect id="Rectángulo_409248" data-name="Rectángulo 409248" width="2.521" height="2.52" transform="translate(40.328 2.521)" fill="#fcdf8e"/>
          <path id="Trazado_925329" data-name="Trazado 925329" d="M0,0H2.521V2.52H0Z" transform="translate(37.808 5.041)" fill="#fcdf8e"/>
          <rect id="Rectángulo_409250" data-name="Rectángulo 409250" width="2.521" height="2.52" transform="translate(37.808 0)" fill="#fcdf8e"/>
          <rect id="Rectángulo_409251" data-name="Rectángulo 409251" width="2.521" height="2.52" transform="translate(35.287 2.521)" fill="#fcdf8e"/>
          <rect id="Rectángulo_409252" data-name="Rectángulo 409252" width="2.521" height="2.52" transform="translate(29.036 27.726)" fill="#469be0"/>
          <path id="Trazado_925326" data-name="Trazado 925326" d="M30.246,59.284a1.335,1.335,0,0,1-1.311-1.311V32.767a1.311,1.311,0,0,1,2.622,0V57.973a1.335,1.335,0,0,1-1.311,1.311" fill="#469be0"/>
        </g>
      </g>
    </g>
  </g>
</svg>
