<svg xmlns="http://www.w3.org/2000/svg" xmlns:xlink="http://www.w3.org/1999/xlink" width="99" height="99" viewBox="0 0 99 99">
  <defs>
    <clipPath id="clip-path">
      <rect id="Rectángulo_401223" data-name="Rectángulo 401223" width="99" height="99" transform="translate(0)" fill="#8ce6fe"/>
    </clipPath>
    <clipPath id="clip-path-2">
      <rect id="Rectángulo_401223-2" data-name="Rectángulo 401223" width="88.539" height="88.539" fill="#f3f9ff"/>
    </clipPath>
    <clipPath id="clip-path-3">
      <rect id="Rectángulo_408916" data-name="Rectángulo 408916" width="68.249" height="73.115" transform="translate(0 0.49)" fill="none"/>
    </clipPath>
    <clipPath id="clip-path-4">
      <rect id="Rectángulo_409277" data-name="Rectángulo 409277" width="56.643" height="64.5" fill="none"/>
    </clipPath>
    <clipPath id="clip-path-6">
      <rect id="Rectángulo_409269" data-name="Rectángulo 409269" width="11.412" height="9.418" fill="none"/>
    </clipPath>
    <clipPath id="clip-path-7">
      <rect id="Rectángulo_409270" data-name="Rectángulo 409270" width="11.413" height="9.418" fill="none"/>
    </clipPath>
  </defs>
  <g id="Grupo_1118903" data-name="Grupo 1118903" transform="translate(-619.921 -5755.871)">
    <g id="Grupo_1100724" data-name="Grupo 1100724" transform="translate(619.921 5755.871)">
      <g id="Grupo_1099654" data-name="Grupo 1099654" transform="translate(0 0)">
        <g id="Grupo_1099652" data-name="Grupo 1099652" clip-path="url(#clip-path)">
          <path id="Trazado_873521" data-name="Trazado 873521" d="M99,77.066A22,22,0,0,1,77.066,99H21.934A22,22,0,0,1,0,77.066V21.933A22,22,0,0,1,21.934,0H77.066A22,22,0,0,1,99,21.934Z" transform="translate(0)" fill="#ffdcd6"/>
        </g>
      </g>
      <g id="Grupo_1099659" data-name="Grupo 1099659" transform="translate(4.77 5.723)">
        <g id="Grupo_1099652-2" data-name="Grupo 1099652" transform="translate(0 0)" clip-path="url(#clip-path-2)">
          <path id="Trazado_873521-2" data-name="Trazado 873521" d="M88.539,68.922A19.674,19.674,0,0,1,68.923,88.539H19.616A19.674,19.674,0,0,1,0,68.922V19.616A19.674,19.674,0,0,1,19.616,0H68.923A19.674,19.674,0,0,1,88.539,19.616Z" fill="#f3f9ff"/>
        </g>
      </g>
    </g>
    <g id="Grupo_1100725" data-name="Grupo 1100725" transform="translate(636.343 5771.293)">
      <rect id="Rectángulo_401104" data-name="Rectángulo 401104" width="68" height="69" transform="translate(0.29 -2.115)" fill="none"/>
      <g id="Grupo_1119010" data-name="Grupo 1119010" transform="translate(0.29 -4.115)">
        <g id="Grupo_1119009" data-name="Grupo 1119009" clip-path="url(#clip-path-3)">
          <g id="Grupo_1119559" data-name="Grupo 1119559" transform="translate(6 4.49)">
            <g id="Grupo_1119558" data-name="Grupo 1119558" clip-path="url(#clip-path-4)">
              <rect id="Rectángulo_409260" data-name="Rectángulo 409260" width="11.412" height="9.419" transform="translate(25.065 50.606)" fill="#9a845a"/>
              <g id="Grupo_1119557" data-name="Grupo 1119557" transform="translate(0 0)">
                <g id="Grupo_1119556" data-name="Grupo 1119556" clip-path="url(#clip-path-4)">
                  <path id="Trazado_925344" data-name="Trazado 925344" d="M40.313,66.773a3.205,3.205,0,1,1-3.206-3.2,3.205,3.205,0,0,1,3.206,3.2" transform="translate(-6.158 -11.546)" fill="#c3d9ff"/>
                  <rect id="Rectángulo_409261" data-name="Rectángulo 409261" width="1.025" height="4.161" transform="translate(30.395 53.147)" fill="#329fff"/>
                  <rect id="Rectángulo_409262" data-name="Rectángulo 409262" width="4.158" height="1.026" transform="translate(28.829 54.714)" fill="#329fff"/>
                  <rect id="Rectángulo_409263" data-name="Rectángulo 409263" width="11.412" height="9.419" transform="translate(36.614 50.606)" fill="#9a845a"/>
                  <path id="Trazado_925345" data-name="Trazado 925345" d="M54.425,66.773a3.205,3.205,0,1,1-3.2-3.2,3.2,3.2,0,0,1,3.2,3.2" transform="translate(-8.721 -11.546)" fill="#c3d9ff"/>
                  <rect id="Rectángulo_409264" data-name="Rectángulo 409264" width="1.025" height="4.161" transform="translate(41.944 53.147)" fill="#329fff"/>
                  <rect id="Rectángulo_409265" data-name="Rectángulo 409265" width="4.158" height="1.026" transform="translate(40.378 54.714)" fill="#329fff"/>
                  <rect id="Rectángulo_409266" data-name="Rectángulo 409266" width="11.412" height="9.419" transform="translate(30.908 41.188)" fill="#9a845a"/>
                  <path id="Trazado_925346" data-name="Trazado 925346" d="M47.452,55.264a3.205,3.205,0,1,1-3.2-3.2,3.2,3.2,0,0,1,3.2,3.2" transform="translate(-7.454 -9.455)" fill="#c3d9ff"/>
                  <rect id="Rectángulo_409267" data-name="Rectángulo 409267" width="1.025" height="4.161" transform="translate(36.238 43.728)" fill="#329fff"/>
                  <rect id="Rectángulo_409268" data-name="Rectángulo 409268" width="4.158" height="1.026" transform="translate(34.672 45.296)" fill="#329fff"/>
                  <g id="Grupo_1119549" data-name="Grupo 1119549" transform="translate(30.908 41.188)" style="mix-blend-mode: multiply;isolation: isolate">
                    <g id="Grupo_1119548" data-name="Grupo 1119548">
                      <g id="Grupo_1119547" data-name="Grupo 1119547" clip-path="url(#clip-path-6)">
                        <path id="Trazado_925347" data-name="Trazado 925347" d="M37.767,50.329v9.419H49.18v-.5l-10.319-.342Z" transform="translate(-37.767 -50.329)" fill="#d2d9d7"/>
                      </g>
                    </g>
                  </g>
                  <g id="Grupo_1119552" data-name="Grupo 1119552" transform="translate(25.065 50.606)" style="mix-blend-mode: multiply;isolation: isolate">
                    <g id="Grupo_1119551" data-name="Grupo 1119551">
                      <g id="Grupo_1119550" data-name="Grupo 1119550" clip-path="url(#clip-path-7)">
                        <path id="Trazado_925348" data-name="Trazado 925348" d="M30.628,61.838v9.419H42.04v-.5l-10.319-.342Z" transform="translate(-30.628 -61.838)" fill="#d2d9d7"/>
                      </g>
                    </g>
                  </g>
                  <g id="Grupo_1119555" data-name="Grupo 1119555" transform="translate(36.614 50.606)" style="mix-blend-mode: multiply;isolation: isolate">
                    <g id="Grupo_1119554" data-name="Grupo 1119554">
                      <g id="Grupo_1119553" data-name="Grupo 1119553" clip-path="url(#clip-path-7)">
                        <path id="Trazado_925349" data-name="Trazado 925349" d="M44.74,61.838v9.419H56.152v-.5l-10.319-.342Z" transform="translate(-44.74 -61.838)" fill="#d2d9d7"/>
                      </g>
                    </g>
                  </g>
                  <path id="Trazado_925350" data-name="Trazado 925350" d="M61.493,2.433S62.485.846,63.7,1.7a2.754,2.754,0,0,1,.7,3.454A8.707,8.707,0,0,0,63.215,8.57c.19.031-.032.5-.462.448a1.464,1.464,0,0,1-1.288-1.87,4.279,4.279,0,0,0-.03-2.391Z" transform="translate(-11.152 -0.263)" fill="#8d3b26"/>
                  <path id="Trazado_925351" data-name="Trazado 925351" d="M59.55,72.5a.7.7,0,0,1,.412.585c.014.32.046,2.326.046,2.326a2.986,2.986,0,0,0-.933.592c-.415.372-.793,1.18-1.352,1.411a2.871,2.871,0,0,1-1.787.178c-.253-.106-.164-.673.2-1.256.552-.882,1.218-1.949,1.218-1.949Z" transform="translate(-10.133 -13.168)" fill="#8d3b26"/>
                  <path id="Trazado_925352" data-name="Trazado 925352" d="M57.868,72a8.42,8.42,0,0,1-.2,1.192,14.711,14.711,0,0,1-.789,2.383c-.26.509-.215.882.588.647s2.079-2.295,2.32-3.162A2.181,2.181,0,0,0,59.609,72c-.114-.594-1.741,0-1.741,0" transform="translate(-10.304 -13.028)" fill="#ffbd95"/>
                  <path id="Trazado_925353" data-name="Trazado 925353" d="M67.326,74.3a2.892,2.892,0,0,1,.416,1.2c-.011.507-.348,1.708-.737,1.763s-1.193-.758-1.3-.894a5.633,5.633,0,0,1-.769-2.639Z" transform="translate(-11.793 -13.393)" fill="#8d3b26"/>
                  <path id="Trazado_925354" data-name="Trazado 925354" d="M66.651,71.832s.745,2.213.751,2.478-.254,1.286-.626,1.3c-1.043.027-1.895-1.78-1.86-2.413s.059-1.318.059-1.318Z" transform="translate(-11.79 -13.047)" fill="#ffbd95"/>
                  <path id="Trazado_925355" data-name="Trazado 925355" d="M53.032,13.44c-.846-.167-2.332,1.9-2.821,4.7-.849,4.872-1.489,6.761-.018,7.192,1.336.392,2.128-1.018,3.411-5.067,1-3.166,1.181-6.484-.572-6.829" transform="translate(-8.957 -2.44)" fill="#b30000"/>
                  <path id="Trazado_925356" data-name="Trazado 925356" d="M54.512,33.566a5.435,5.435,0,0,0-.572,2.581c.41,1.589,5.1,2.937,5.1,2.937h.31V33.93c-1.809,0-3.034-.364-4.842-.364" transform="translate(-9.79 -6.097)" fill="#27547c"/>
                  <path id="Trazado_925357" data-name="Trazado 925357" d="M54.109,35.276c-.6,1.094-.572,3.064-.274,5.626.407,3.494,1.553,9.058,1.695,9.554.647,2.263,2.877,2.168,3.218.37.094-.5.856-10.536.732-11.651a12.1,12.1,0,0,0-1.539-4.4,2.445,2.445,0,0,0-3.831.5" transform="translate(-9.74 -6.187)" fill="#27547c"/>
                  <path id="Trazado_925358" data-name="Trazado 925358" d="M59.686,56.28c-.093-3.471-1.054-4.153-2.295-4.153-1.985,0-1.654,3.708-1.624,4.835.03,1.1,1.532,10.05,1.918,11.473h1.74c.229-2.429.336-9.311.26-12.155" transform="translate(-10.122 -9.468)" fill="#27547c"/>
                  <path id="Trazado_925359" data-name="Trazado 925359" d="M65.046,14.006c-.32-.722-1.977-1.041-2.737-1.268a20.159,20.159,0,0,0-3.069-.31s-3.629.363-4.414.334c-.332-.012-.577,1.184-.705,1.525-.718,1.915-1.572,4.144.228,5.7.41.355.769,4.4.769,6.269a10.035,10.035,0,0,1-.719,3.472c1.809,0,3.034.364,4.842.364h5.427a30.775,30.775,0,0,1-1.3-3.837C62.309,20.494,65.53,15.1,65.046,14.006" transform="translate(-9.676 -2.258)" fill="#cee0ff"/>
                  <path id="Trazado_925360" data-name="Trazado 925360" d="M65.947,68.257c.115-1.14-.27-10.228-.466-11.339s-.394-5.263-3.207-4.681c-1.214.25-1.527,1.042-.921,4.465.493,2.784,2.093,9.379,2.86,11.743a7.309,7.309,0,0,0,1.734-.187" transform="translate(-11.088 -9.478)" fill="#002d56"/>
                  <path id="Trazado_925361" data-name="Trazado 925361" d="M60.564,34.01v5.154h.31s5.278-.984,5.689-2.573a5.445,5.445,0,0,0-.572-2.581Z" transform="translate(-11 -6.177)" fill="#27547c"/>
                  <path id="Trazado_925362" data-name="Trazado 925362" d="M66.517,35.81c.573,1.109.5,3.077.135,5.632a92.216,92.216,0,0,1-1.946,9.086c-.7,2.246-3.359,2.048-3.655.241-.082-.5-.24-10.449-.088-11.561s.326-3.156,1.162-4.375c.623-.908,3.539-.676,4.392.977" transform="translate(-11.061 -6.231)" fill="#27547c"/>
                  <path id="Trazado_925363" data-name="Trazado 925363" d="M61.542,10.349a14.472,14.472,0,0,1-.21-2.883h-2.9a14.458,14.458,0,0,1-.209,2.883,5.442,5.442,0,0,1-1.411,1.488h6.139a5.442,5.442,0,0,1-1.411-1.488" transform="translate(-10.319 -1.356)" fill="#ffbd95"/>
                  <path id="Trazado_925364" data-name="Trazado 925364" d="M61.347,8.593c-.02-.608-.015-1.127-.015-1.127h-2.9a14.458,14.458,0,0,1-.209,2.883,5.467,5.467,0,0,1-1.411,1.488l4.533-3.242Z" transform="translate(-10.319 -1.356)" fill="#ffa47c"/>
                  <path id="Trazado_925365" data-name="Trazado 925365" d="M61.935,4.829c-.57,2.2-2.922,3.5-4.048,3.213-1.1-.283-2.114-2.469-1.749-4.749C56.5,1.045,58.2-.042,59.863.388S62.5,2.624,61.935,4.829" transform="translate(-10.182 -0.054)" fill="#ffbd95"/>
                  <path id="Trazado_925366" data-name="Trazado 925366" d="M58.4,1.725c.186.651.77,1.089,2.122,1.329.968.172,1.469,1.584,1.407,2.119-.024.2-.352,1.169-.352,1.169a3.471,3.471,0,0,0,.653-4.576C60.593-.992,58.159.253,58.121.451A5.663,5.663,0,0,0,58.4,1.725" transform="translate(-10.555 0)" fill="#8d3b26"/>
                  <path id="Trazado_925367" data-name="Trazado 925367" d="M58.634,1.344s-.088.939-.905,1.051a4.427,4.427,0,0,0-1.651.7s.056-2.24,1.674-2.56.883.8.883.8" transform="translate(-10.185 -0.088)" fill="#8d3b26"/>
                  <path id="Trazado_925368" data-name="Trazado 925368" d="M60.775,21.262c-.481-.225-1.534-.128-4.016-.257s-2.827-1.381-3.194-1.927c-.357-.53-.021-2.313,0-2.413-.428,1.467-.527,2.958.785,4.09.41.355.769,4.4.769,6.269A10.035,10.035,0,0,1,54.4,30.5a25.488,25.488,0,0,1,3.034.253s-.159-1.362-.319-2.06a7.684,7.684,0,0,1,.593-3.895c.593-1.156,3.26-2.056,3.55-2.44s0-.867-.481-1.093" transform="translate(-9.676 -3.027)" fill="#b8d1ff"/>
                  <path id="Trazado_925369" data-name="Trazado 925369" d="M61.919,52.157c-.085-1.195.088-6.52-.04-9.442-.095-2.156-.636-2.444-.913-2.447l0,.023c-.142,1.038-.013,9.766.071,11.336a13.556,13.556,0,0,0,.291,2.911c.493,2.784,2.093,9.379,2.86,11.742.144,0,.649.013.842,0l.4-.085S63.8,58.63,62.843,54.919a18.544,18.544,0,0,1-.924-2.762" transform="translate(-11.061 -7.314)" fill="#002d56"/>
                  <path id="Trazado_925370" data-name="Trazado 925370" d="M54.772,36.931c-.093-1.423,1.71-2.694,2.527-3.134-1.146-.073-2.842-.232-2.842-.232-1.121,1.668-.925,4.684-.627,7.247.4,3.446,1.521,8.9,1.687,9.521a13.355,13.355,0,0,0-.135,3.258c.03,1.1,1.532,10.05,1.917,11.473L56.164,50.946S54.9,38.894,54.772,36.931" transform="translate(-9.735 -6.096)" fill="#002d56"/>
                  <path id="Trazado_925371" data-name="Trazado 925371" d="M56.291,12.417s-1.912,4.757-1.868,5.635.471,6.532.458,8.544a28.426,28.426,0,0,1-.235,4.822c-.178.223-2.111.237-2.111.015s-.61-2.423-.119-3.137-.689-2.752-.069-3.643c.7-1.01-.585-3.151-.08-4.08.4-.731-.535-2.292-.119-3.247.584-1.341-.045-2.844.312-3.407a4.646,4.646,0,0,1,3.83-1.5" transform="translate(-9.452 -2.246)" fill="#b30000"/>
                  <path id="Trazado_925372" data-name="Trazado 925372" d="M63.238,12.417s-2.74,4.776-2.74,5.947,2.039,13.514,2.593,13.514a10.132,10.132,0,0,0,3.382-.833c.325-.356.146-3.032-.448-3.33s.281-2.224-.2-3.028.264-2.639-.34-3.644,1.094-2.741.535-3.39.588-3.494.384-3.911-2.031-1.635-3.17-1.325" transform="translate(-10.988 -2.246)" fill="#b30000"/>
                  <path id="Trazado_925373" data-name="Trazado 925373" d="M50.885,26.162c.384-.691-.227-2.16-1.823-2.808-1.264-.514-2.575-1.4-3.467-1.2-.406.088-.841,1.025-.941,1.219-.437.853,1.09,1.34,2.576,2.669,1.507,1.346,2.859,1.552,3.655.121" transform="translate(-8.096 -4.019)" fill="#b30000"/>
                  <rect id="Rectángulo_409272" data-name="Rectángulo 409272" width="0.768" height="1.506" transform="translate(43.555 13.532) rotate(-82.222)" fill="#cee0ff"/>
                  <path id="Trazado_925374" data-name="Trazado 925374" d="M66.635,13.5c1.138.412,2.147,2,.259,6.1-2.069,4.491-2.187,6.2-3.649,5.743-1.327-.417-1.313-2.224-.128-6.3.926-3.189,1.838-6.148,3.518-5.539" transform="translate(-11.304 -2.438)" fill="#db0000"/>
                  <path id="Trazado_925375" data-name="Trazado 925375" d="M67.442,19.785c-.2-.062-.153-.768.1-1.576s.621-1.413.819-1.351.152.768-.1,1.576-.621,1.413-.819,1.351" transform="translate(-12.226 -3.061)" fill="#cee0ff"/>
                  <path id="Trazado_925376" data-name="Trazado 925376" d="M55.981,6.28l1.2-.1,3.49.366-.219,2.1-2.49,1.074-1.244-1.1Z" transform="translate(-10.167 -1.123)" fill="#cee0ff"/>
                  <path id="Trazado_925377" data-name="Trazado 925377" d="M57.177,6.182l.781,3.539-1.245-1.1L55.981,6.28Z" transform="translate(-10.167 -1.123)" fill="#b8d1ff"/>
                  <path id="Trazado_925378" data-name="Trazado 925378" d="M61.694,6.213a4.585,4.585,0,0,0,.927-.61,8.78,8.78,0,0,0,.833-1.269,5.912,5.912,0,0,1-.662,1.635,11.6,11.6,0,0,1-1.154.78Z" transform="translate(-11.195 -0.787)" fill="#b8d1ff"/>
                  <path id="Trazado_925379" data-name="Trazado 925379" d="M61.438,8.552A11.509,11.509,0,0,0,62.7,7.271c.134-.268.622-1.611.622-1.611a13.343,13.343,0,0,1-.83,1.5c-.17.159-1,.891-1,.891Z" transform="translate(-11.158 -1.028)" fill="#b8d1ff"/>
                  <rect id="Rectángulo_409273" data-name="Rectángulo 409273" width="11.412" height="9.419" transform="translate(33.892 10.087)" fill="#b79a77"/>
                  <path id="Trazado_925380" data-name="Trazado 925380" d="M54.019,24.564s-.184-1.2-.95-1.353a3.033,3.033,0,0,0-1.77.464c-.872.311-1.893-.283-2.447-.188s-.558.445-.354.478c1.147.182,1.791.65,2.307.666s2.723.434,2.723.434Z" transform="translate(-8.786 -4.211)" fill="#cee0ff"/>
                  <path id="Trazado_925381" data-name="Trazado 925381" d="M54.331,23.726a2.7,2.7,0,0,0-.989-.871c-.486-.159-1.05.214-1.474.137s-.309.168-.274.234a4.788,4.788,0,0,0,.788.232c.231.076,1.083.876,1.949.268" transform="translate(-9.363 -4.144)" fill="#cee0ff"/>
                  <path id="Trazado_925382" data-name="Trazado 925382" d="M63.376,26.035c.044-.768-1.854-1.883-3.968-2.084-2.438-.232-4.627-.8-4.637-.117,0,.309-.4,1.453-.01,1.732.79.57,2.408.7,4,1.3,2.4.9,4.526.76,4.617-.83" transform="translate(-9.915 -4.27)" fill="#db0000"/>
                  <path id="Trazado_925383" data-name="Trazado 925383" d="M51.1,17.262a3.205,3.205,0,1,1-3.2-3.2,3.2,3.2,0,0,1,3.2,3.2" transform="translate(-8.116 -2.553)" fill="#cee0ff"/>
                  <rect id="Rectángulo_409274" data-name="Rectángulo 409274" width="1.025" height="4.161" transform="translate(39.222 12.628)" fill="#329fff"/>
                  <rect id="Rectángulo_409275" data-name="Rectángulo 409275" width="4.158" height="1.026" transform="translate(37.657 14.196)" fill="#329fff"/>
                  <path id="Trazado_925384" data-name="Trazado 925384" d="M35.377,25.43s2.253.71,2.332.821,3.984-1.44,3.8-1.606a1.531,1.531,0,0,0-1.289-.049c-.606.178-3.046-1.045-4.152-.805s-.691,1.639-.691,1.639" transform="translate(-6.411 -4.316)" fill="#d17345"/>
                  <path id="Trazado_925385" data-name="Trazado 925385" d="M1.049,71.587A6.012,6.012,0,0,0,.034,73.333a5.1,5.1,0,0,0,.037,1.373l2.217.748.178-.234a18.021,18.021,0,0,0,2.814,1.111,16.587,16.587,0,0,0,3.506-.348,5.087,5.087,0,0,0-.173-1.091c-.507-.663-1.918-.246-2.559-.6A6.294,6.294,0,0,1,4.6,72.6Z" transform="translate(0 -13.002)"/>
                  <path id="Trazado_925386" data-name="Trazado 925386" d="M13.031,35.581S6.7,32.418,5.967,33.273a7.042,7.042,0,0,0-1.06,5.061c.136,1.4-.209,9.875-.99,12.461C2.955,53.985.709,64.889.709,64.889L5.04,65.9S7.806,55.7,8.554,53.724c.128-.339.653-2.124.83-2.44a21.359,21.359,0,0,0,1.084-3.612Z" transform="translate(-0.129 -6.017)" fill="#00233f"/>
                  <path id="Trazado_925387" data-name="Trazado 925387" d="M13.023,13.339a2.321,2.321,0,0,0-.813,2.014c.5,2.031,9.33,6.893,10.294,6.909s2.061-1.627,1.035-2.466c-2.785-2.278-8.421-7.59-10.516-6.457" transform="translate(-2.21 -2.395)" fill="#d17345"/>
                  <path id="Trazado_925388" data-name="Trazado 925388" d="M24.036,21.8s-.885.9-.434,1.586c.852,1.286,10.126,1.983,11.066,1.762s1.05-1.229-.1-1.568c-3.109-.912-8.921-2.722-10.533-1.78" transform="translate(-4.263 -3.911)" fill="#d17345"/>
                  <path id="Trazado_925389" data-name="Trazado 925389" d="M13.349,73.531a6.061,6.061,0,0,0-.592,1.935,5.075,5.075,0,0,0,.353,1.328l2.327.224.119-.271s2.206.381,3,.439c.988.074,3.292.126,3.654-.315a2.847,2.847,0,0,0-.418-1.324c-.645-.528-2.2-.388-2.9-.586a6.814,6.814,0,0,1-1.852-1.252Z" transform="translate(-2.317 -13.355)" fill="#191919"/>
                  <path id="Trazado_925390" data-name="Trazado 925390" d="M14.1,33.836S7.663,32.041,7.042,33a6.44,6.44,0,0,0-.829,4.789c.225,1.4,4.772,9.652,4.471,12.312s.457,16.418.457,16.418l5.412.089-.229-14.964s.141-1.217.152-1.614a18.731,18.731,0,0,0-.487-2.967Z" transform="translate(-1.106 -5.942)" fill="#002d56"/>
                  <path id="Trazado_925391" data-name="Trazado 925391" d="M16.176,14.007a8.241,8.241,0,0,1-2.088-.282,6.734,6.734,0,0,1-1.921-1.16,19.989,19.989,0,0,1,1.642-3.5c.541-.809,3.248.815,3.216,1.146s-1.061,2.734-.849,3.8" transform="translate(-2.21 -1.605)" fill="#dd885b"/>
                  <path id="Trazado_925392" data-name="Trazado 925392" d="M15.216,13.444c-.843.272-3.625-.708-3.9-1.036s-2.1,1.482-2.593,3.63c-.442,1.924-.529,5.518-1.1,10.007A25.914,25.914,0,0,1,6.39,30.229s.425.827,2.5,1.423a30.155,30.155,0,0,0,5.791.421s-.842-2.753.717-8.28a20.848,20.848,0,0,0,1.1-6.273,8.358,8.358,0,0,0-1.282-4.076" transform="translate(-1.161 -2.247)" fill="#232d29"/>
                  <path id="Trazado_925393" data-name="Trazado 925393" d="M13.087,2.693C14.533.8,17.35,1.319,18.055,2.486a2.565,2.565,0,0,1,.5,2.149c.237,1.263.557,1.746.458,2.089-.037.128-.517.118-.517.118s-.013.921-.016,1.654c0,.393-1.03.43-1.967.576a3.934,3.934,0,0,1-2.428-.587,4.92,4.92,0,0,1-1.3-2.4,4.181,4.181,0,0,1,.309-3.39" transform="translate(-2.287 -0.262)" fill="#dd885b"/>
                  <path id="Trazado_925394" data-name="Trazado 925394" d="M18.015,2.612a2.131,2.131,0,0,0-.094-.828C17.51,1.01,15.874.475,14.281.534c-2.024.074-2.749,2.88-2.712,4.066.04,1.362,1.25,2.517,1.516,3.646.148.623.956-.569.956-.569l.313-1.615s-.394-1.828.663-1.557c.755.2.538,1.372.538,1.372l.365-.053a5.992,5.992,0,0,1,.345-1.832,9.975,9.975,0,0,1,1.751-1.381" transform="translate(-2.101 -0.097)" fill="#563b26"/>
                  <path id="Trazado_925395" data-name="Trazado 925395" d="M16.7,7A1.75,1.75,0,0,0,17.9,8.9a4.189,4.189,0,0,0,1.168.03,7.229,7.229,0,0,1-.015,1.515c-.1.422-2.44.256-3.011-.328s.286-3.067.286-3.067Z" transform="translate(-2.879 -1.272)" fill="#563b26"/>
                  <path id="Trazado_925396" data-name="Trazado 925396" d="M11.341,14.712s-1.152.84-1.022,1.894c.244,1.978,8.176,7.1,9.1,7.166s2.18-1.459,1.291-2.318c-2.415-2.331-7.219-7.724-9.373-6.742" transform="translate(-1.872 -2.651)" fill="#dd885b"/>
                  <path id="Trazado_925397" data-name="Trazado 925397" d="M21.049,23.315s-.783.991-.259,1.624c.985,1.187,10.28.877,11.191.556s.911-1.335-.268-1.548c-3.188-.57-9.163-1.742-10.663-.632" transform="translate(-3.743 -4.151)" fill="#dd885b"/>
                  <path id="Trazado_925398" data-name="Trazado 925398" d="M33.43,25.849s2.3.84,2.378.955,4.261-1.206,4.08-1.383a1.658,1.658,0,0,0-1.342-.124c-.645.142-3.109-1.221-4.28-1.045s-.836,1.6-.836,1.6" transform="translate(-6.064 -4.402)" fill="#dd885b"/>
                  <path id="Trazado_925399" data-name="Trazado 925399" d="M18.1,9.041s.476-.615.786-.714.6-.228.6-.228l.131.374a4.332,4.332,0,0,0-.634.114,2.706,2.706,0,0,0-.781.619Z" transform="translate(-3.288 -1.471)" fill="#563b26"/>
                </g>
              </g>
            </g>
          </g>
        </g>
      </g>
    </g>
  </g>
</svg>
