<svg xmlns="http://www.w3.org/2000/svg" xmlns:xlink="http://www.w3.org/1999/xlink" width="99" height="99" viewBox="0 0 99 99">
  <defs>
    <clipPath id="clip-path">
      <rect id="Rectángulo_401223" data-name="Rectángulo 401223" width="99" height="99" transform="translate(0)" fill="#8ce6fe"/>
    </clipPath>
    <clipPath id="clip-path-2">
      <rect id="Rectángulo_401223-2" data-name="Rectángulo 401223" width="88.539" height="88.539" fill="#f3f9ff"/>
    </clipPath>
    <clipPath id="clip-path-3">
      <rect id="Rectángulo_409259" data-name="Rectángulo 409259" width="64.297" height="62.8" fill="none"/>
    </clipPath>
  </defs>
  <g id="Grupo_1119264" data-name="Grupo 1119264" transform="translate(-619.921 -5755.871)">
    <g id="Grupo_1100724" data-name="Grupo 1100724" transform="translate(619.921 5755.871)">
      <g id="Grupo_1099654" data-name="Grupo 1099654" transform="translate(0 0)">
        <g id="Grupo_1099652" data-name="Grupo 1099652" clip-path="url(#clip-path)">
          <path id="Trazado_873521" data-name="Trazado 873521" d="M99,77.066A22,22,0,0,1,77.066,99H21.934A22,22,0,0,1,0,77.066V21.933A22,22,0,0,1,21.934,0H77.066A22,22,0,0,1,99,21.934Z" transform="translate(0)" fill="#ffdcd6"/>
        </g>
      </g>
      <g id="Grupo_1099659" data-name="Grupo 1099659" transform="translate(4.77 5.723)">
        <g id="Grupo_1099652-2" data-name="Grupo 1099652" transform="translate(0 0)" clip-path="url(#clip-path-2)">
          <path id="Trazado_873521-2" data-name="Trazado 873521" d="M88.539,68.922A19.674,19.674,0,0,1,68.923,88.539H19.616A19.674,19.674,0,0,1,0,68.922V19.616A19.674,19.674,0,0,1,19.616,0H68.923A19.674,19.674,0,0,1,88.539,19.616Z" fill="#f3f9ff"/>
        </g>
      </g>
    </g>
    <g id="Grupo_1100725" data-name="Grupo 1100725" transform="translate(636.343 5771.293)">
      <rect id="Rectángulo_401104" data-name="Rectángulo 401104" width="68" height="69" transform="translate(0.29 -1.625)" fill="none"/>
      <g id="Grupo_1119546" data-name="Grupo 1119546" transform="translate(2.29 1.375)">
        <rect id="Rectángulo_409253" data-name="Rectángulo 409253" width="8.024" height="5.349" transform="translate(13.372 56.166)" fill="#462d01"/>
        <rect id="Rectángulo_409254" data-name="Rectángulo 409254" width="8.024" height="5.349" transform="translate(42.793 56.166)" fill="#462d01"/>
        <g id="Grupo_1119545" data-name="Grupo 1119545" transform="translate(0 0)">
          <g id="Grupo_1119544" data-name="Grupo 1119544" clip-path="url(#clip-path-3)">
            <path id="Trazado_925330" data-name="Trazado 925330" d="M62.906,59.343H1.39a1.391,1.391,0,0,1,0-2.781H62.906a1.416,1.416,0,0,1,1.391,1.39,1.489,1.489,0,0,1-1.391,1.391" transform="translate(0 3.457)" fill="#3c3b3d"/>
            <path id="Trazado_925331" data-name="Trazado 925331" d="M46.014,14.535h0V5.121A1.416,1.416,0,0,0,44.622,3.73H15.2a1.416,1.416,0,0,0-1.391,1.391v10.7a1.391,1.391,0,1,0,2.781,0V6.405H43.34v9.414a1.416,1.416,0,0,0,1.39,1.391h1.392V14.535Z" transform="translate(0.844 0.228)" fill="#60534a"/>
            <path id="Trazado_925332" data-name="Trazado 925332" d="M60.371,15.225H3.67a2.421,2.421,0,0,0-2.461,2.46V52.99A2.421,2.421,0,0,0,3.67,55.45h56.7a2.421,2.421,0,0,0,2.461-2.46V17.685a2.488,2.488,0,0,0-2.461-2.46" transform="translate(0.074 0.931)" fill="#60534a"/>
            <path id="Trazado_925333" data-name="Trazado 925333" d="M58.76,21.857a2.649,2.649,0,0,1-2.675-2.674V15.225H7.943v3.958a2.648,2.648,0,0,1-2.674,2.674H1.31V48.6H5.269a2.649,2.649,0,0,1,2.674,2.675v3.958H56.085V51.384A2.649,2.649,0,0,1,58.76,48.71h3.958V21.965H58.76Z" transform="translate(0.08 0.931)" fill="#6b4502"/>
            <path id="Trazado_925334" data-name="Trazado 925334" d="M55.685,0A4.065,4.065,0,1,1,51.62,4.065,4.066,4.066,0,0,1,55.685,0" transform="translate(3.155 0)" fill="#6b4502"/>
            <path id="Trazado_925335" data-name="Trazado 925335" d="M31.016,21.475A13.373,13.373,0,1,1,17.643,34.849,13.374,13.374,0,0,1,31.016,21.475" transform="translate(1.078 1.313)" fill="#8ce6fe"/>
            <path id="Trazado_925336" data-name="Trazado 925336" d="M43.625,34.848h-6.74c0-7.382-3-13.374-6.739-13.374A13.4,13.4,0,0,1,43.625,34.848" transform="translate(1.842 1.313)" fill="#469be0"/>
            <path id="Trazado_925337" data-name="Trazado 925337" d="M30.246,34.078h6.74c0,7.381-3,13.373-6.74,13.373Z" transform="translate(1.848 2.083)" fill="#469be0"/>
            <path id="Trazado_925338" data-name="Trazado 925338" d="M24.377,34.078c0,7.381,3,13.373,6.74,13.373A13.379,13.379,0,0,1,17.744,34.078Z" transform="translate(1.084 2.083)" fill="#469be0"/>
            <path id="Trazado_925339" data-name="Trazado 925339" d="M30.634,21.475V34.849h-6.74c.107-7.383,3-13.374,6.74-13.374" transform="translate(1.46 1.313)" fill="#469be0"/>
            <path id="Trazado_925340" data-name="Trazado 925340" d="M59.671,46.681V50.96a2.421,2.421,0,0,1-2.461,2.461H52.93V49.462a2.649,2.649,0,0,1,2.675-2.674h4.066Z" transform="translate(3.235 2.853)" fill="#332103"/>
            <path id="Trazado_925341" data-name="Trazado 925341" d="M7.95,49.462V53.42H3.671a2.421,2.421,0,0,1-2.462-2.46V46.681H5.167A2.763,2.763,0,0,1,7.95,49.462" transform="translate(0.074 2.853)" fill="#332103"/>
            <path id="Trazado_925342" data-name="Trazado 925342" d="M7.944,15.231v3.958A2.648,2.648,0,0,1,5.27,21.863H1.311V17.585A2.421,2.421,0,0,1,3.77,15.123H7.944Z" transform="translate(0.08 0.925)" fill="#332103"/>
            <path id="Trazado_925343" data-name="Trazado 925343" d="M59.665,17.679v4.279H55.707a2.648,2.648,0,0,1-2.675-2.674V15.325H57.31a2.3,2.3,0,0,1,2.355,2.354" transform="translate(3.241 0.937)" fill="#332103"/>
            <rect id="Rectángulo_409255" data-name="Rectángulo 409255" width="2.675" height="2.675" transform="translate(6.74 2.781)" fill="#fcdf8e"/>
            <rect id="Rectángulo_409256" data-name="Rectángulo 409256" width="2.675" height="2.674" transform="translate(4.065 5.456)" fill="#fcdf8e"/>
            <rect id="Rectángulo_409257" data-name="Rectángulo 409257" width="2.675" height="2.674" transform="translate(4.065 0.107)" fill="#fcdf8e"/>
            <rect id="Rectángulo_409258" data-name="Rectángulo 409258" width="2.674" height="2.675" transform="translate(1.391 2.781)" fill="#fcdf8e"/>
          </g>
        </g>
      </g>
    </g>
  </g>
</svg>
