<svg xmlns="http://www.w3.org/2000/svg" xmlns:xlink="http://www.w3.org/1999/xlink" width="105.334" height="105.692" viewBox="0 0 105.334 105.692">
  <defs>
    <clipPath id="clip-path">
      <rect id="Rectángulo_407255" data-name="Rectángulo 407255" width="105.334" height="105.693" transform="translate(0)" fill="#07c3f3"/>
    </clipPath>
    <clipPath id="clip-path-2">
      <rect id="Rectángulo_401492" data-name="Rectángulo 401492" width="65.388" height="65.389" transform="translate(-0.333 0)" fill="#12263f" stroke="#707070" stroke-width="1"/>
    </clipPath>
    <clipPath id="clip-path-3">
      <rect id="Rectángulo_409195" data-name="Rectángulo 409195" width="62.242" height="62.389" fill="#953c2d"/>
    </clipPath>
  </defs>
  <g id="Grupo_1118047" data-name="Grupo 1118047" transform="translate(-179.664 -3685)">
    <g id="Grupo_1116923" data-name="Grupo 1116923" transform="translate(179.664 3685)" clip-path="url(#clip-path)">
      <path id="Trazado_893365" data-name="Trazado 893365" d="M104.048,31.292C97.88,10.265,51.742-13.615,17.656,9.414s-9.13,105.365-4.625,88.724c4.329-15.992,23.523-2.928,37.93-2.46C67,96.2,77.411,92.049,77.386,91.987c7.4-2.756,12.628-6.379,17-13.195,8.73-13.615,13.376-34.847,9.664-47.5" transform="translate(0.001 2.676)" fill="#f69a8b"/>
    </g>
    <g id="Grupo_1115380" data-name="Grupo 1115380" transform="translate(199.664 3705)">
      <rect id="Rectángulo_401104" data-name="Rectángulo 401104" width="60.924" height="61.907" transform="translate(2.232 0)" fill="none"/>
      <g id="Enmascarar_grupo_1098697" data-name="Enmascarar grupo 1098697" transform="translate(0 0)" clip-path="url(#clip-path-2)">
        <g id="Grupo_1119473" data-name="Grupo 1119473" transform="translate(1.668 2)">
          <g id="Grupo_1119472" data-name="Grupo 1119472" clip-path="url(#clip-path-3)">
            <path id="Trazado_925061" data-name="Trazado 925061" d="M66.28,86.566c.413-2.318,3.781-3.031,5.724-2.352-.149-3.227,3-4.194,5.708-3.488.94-3.727,6.392-3.467,6.561.421,1.4-.247,7.053.408,7.886-.189A1.209,1.209,0,0,0,92.043,79c-1-.48-3.951.484-4.557-.763-1.162-2.391,3.808-1.433,5.072-1.583a1.694,1.694,0,0,0,1.334-2.72c-1.166-1.438-7.344.69-6.519-2.048.437-1.449,5.434-.409,6.774-.8a1.613,1.613,0,0,0,.257-2.83c-1.31-.734-6.31.531-6.963-.807a1.115,1.115,0,0,1,.4-1.445c1.122-.671,6.833.17,8.716-.281,1.853-.443,1.61-2.949-.52-3.188-4.338-.486-9.841.584-14.1-.014-1.484-.208-1.321-2.06.8-2.238a99.569,99.569,0,0,1,12.9,0c.972.078,1.867.42,2.813.591l5.16-4.882a1.2,1.2,0,0,1,1.237,1.444c-.276,1.012-4.172,3.986-4.928,5.111-.154.8.227,1.464.094,2.332-.195,1.268-1.684,2.947-3.055,2.979a4.171,4.171,0,0,1,.363,2.712c-.165.8-1.375,2.005-1.381,2.289-.019,1.009,1.051,1.4.351,3.428-.349,1.012-1.721,1.982-1.755,2.117-.064.264.373,1.125.376,1.617.007,1.3-1.428,3.374-2.759,3.374H84.477V88c0,1.992-2.5,4.138-4.5,3.169.065,3.334-2.713,4.793-5.725,3.883-.308,2.988-3.04,4.039-5.726,3.273.9,5.1-5.216,7.158-7.873,3.07-1.018.712-4.93,5.407-5.737,5.524a1.159,1.159,0,0,1-1.212-1.64l6.756-6.944c.484-2.046-.53-5.717.534-7.44,1.159-1.876,3.366-1.818,5.282-1.363.11-.9-.152-2.11,0-2.965m13.7-5.725v7.77c1.572,1.194,2.148.17,2.258-1.423.079-1.148.152-5.3-.2-6.157-.422-1.025-1.868-.871-2.059-.19m-4.762,1.987a1.2,1.2,0,0,0-.959.879c.3,1.72-.5,7.648.188,8.8.542.91,3.011.921,3.264-.85a47.9,47.9,0,0,0,.008-7.534c-.205-1.293-1.34-1.557-2.5-1.3M69.288,86.3a1.31,1.31,0,0,0-.567.455c-.681,1.142.111,6.91-.188,8.6.244,1.266,3.158,1.5,3.46-.416a48.113,48.113,0,0,0,0-7.338c-.209-1.316-1.545-1.631-2.706-1.3m-5.722,5.318c-.358.078-.728.264-.761.67v8.179c.173.933,3.173,1.357,3.464-.421a50.9,50.9,0,0,0-.032-7.509c-.263-1.191-1.705-1.128-2.671-.918" transform="translate(-42.631 -44.541)" fill="#953c2d"/>
            <path id="Trazado_925062" data-name="Trazado 925062" d="M50.385.262a1.337,1.337,0,0,1,.06,1.5l-8.616,8.558c-2.089,1.985-5.44.642-7.534,2.076-1.211.829-5.123,6.337-5.709,7.786C26.8,24.6,28.059,27.8,24.167,31.911L1.886,50.726A1.159,1.159,0,0,1,.354,48.989l11.757-9.932.062-.265a6.289,6.289,0,0,1,.027-7.4,64.215,64.215,0,0,1,6.681-6.608c1.892-1.319,4.38-1.2,6.589-1.488a15.244,15.244,0,0,1,1.62-5.229c.922-1.664,4.811-6.964,6.311-7.8,2.83-1.573,4.942.019,7.735-2.284C43.818,5.775,46.24,2.531,48.889.2a1.338,1.338,0,0,1,1.5.06M25.08,25.568c-1.6.26-3.6.147-4.975,1.055a52.938,52.938,0,0,0-6.348,6.533,4.044,4.044,0,0,0,.071,4.176c.293.227.891-.345,1.126-.525,2.061-1.581,4.76-3.844,6.653-5.614a9.992,9.992,0,0,0,3.472-5.625" transform="translate(0 0)" fill="#953c2d"/>
          </g>
        </g>
      </g>
    </g>
  </g>
</svg>
